<?xml version="1.0" standalone="no"?>
<!DOCTYPE svg PUBLIC "-//W3C//DTD SVG 20010904//EN"
 "http://www.w3.org/TR/2001/REC-SVG-20010904/DTD/svg10.dtd">
<svg version="1.0" xmlns="http://www.w3.org/2000/svg"
 width="320.000000pt" height="320.000000pt" viewBox="0 0 320.000000 320.000000"
 preserveAspectRatio="xMidYMid meet">

<g transform="translate(0.000000,320.000000) scale(0.100000,-0.100000)"
fill="#000000" stroke="none">
<path d="M1427 3189 c-471 -54 -896 -312 -1153 -698 -278 -416 -346 -923 -188
-1401 108 -327 336 -625 623 -816 416 -278 924 -346 1401 -188 470 156 848
534 1004 1004 112 339 112 680 0 1020 -233 704 -953 1165 -1687 1079z m378
-784 c233 -64 431 -240 521 -463 49 -122 59 -178 59 -337 0 -126 -4 -162 -23
-228 -27 -96 -82 -208 -134 -277 -22 -29 -38 -55 -36 -59 2 -6 92 -83 218
-188 2 -2 -16 -24 -41 -48 l-44 -45 -112 100 -112 101 -48 -34 c-70 -50 -161
-94 -250 -119 -65 -19 -102 -22 -218 -22 -123 0 -151 4 -230 28 -263 80 -456
282 -537 561 -19 68 -23 102 -22 230 1 133 4 160 27 238 96 314 323 520 635
577 69 13 278 3 347 -15z"/>
<path d="M1424 2300 c-330 -86 -542 -411 -504 -772 18 -177 87 -325 205 -443
81 -80 152 -125 257 -163 65 -23 88 -26 208 -26 120 0 144 3 215 27 80 27 209
100 203 116 -2 5 -249 219 -297 257 -6 5 69 94 79 94 4 0 75 -61 156 -135
l149 -135 27 32 c40 48 104 182 124 263 27 104 25 286 -5 389 -55 198 -186
363 -351 445 -145 71 -318 90 -466 51z"/>
</g>
</svg>