<svg id="svg" version="1.1" xmlns="http://www.w3.org/2000/svg" xmlns:xlink="http://www.w3.org/1999/xlink" width="400" height="400" viewBox="0, 0, 400,400"><g id="svgg"><path id="path0" d="M69.787 70.100 C 69.312 71.366,69.407 212.326,69.883 211.931 C 70.149 211.710,81.129 200.791,94.283 187.665 C 128.237 153.784,121.954 154.016,153.847 185.472 C 165.183 196.652,174.722 205.800,175.043 205.800 C 175.959 205.800,242.387 139.631,242.133 138.971 C 241.953 138.500,237.543 138.391,214.459 138.288 C 189.978 138.178,186.730 138.090,184.512 137.477 C 180.509 136.371,177.260 133.737,175.953 130.538 C 175.697 129.912,175.243 128.833,174.944 128.140 C 174.242 126.514,174.250 123.297,174.959 121.939 C 175.263 121.355,175.728 120.224,175.991 119.426 C 176.563 117.695,180.099 114.085,181.562 113.738 C 182.133 113.603,182.934 113.202,183.342 112.846 C 184.532 111.809,277.719 111.862,279.304 112.900 C 279.891 113.285,280.613 113.600,280.908 113.600 C 281.596 113.600,286.396 118.210,286.414 118.888 C 286.421 119.169,286.775 120.120,287.200 121.000 C 288.429 123.544,288.429 214.744,287.200 216.600 C 286.763 217.260,286.404 218.103,286.403 218.473 C 286.401 218.843,285.451 220.126,284.291 221.324 C 278.374 227.433,269.090 226.687,264.390 219.724 C 262.275 216.590,262.256 216.302,262.115 186.631 C 261.988 159.897,261.902 158.000,260.815 158.000 C 260.657 158.000,243.237 175.235,222.103 196.300 C 200.970 217.365,183.134 235.008,182.468 235.507 C 179.486 237.740,171.163 237.921,168.813 235.805 C 168.476 235.501,167.223 234.386,166.029 233.326 C 164.834 232.267,158.264 225.904,151.429 219.186 C 122.594 190.848,125.565 193.595,124.418 194.216 C 123.858 194.520,111.443 206.745,96.830 221.384 C 82.216 236.023,70.000 248.000,69.683 248.000 C 69.281 248.000,69.179 248.271,69.348 248.900 C 69.481 249.395,69.592 267.937,69.595 290.104 L 69.600 330.407 90.623 330.304 L 111.646 330.200 111.627 311.600 C 111.609 294.124,111.803 290.227,112.721 289.641 C 112.929 289.509,113.220 288.845,113.367 288.167 C 113.715 286.559,117.159 282.907,118.866 282.335 C 119.600 282.088,120.492 281.635,120.849 281.327 C 121.973 280.359,128.680 280.548,129.777 281.578 C 130.258 282.030,130.873 282.400,131.143 282.400 C 133.092 282.400,136.995 287.129,137.438 290.027 C 137.587 291.002,137.871 292.007,138.070 292.259 C 138.276 292.522,138.381 300.706,138.315 311.377 C 138.202 329.752,138.212 330.038,139.000 330.228 C 139.440 330.334,150.330 330.371,163.200 330.311 L 186.600 330.200 186.803 310.600 C 186.995 292.151,187.054 290.894,187.803 289.190 C 189.206 286.002,192.250 282.441,193.600 282.409 C 193.930 282.401,194.740 282.037,195.400 281.600 C 197.152 280.440,203.216 280.440,204.691 281.600 C 205.250 282.040,206.017 282.400,206.395 282.400 C 207.579 282.400,211.962 287.253,211.995 288.600 C 212.001 288.820,212.319 289.540,212.702 290.200 C 213.337 291.291,213.407 293.162,213.478 310.800 L 213.555 330.200 237.678 330.200 L 261.800 330.200 262.024 310.600 C 262.250 290.802,262.443 288.255,263.773 287.511 C 264.118 287.318,264.400 286.880,264.400 286.537 C 264.400 285.715,268.002 282.410,268.904 282.404 C 269.291 282.402,269.916 282.040,270.293 281.600 C 271.150 280.599,278.334 280.391,279.282 281.340 C 279.579 281.636,280.492 282.100,281.311 282.371 C 282.130 282.641,282.800 283.032,282.800 283.240 C 282.800 283.447,283.250 283.822,283.800 284.073 C 284.350 284.323,284.800 284.759,284.800 285.042 C 284.800 285.324,285.147 285.798,285.572 286.095 C 285.996 286.393,286.470 287.168,286.625 287.818 C 286.781 288.468,287.198 289.334,287.554 289.742 C 288.127 290.400,288.213 292.741,288.311 310.442 L 288.422 330.400 309.411 330.400 L 330.400 330.400 330.400 200.000 L 330.400 69.600 200.187 69.600 C 96.384 69.600,69.937 69.701,69.787 70.100 " stroke="none" fill="#14ccc4" fill-rule="evenodd"></path><path id="path1" d="M51.438 45.800 C 50.844 46.350,50.084 46.800,49.749 46.800 C 49.085 46.800,46.800 48.904,46.800 49.515 C 46.800 49.723,46.395 50.407,45.900 51.036 L 45.000 52.180 45.000 200.000 L 45.000 347.820 45.900 348.964 C 46.395 349.593,46.800 350.287,46.800 350.507 C 46.800 351.018,49.526 353.600,50.065 353.600 C 50.290 353.600,50.931 353.960,51.491 354.400 C 53.037 355.617,346.889 355.671,348.446 354.455 C 348.971 354.045,349.805 353.583,350.300 353.428 C 350.796 353.273,351.387 352.798,351.614 352.373 C 351.842 351.948,352.278 351.600,352.582 351.600 C 352.887 351.600,353.251 351.079,353.391 350.441 C 353.531 349.804,353.995 348.966,354.423 348.579 C 355.668 347.453,355.645 52.527,354.400 51.400 C 353.960 51.002,353.600 50.447,353.600 50.166 C 353.600 49.567,351.077 46.800,350.530 46.800 C 350.324 46.800,349.545 46.350,348.800 45.800 L 347.445 44.800 199.981 44.800 L 52.517 44.800 51.438 45.800 M331.024 68.968 C 331.789 69.527,331.801 71.375,331.902 199.784 L 332.004 330.033 331.020 331.016 L 330.036 332.000 309.418 332.000 C 289.333 332.000,288.779 331.979,288.000 331.200 C 287.224 330.424,287.200 329.867,287.200 312.635 C 287.200 292.564,286.978 290.221,284.748 286.780 C 284.042 285.691,283.282 284.800,283.058 284.800 C 282.835 284.800,282.266 284.438,281.795 283.995 C 279.146 281.506,271.086 281.357,268.457 283.748 C 266.757 285.295,265.472 286.734,264.481 288.200 L 263.400 289.800 263.298 309.600 C 263.181 332.253,263.293 331.024,261.296 331.606 C 258.443 332.437,213.385 331.957,212.514 331.086 C 211.852 330.425,211.785 328.853,211.600 309.670 L 211.400 288.967 210.400 287.637 C 208.725 285.410,206.256 283.190,205.200 282.961 C 204.650 282.842,203.474 282.487,202.587 282.172 C 199.324 281.015,194.387 282.455,191.898 285.289 C 191.071 286.230,189.991 287.420,189.498 287.933 L 188.600 288.866 188.480 309.589 C 188.363 329.914,188.345 330.326,187.538 331.056 C 186.255 332.217,138.939 332.212,137.656 331.050 C 136.842 330.314,136.826 329.953,136.714 309.812 C 136.618 292.549,136.508 289.211,136.016 288.618 C 135.694 288.231,135.244 287.540,135.016 287.081 C 132.563 282.164,123.358 280.375,118.527 283.877 C 117.826 284.385,117.056 284.800,116.814 284.800 C 116.573 284.800,116.264 285.115,116.128 285.500 C 115.992 285.885,115.562 286.560,115.173 287.000 C 113.411 288.990,113.200 291.603,113.200 311.376 L 113.200 330.036 112.208 331.029 L 111.216 332.021 90.379 331.910 C 70.027 331.803,69.532 331.781,69.072 331.000 C 68.188 329.502,67.873 260.597,68.204 141.629 C 68.388 75.675,68.458 69.799,69.064 69.129 C 69.968 68.130,329.660 67.970,331.024 68.968 " stroke="none" fill="#047263" fill-rule="evenodd"></path><path id="path2" d="M0.000 200.000 L 0.000 400.000 200.000 400.000 L 400.000 400.000 400.000 200.000 L 400.000 0.000 200.000 0.000 L 0.000 0.000 0.000 200.000 M347.773 43.694 C 349.079 44.061,350.303 44.641,350.493 44.981 C 350.684 45.321,351.037 45.600,351.277 45.600 C 351.875 45.600,354.390 48.085,354.396 48.680 C 354.398 48.944,354.687 49.321,355.038 49.517 C 357.089 50.665,356.981 42.806,357.102 199.800 C 357.172 290.376,357.071 345.301,356.836 345.800 C 356.628 346.240,356.345 347.285,356.206 348.122 C 356.068 348.960,355.605 349.995,355.178 350.422 C 354.750 350.850,354.400 351.458,354.400 351.773 C 354.400 352.088,354.049 352.457,353.620 352.594 C 353.192 352.730,352.730 353.192,352.594 353.620 C 352.457 354.049,352.038 354.400,351.662 354.400 C 351.286 354.400,350.678 354.750,350.312 355.178 C 349.946 355.605,348.961 356.067,348.123 356.203 C 347.285 356.339,346.178 356.623,345.662 356.834 C 344.394 357.352,56.212 357.359,54.587 356.840 C 53.934 356.632,52.715 356.348,51.877 356.208 C 51.039 356.069,50.054 355.605,49.688 355.178 C 49.322 354.750,48.837 354.398,48.611 354.396 C 48.066 354.390,45.600 351.836,45.600 351.277 C 45.600 351.037,45.331 350.689,45.002 350.505 C 42.658 349.193,42.784 358.288,42.912 199.000 C 43.038 41.939,42.917 50.662,44.999 49.497 C 45.330 49.312,45.600 48.983,45.600 48.767 C 45.600 48.295,48.236 45.600,48.698 45.600 C 48.876 45.600,49.314 45.259,49.670 44.843 C 50.054 44.395,51.116 43.977,52.278 43.817 C 53.356 43.668,54.500 43.382,54.819 43.179 C 56.017 42.420,345.053 42.928,347.773 43.694 M184.170 113.749 C 182.833 114.217,181.249 114.993,180.650 115.473 C 180.050 115.954,179.427 116.404,179.264 116.473 C 175.465 118.099,174.760 128.535,178.197 132.276 C 178.966 133.114,179.597 133.923,179.598 134.073 C 179.599 134.223,180.005 134.469,180.500 134.619 C 180.995 134.769,181.819 135.276,182.332 135.746 C 183.264 136.600,183.265 136.600,213.397 136.717 C 245.973 136.843,245.061 136.778,243.976 138.874 C 243.713 139.383,234.475 148.765,223.449 159.723 C 212.422 170.681,197.264 185.756,189.764 193.223 C 178.422 204.516,175.941 206.800,175.019 206.800 C 173.820 206.800,173.514 206.509,145.752 178.900 C 138.396 171.585,132.212 165.600,132.009 165.600 C 131.806 165.600,131.493 165.338,131.314 165.017 C 131.045 164.538,127.033 163.250,125.357 163.105 C 123.759 162.967,119.617 164.285,118.237 165.370 C 115.400 167.602,70.354 212.870,69.973 213.871 C 69.509 215.091,69.473 246.274,69.935 246.560 C 70.118 246.673,72.572 244.434,75.386 241.583 C 78.200 238.732,80.648 236.400,80.825 236.400 C 81.001 236.400,81.257 236.049,81.394 235.620 C 81.530 235.192,81.983 234.733,82.400 234.600 C 82.817 234.467,83.270 234.008,83.406 233.580 C 83.543 233.151,83.809 232.800,83.998 232.800 C 84.188 232.800,84.581 232.544,84.871 232.231 C 87.583 229.314,96.600 220.400,96.839 220.400 C 97.008 220.400,97.257 220.049,97.394 219.620 C 97.530 219.192,97.983 218.733,98.400 218.600 C 98.817 218.467,99.270 218.008,99.406 217.580 C 99.543 217.151,99.809 216.800,99.998 216.800 C 100.188 216.800,100.581 216.544,100.871 216.231 C 103.583 213.314,112.600 204.400,112.839 204.400 C 113.008 204.400,113.257 204.049,113.394 203.620 C 113.530 203.192,113.983 202.733,114.400 202.600 C 114.817 202.467,115.267 202.017,115.400 201.600 C 115.533 201.183,115.992 200.730,116.420 200.594 C 116.849 200.457,117.200 200.199,117.200 200.020 C 117.200 199.545,122.951 194.023,124.299 193.203 C 125.399 192.534,125.483 192.538,126.422 193.292 C 127.399 194.076,165.771 231.798,167.323 233.500 C 167.775 233.995,168.387 234.400,168.685 234.400 C 168.982 234.400,169.325 234.660,169.447 234.979 C 170.072 236.606,179.334 236.762,181.026 235.175 C 181.480 234.749,182.018 234.400,182.221 234.400 C 182.424 234.400,200.099 216.895,221.498 195.500 C 258.663 158.341,262.026 155.165,262.840 156.451 C 263.031 156.753,263.196 169.420,263.207 184.600 C 263.225 210.714,263.446 217.392,264.308 217.957 C 264.513 218.091,264.913 218.642,265.198 219.182 C 265.483 219.722,266.162 220.532,266.709 220.982 C 267.255 221.432,268.104 222.205,268.597 222.700 C 269.089 223.195,269.921 223.601,270.446 223.602 C 270.971 223.603,272.120 223.804,273.000 224.049 C 276.136 224.919,284.000 222.338,284.000 220.438 C 284.000 220.280,284.346 219.780,284.768 219.327 C 287.225 216.689,287.200 217.212,287.200 168.848 L 287.200 124.783 286.310 121.759 C 285.061 117.511,282.801 115.249,278.378 113.817 L 275.237 112.800 230.918 112.849 C 186.803 112.897,186.589 112.902,184.170 113.749 " stroke="none" fill="#fbfcfc" fill-rule="evenodd"></path><path id="path3" d="M54.819 43.179 C 54.500 43.382,53.356 43.668,52.278 43.817 C 51.116 43.977,50.054 44.395,49.670 44.843 C 49.314 45.259,48.876 45.600,48.698 45.600 C 48.236 45.600,45.600 48.295,45.600 48.767 C 45.600 48.983,45.330 49.312,44.999 49.497 C 42.917 50.662,43.038 41.939,42.912 199.000 C 42.784 358.288,42.658 349.193,45.002 350.505 C 45.331 350.689,45.600 351.037,45.600 351.277 C 45.600 351.836,48.066 354.390,48.611 354.396 C 48.837 354.398,49.322 354.750,49.688 355.178 C 50.054 355.605,51.039 356.069,51.877 356.208 C 52.715 356.348,53.934 356.632,54.587 356.840 C 56.212 357.359,344.394 357.352,345.662 356.834 C 346.178 356.623,347.285 356.339,348.123 356.203 C 348.961 356.067,349.946 355.605,350.312 355.178 C 350.678 354.750,351.286 354.400,351.662 354.400 C 352.038 354.400,352.457 354.049,352.594 353.620 C 352.730 353.192,353.192 352.730,353.620 352.594 C 354.049 352.457,354.400 352.088,354.400 351.773 C 354.400 351.458,354.750 350.850,355.178 350.422 C 355.605 349.995,356.068 348.960,356.206 348.122 C 356.345 347.285,356.628 346.240,356.836 345.800 C 357.071 345.301,357.172 290.376,357.102 199.800 C 356.981 42.806,357.089 50.665,355.038 49.517 C 354.687 49.321,354.398 48.944,354.396 48.680 C 354.390 48.085,351.875 45.600,351.277 45.600 C 351.037 45.600,350.684 45.321,350.493 44.981 C 349.343 42.925,357.305 43.034,200.400 42.918 C 112.599 42.853,55.171 42.956,54.819 43.179 M348.400 44.990 C 348.950 45.308,349.850 45.798,350.400 46.079 C 351.680 46.732,353.268 48.320,353.921 49.600 C 354.202 50.150,354.692 51.050,355.010 51.600 C 355.511 52.467,355.589 72.192,355.594 200.129 L 355.600 347.658 354.514 349.529 C 353.143 351.892,351.892 353.143,349.529 354.514 L 347.658 355.600 199.906 355.600 L 52.155 355.600 50.800 354.600 C 50.055 354.050,49.313 353.600,49.153 353.600 C 48.810 353.600,46.822 351.616,46.092 350.545 C 44.302 347.920,44.400 356.620,44.400 199.948 L 44.400 52.670 45.454 50.835 C 47.070 48.021,49.278 45.961,52.000 44.728 C 53.354 44.114,347.335 44.374,348.400 44.990 M184.600 112.284 C 184.160 112.393,183.530 112.710,183.200 112.988 C 182.870 113.265,182.133 113.603,181.562 113.738 C 180.099 114.085,176.563 117.695,175.991 119.426 C 175.728 120.224,175.263 121.355,174.959 121.939 C 174.250 123.297,174.242 126.514,174.944 128.140 C 175.243 128.833,175.697 129.912,175.953 130.538 C 177.260 133.737,180.509 136.371,184.512 137.477 C 186.730 138.090,189.978 138.178,214.459 138.288 C 237.543 138.391,241.953 138.500,242.133 138.971 C 242.387 139.631,175.959 205.800,175.043 205.800 C 174.722 205.800,165.183 196.652,153.847 185.472 C 129.370 161.330,130.186 162.000,125.247 162.000 C 119.828 162.000,120.869 161.132,93.785 188.200 C 80.356 201.620,69.151 213.103,68.885 213.719 C 68.374 214.898,68.150 246.082,68.643 247.367 C 69.215 248.859,71.556 246.702,96.830 221.384 C 111.443 206.745,123.858 194.520,124.418 194.216 C 125.565 193.595,122.594 190.848,151.429 219.186 C 158.264 225.904,164.834 232.267,166.029 233.326 C 167.223 234.386,168.476 235.501,168.813 235.805 C 171.163 237.921,179.486 237.740,182.468 235.507 C 183.134 235.008,200.970 217.365,222.103 196.300 C 243.237 175.235,260.657 158.000,260.815 158.000 C 261.902 158.000,261.988 159.897,262.115 186.631 C 262.256 216.302,262.275 216.590,264.390 219.724 C 269.090 226.687,278.374 227.433,284.291 221.324 C 285.451 220.126,286.401 218.843,286.403 218.473 C 286.404 218.103,286.763 217.260,287.200 216.600 C 288.429 214.744,288.429 123.544,287.200 121.000 C 286.775 120.120,286.421 119.169,286.414 118.888 C 286.396 118.210,281.596 113.600,280.908 113.600 C 280.613 113.600,279.891 113.285,279.304 112.900 C 278.268 112.221,187.243 111.630,184.600 112.284 M278.378 113.817 C 282.801 115.249,285.061 117.511,286.310 121.759 L 287.200 124.783 287.200 168.848 C 287.200 217.212,287.225 216.689,284.768 219.327 C 284.346 219.780,284.000 220.280,284.000 220.438 C 284.000 222.338,276.136 224.919,273.000 224.049 C 272.120 223.804,270.971 223.603,270.446 223.602 C 269.921 223.601,269.089 223.195,268.597 222.700 C 268.104 222.205,267.255 221.432,266.709 220.982 C 266.162 220.532,265.483 219.722,265.198 219.182 C 264.913 218.642,264.513 218.091,264.308 217.957 C 263.446 217.392,263.225 210.714,263.207 184.600 C 263.196 169.420,263.031 156.753,262.840 156.451 C 262.026 155.165,258.663 158.341,221.498 195.500 C 200.099 216.895,182.424 234.400,182.221 234.400 C 182.018 234.400,181.480 234.749,181.026 235.175 C 179.334 236.762,170.072 236.606,169.447 234.979 C 169.325 234.660,168.982 234.400,168.685 234.400 C 168.387 234.400,167.775 233.995,167.323 233.500 C 165.771 231.798,127.399 194.076,126.422 193.292 C 125.483 192.538,125.399 192.534,124.299 193.203 C 122.951 194.023,117.200 199.545,117.200 200.020 C 117.200 200.199,116.849 200.457,116.420 200.594 C 115.992 200.730,115.533 201.183,115.400 201.600 C 115.267 202.017,114.817 202.467,114.400 202.600 C 113.983 202.733,113.530 203.192,113.394 203.620 C 113.257 204.049,113.008 204.400,112.839 204.400 C 112.600 204.400,103.583 213.314,100.871 216.231 C 100.581 216.544,100.188 216.800,99.998 216.800 C 99.809 216.800,99.543 217.151,99.406 217.580 C 99.270 218.008,98.817 218.467,98.400 218.600 C 97.983 218.733,97.530 219.192,97.394 219.620 C 97.257 220.049,97.008 220.400,96.839 220.400 C 96.600 220.400,87.583 229.314,84.871 232.231 C 84.581 232.544,84.188 232.800,83.998 232.800 C 83.809 232.800,83.543 233.151,83.406 233.580 C 83.270 234.008,82.817 234.467,82.400 234.600 C 81.983 234.733,81.530 235.192,81.394 235.620 C 81.257 236.049,81.001 236.400,80.825 236.400 C 80.648 236.400,78.200 238.732,75.386 241.583 C 72.572 244.434,70.118 246.673,69.935 246.560 C 69.473 246.274,69.509 215.091,69.973 213.871 C 70.354 212.870,115.400 167.602,118.237 165.370 C 119.617 164.285,123.759 162.967,125.357 163.105 C 127.033 163.250,131.045 164.538,131.314 165.017 C 131.493 165.338,131.806 165.600,132.009 165.600 C 132.212 165.600,138.396 171.585,145.752 178.900 C 173.514 206.509,173.820 206.800,175.019 206.800 C 175.941 206.800,178.422 204.516,189.764 193.223 C 197.264 185.756,212.422 170.681,223.449 159.723 C 234.475 148.765,243.713 139.383,243.976 138.874 C 245.061 136.778,245.973 136.843,213.397 136.717 C 183.265 136.600,183.264 136.600,182.332 135.746 C 181.819 135.276,180.995 134.769,180.500 134.619 C 180.005 134.469,179.599 134.223,179.598 134.073 C 179.597 133.923,178.966 133.114,178.197 132.276 C 174.760 128.535,175.465 118.099,179.264 116.473 C 179.427 116.404,180.050 115.954,180.650 115.473 C 183.999 112.790,181.830 112.903,230.918 112.849 L 275.237 112.800 278.378 113.817 " stroke="none" fill="#b4cccc" fill-rule="evenodd"></path><path id="path4" d="M52.000 44.728 C 49.278 45.961,47.070 48.021,45.454 50.835 L 44.400 52.670 44.400 199.948 C 44.400 356.620,44.302 347.920,46.092 350.545 C 46.822 351.616,48.810 353.600,49.153 353.600 C 49.313 353.600,50.055 354.050,50.800 354.600 L 52.155 355.600 199.906 355.600 L 347.658 355.600 349.529 354.514 C 351.892 353.143,353.143 351.892,354.515 349.528 L 355.601 347.656 355.500 199.928 L 355.399 52.200 355.299 200.038 C 355.201 345.865,355.189 347.886,354.423 348.579 C 353.995 348.966,353.531 349.804,353.391 350.441 C 353.251 351.079,352.887 351.600,352.582 351.600 C 352.278 351.600,351.842 351.948,351.614 352.373 C 351.387 352.798,350.796 353.273,350.300 353.428 C 349.805 353.583,348.971 354.045,348.446 354.455 C 346.889 355.671,53.037 355.617,51.491 354.400 C 50.931 353.960,50.290 353.600,50.065 353.600 C 49.526 353.600,46.800 351.018,46.800 350.507 C 46.800 350.287,46.395 349.593,45.900 348.964 L 45.000 347.820 45.000 200.000 L 45.000 52.180 45.900 51.036 C 46.395 50.407,46.800 49.723,46.800 49.515 C 46.800 48.904,49.085 46.800,49.749 46.800 C 50.084 46.800,50.844 46.350,51.438 45.800 L 52.517 44.800 199.981 44.800 L 347.445 44.800 348.800 45.800 C 349.545 46.350,350.324 46.800,350.530 46.800 C 351.077 46.800,353.600 49.567,353.600 50.166 C 353.600 50.447,353.960 51.002,354.400 51.400 C 354.840 51.798,355.200 51.938,355.200 51.711 C 355.200 51.484,354.937 51.080,354.615 50.813 C 354.294 50.546,353.910 49.946,353.762 49.479 C 353.438 48.461,351.780 46.783,350.400 46.079 C 349.850 45.798,348.950 45.308,348.400 44.990 C 347.335 44.374,53.354 44.114,52.000 44.728 M69.064 69.129 C 68.458 69.799,68.388 75.675,68.204 141.629 C 67.873 260.597,68.188 329.502,69.072 331.000 C 69.532 331.781,70.027 331.803,90.379 331.910 L 111.216 332.021 112.208 331.029 L 113.200 330.036 113.200 311.376 C 113.200 291.603,113.411 288.990,115.173 287.000 C 115.562 286.560,115.992 285.885,116.128 285.500 C 116.264 285.115,116.573 284.800,116.814 284.800 C 117.056 284.800,117.826 284.385,118.527 283.877 C 123.358 280.375,132.563 282.164,135.016 287.081 C 135.244 287.540,135.694 288.231,136.016 288.618 C 136.508 289.211,136.618 292.549,136.714 309.812 C 136.826 329.953,136.842 330.314,137.656 331.050 C 138.939 332.212,186.255 332.217,187.538 331.056 C 188.345 330.326,188.363 329.914,188.480 309.589 L 188.600 288.866 189.498 287.933 C 189.991 287.420,191.071 286.230,191.898 285.289 C 194.387 282.455,199.324 281.015,202.587 282.172 C 203.474 282.487,204.650 282.842,205.200 282.961 C 206.256 283.190,208.725 285.410,210.400 287.637 L 211.400 288.967 211.600 309.670 C 211.785 328.853,211.852 330.425,212.514 331.086 C 213.385 331.957,258.443 332.437,261.296 331.606 C 263.293 331.024,263.181 332.253,263.298 309.600 L 263.400 289.800 264.481 288.200 C 265.472 286.734,266.757 285.295,268.457 283.748 C 271.086 281.357,279.146 281.506,281.795 283.995 C 282.266 284.438,282.835 284.800,283.058 284.800 C 283.282 284.800,284.042 285.691,284.748 286.780 C 286.978 290.221,287.200 292.564,287.200 312.635 C 287.200 329.867,287.224 330.424,288.000 331.200 C 288.779 331.979,289.333 332.000,309.418 332.000 L 330.036 332.000 331.020 331.016 L 332.004 330.033 331.902 199.784 C 331.801 71.375,331.789 69.527,331.024 68.968 C 329.660 67.970,69.968 68.130,69.064 69.129 M330.400 200.000 L 330.400 330.400 309.411 330.400 L 288.422 330.400 288.311 310.442 C 288.213 292.741,288.127 290.400,287.554 289.742 C 287.198 289.334,286.781 288.468,286.625 287.818 C 286.470 287.168,285.996 286.393,285.572 286.095 C 285.147 285.798,284.800 285.324,284.800 285.042 C 284.800 284.759,284.350 284.323,283.800 284.073 C 283.250 283.822,282.800 283.447,282.800 283.240 C 282.800 283.032,282.130 282.641,281.311 282.371 C 280.492 282.100,279.579 281.636,279.282 281.340 C 278.334 280.391,271.150 280.599,270.293 281.600 C 269.916 282.040,269.291 282.402,268.904 282.404 C 268.002 282.410,264.400 285.715,264.400 286.537 C 264.400 286.880,264.118 287.318,263.773 287.511 C 262.443 288.255,262.250 290.802,262.024 310.600 L 261.800 330.200 237.678 330.200 L 213.555 330.200 213.478 310.800 C 213.407 293.162,213.337 291.291,212.702 290.200 C 212.319 289.540,212.001 288.820,211.995 288.600 C 211.962 287.253,207.579 282.400,206.395 282.400 C 206.017 282.400,205.250 282.040,204.691 281.600 C 203.216 280.440,197.152 280.440,195.400 281.600 C 194.740 282.037,193.930 282.401,193.600 282.409 C 192.250 282.441,189.206 286.002,187.803 289.190 C 187.054 290.894,186.995 292.151,186.803 310.600 L 186.600 330.200 163.200 330.311 C 150.330 330.371,139.440 330.334,139.000 330.228 C 138.212 330.038,138.202 329.752,138.315 311.377 C 138.381 300.706,138.276 292.522,138.070 292.259 C 137.871 292.007,137.587 291.002,137.438 290.027 C 136.995 287.129,133.092 282.400,131.143 282.400 C 130.873 282.400,130.258 282.030,129.777 281.578 C 128.680 280.548,121.973 280.359,120.849 281.327 C 120.492 281.635,119.600 282.088,118.866 282.335 C 117.159 282.907,113.715 286.559,113.367 288.167 C 113.220 288.845,112.929 289.509,112.721 289.641 C 111.803 290.227,111.609 294.124,111.627 311.600 L 111.646 330.200 90.623 330.304 L 69.600 330.407 69.600 290.012 C 69.600 254.773,69.522 249.422,68.991 248.094 C 68.213 246.149,68.313 215.278,69.107 212.600 C 69.464 211.394,69.583 193.678,69.590 140.567 C 69.596 101.828,69.720 70.013,69.867 69.867 C 70.013 69.720,128.693 69.600,200.267 69.600 L 330.400 69.600 330.400 200.000 " stroke="none" fill="#0ca494" fill-rule="evenodd"></path></g></svg>