<svg xmlns="http://www.w3.org/2000/svg" xmlns:xlink="http://www.w3.org/1999/xlink" width="24" height="24" viewBox="0 0 24 24"><defs><clipPath id="clip-path"><rect width="24" height="24" fill="none"/></clipPath><linearGradient id="linear-gradient" x1="9.47" y1="61.63" x2="6.28" y2="60.46" gradientTransform="matrix(1, -0.02, 0.02, 1, -1.22, -41.07)" gradientUnits="userSpaceOnUse"><stop offset="0" stop-color="#715034"/><stop offset="1" stop-color="#996733"/></linearGradient><linearGradient id="linear-gradient-2" x1="9.06" y1="62.54" x2="5.96" y2="61.4" gradientTransform="matrix(1, -0.02, 0.02, 1, -1.22, -41.07)" gradientUnits="userSpaceOnUse"><stop offset="0" stop-color="#715035"/><stop offset="1" stop-color="#986733"/></linearGradient><linearGradient id="linear-gradient-3" x1="13.79" y1="21.97" x2="19.81" y2="21.97" gradientTransform="matrix(1, 0, 0, 1, 0, 0)" xlink:href="#linear-gradient-2"/><linearGradient id="linear-gradient-4" x1="14.69" y1="23.29" x2="18.9" y2="23.29" gradientTransform="matrix(1, 0, 0, 1, 0, 0)" xlink:href="#linear-gradient-2"/><linearGradient id="linear-gradient-5" x1="17.66" y1="22.32" x2="19.65" y2="22.32" gradientTransform="matrix(1, 0, 0, 1, 0, 0)" xlink:href="#linear-gradient-2"/></defs><title>einstein_24x24</title><g style="isolation:isolate"><g id="Layer_1" data-name="Layer 1"><rect width="24" height="24" fill="#032e61"/><g clip-path="url(#clip-path)"><path d="M8,18.07c-.6-.82-1.06-.4-1.17-.49s-.38-.37-.77-.68-.83-.64-.88-.19.76,1.08.67,1.23l0,0c-.12,0-.31,0-.35.14l-.06.26a.27.27,0,0,0,.07.24.08.08,0,0,1,0,.12.21.21,0,0,0-.12.21v.29a.27.27,0,0,0,.14.23.12.12,0,0,1,0,.15.33.33,0,0,0,0,.17.72.72,0,0,0,.08.31A2.35,2.35,0,0,0,7.29,21c.52,0,1-.5,1.22-1.54a1.5,1.5,0,0,0,.1-.46C8.63,18.75,8.21,18.32,8,18.07Z" fill="#fdd5a6"/><path d="M6.85,17.58c-.19-.17-.38-.37-.77-.68s-.83-.64-.88-.19.76,1.08.67,1.23l0,0h.32a.18.18,0,0,1,0-.08A1.49,1.49,0,0,1,6.85,17.58Z" fill="#fdd5a6" opacity="0.5" style="mix-blend-mode:multiply"/><path d="M7,18.53a1.68,1.68,0,0,1,.07,1,.89.89,0,0,1-.34.61,1.79,1.79,0,0,1-1,.09,4.13,4.13,0,0,0,1.62,1c1.35.41.94-.95.94-.95s-.69-.16-.76-.77C7.37,18.28,7.15,18.56,7,18.53Z" fill="#fdd5a6" opacity="0.59" style="mix-blend-mode:multiply"/><path d="M10,18.57a2.13,2.13,0,0,1-1.43.2s.23,1.5-2,2.22a.23.23,0,0,0,0,.21,11.58,11.58,0,0,0,2.11.71l.66-2.43S10.33,18.38,10,18.57Z" fill="url(#linear-gradient)"/><g opacity="0.2" style="mix-blend-mode:multiply"><path d="M9.36,20.41,8.72,21.9a11.58,11.58,0,0,1-2.11-.71.23.23,0,0,1,0-.21,3.92,3.92,0,0,0,1-.46A2.16,2.16,0,0,0,9.36,20.41Z" fill="url(#linear-gradient-2)"/></g><path d="M13.92,16.66l.07.7a2.17,2.17,0,0,1-2,1c-.53,0-1.23-.24-1.29-.52a1.52,1.52,0,0,1,0-.71Z" fill="#fdd5a6"/><path d="M13.69,17.68a5.8,5.8,0,0,1-3.15,0l0-.43,3.18-.46Z" fill="#cdad87"/><path d="M14.15,18.26S14,23.9,13.8,24.88c0,0-3.43.56-5.17-.46a8.62,8.62,0,0,1,1.77-5.56Z" fill="#163860"/><path d="M10.39,19.1a12.71,12.71,0,0,0-1.53,5.44l-.23-.12.27-3,.92-1.85.48-.7Z" fill="#0c233b"/><path d="M12.89,19.67h0Z" fill="#0c233b"/><path d="M12.82,19.71l0,0h0l0,0h0Z" fill="#0c233b"/><path d="M12.7,19.81h0l0,0h0Z" fill="#0c233b"/><path d="M11.68,20.81h0l0,0h0l0,0h0Z" fill="#0c233b"/><path d="M12,20.51h0l0,0h0l0,0h0Z" fill="#0c233b"/><path d="M11.76,20.73h0l0,0h0l0,0h0Z" fill="#0c233b"/><path d="M11.9,20.58l0,0h0l0,0h0Z" fill="#0c233b"/><path d="M11.83,20.66l0,0h0l0,0h0Z" fill="#0c233b"/><path d="M11.61,20.89h0l0,0h0l0,0h0Z" fill="#0c233b"/><path d="M11.47,21h0l0,0h0l0,0h0Z" fill="#0c233b"/><path d="M11.4,21.12l0,0h0l0,0h0Z" fill="#0c233b"/><path d="M11.54,21h0l0,0h0l0,0h0Z" fill="#0c233b"/><path d="M12.31,20.17h0l0,0h0Z" fill="#0c233b"/><path d="M12.42,20.06l0,0h0l0,0h0Z" fill="#0c233b"/><path d="M12.54,19.95h0l0,0h0Z" fill="#0c233b"/><path d="M12.46,20h0l0,0h0Z" fill="#0c233b"/><path d="M12.66,19.84l0,0h0l0,0h0Z" fill="#0c233b"/><path d="M12.27,20.21l0,0h0l0,0h0Z" fill="#0c233b"/><path d="M12.2,20.28h0l0,0h0l0,0h0Z" fill="#0c233b"/><path d="M12.12,20.35l0,0h0l0,0h0Z" fill="#0c233b"/><path d="M12.05,20.43l0,0h0l0,0h0Z" fill="#0c233b"/><path d="M11.33,21.19h0l0,0h0l0,0h0Z" fill="#0c233b"/><polygon points="11.32 21.14 11.32 21.08 11.31 21.08 11.3 21.08 11.3 21.14 11.31 21.14 11.32 21.14" fill="#0c233b"/><polygon points="11.32 21.03 11.32 20.98 11.31 20.97 11.3 20.98 11.3 21.03 11.31 21.04 11.32 21.03" fill="#0c233b"/><polygon points="11.32 20.92 11.32 20.89 11.31 20.89 11.3 20.89 11.3 20.92 11.31 20.93 11.32 20.92" fill="#0c233b"/><path d="M10.44,19.21h0v0h0Z" fill="#0c233b"/><path d="M10.47,19.4h0v.05h0Z" fill="#0c233b"/><path d="M10.45,19.29h0v.05h0Z" fill="#0c233b"/><path d="M10.57,19.8h0v.05h0v-.05Z" fill="#0c233b"/><path d="M10.5,19.5h0v.05h0Z" fill="#0c233b"/><path d="M10.54,19.7h0v.05h0v-.05Z" fill="#0c233b"/><path d="M10.52,19.6h0v.05h0Z" fill="#0c233b"/><path d="M10.59,19.91h0l0,.05h0l0-.05Z" fill="#0c233b"/><path d="M10.62,20h0l0,.05h0l0-.05Z" fill="#0c233b"/><path d="M10.9,20.7h0l0,0h0l0,0Z" fill="#0c233b"/><path d="M11,20.88h0l0,0h0l0,0Z" fill="#0c233b"/><path d="M10.85,20.6h0l0,0h0l0,0Z" fill="#0c233b"/><path d="M11.22,21.13h0l0,0h0Z" fill="#0c233b"/><path d="M11.13,21.05h0l0,0h0l0,0Z" fill="#0c233b"/><path d="M11.07,21h0l0,0h0l0,0Z" fill="#0c233b"/><path d="M11,20.79h0l0,0h0l0,0Z" fill="#0c233b"/><path d="M10.73,20.31h0l0,0h0l0,0Z" fill="#0c233b"/><path d="M10.69,20.21h0l0,0h0l0,0Z" fill="#0c233b"/><path d="M10.66,20.11h0l0,.05h0l0-.05Z" fill="#0c233b"/><path d="M10.77,20.41h0l0,0h0l0,0Z" fill="#0c233b"/><path d="M10.81,20.51h0l0,0h0l0,0Z" fill="#0c233b"/><polygon points="11.29 21.21 11.29 21.21 11.29 21.21 11.29 21.21" fill="#0c233b"/><path d="M12.77,19.25l-.82.92-1-.1a3.57,3.57,0,0,1,0-1.57l.13-.23,1.77.2Z" fill="#dadbd9"/><path d="M13.8,17.53h.56l-.07.5L13,20.35l-.87-1.66-.2-.15-1.33,1.52a3.89,3.89,0,0,1-.21-1.28c0-.06.28-.31.29-.37,0-.31-.28-.37-.05-.49C10.58,17.93,12.5,19.19,13.8,17.53Z" fill="#fff"/><path d="M11.71,18.77,10.93,20a1.7,1.7,0,0,0,.37.92l.85-.93,0-1.18Z" fill="#139ad6"/><path d="M11.62,18.91a.44.44,0,0,0,.5,0v-.14l-.43,0Z" fill="#1980af"/><path d="M10.59,18.58s-2.5,3.78-1.68,6.83c0,0-.65,0-.82-.38s.33-3.86,2.44-6.54Z" fill="#845f3f"/><polygon points="12.12 18.8 12.18 19.9 12.14 19.95 12.12 18.8" fill="#c1c0be"/><path d="M17.89,23.82l0,0c1.88-.74,2.16-3.12,1.7-3.7s-.36-.31-1.14-2A2.21,2.21,0,0,0,15.83,17l-1.54.47s-.57,7.07-.49,7.45a3.31,3.31,0,0,0,1.63,2.18s2.93-.28,3.48-2A3.49,3.49,0,0,1,17.89,23.82Z" fill="url(#linear-gradient-3)"/><path d="M18.07,23.79a3.28,3.28,0,0,1-.48-2.38s-.6.89.32,2.45Z" fill="#5b4026"/><path d="M14.84,24.52a10.54,10.54,0,0,0,2.08-.75l.22.45A6.79,6.79,0,0,1,15,25Z" fill="#693521"/><path d="M17.59,21.41a2.63,2.63,0,0,1-.69-1.88A5,5,0,0,0,17.59,21.41Z" fill="#5b4026"/><path d="M14.77,17.87a3.69,3.69,0,0,0,.66,1.94,3.52,3.52,0,0,0-1.17.54l.87.16a30.81,30.81,0,0,1-1.3,3.35l.48-5.95Z" fill="#472a16"/><path d="M14.48,17.57a4.06,4.06,0,0,0,.56,2s-.74.38-.89.76l.83,0a17,17,0,0,0-1.16,3.59l.25-6Z" fill="#693521"/><path d="M10.9,19.75c.14-.15.49-.62.49-.62l-.5.57S10.89,19.76,10.9,19.75Z" fill="#c1c0be"/><polygon points="14.06 18.5 12.95 20.35 14.04 18.47 14.06 18.5" fill="#0c233b"/><path d="M10.93,20l0-.06a2.66,2.66,0,0,0,.32,1S11,20.69,10.93,20Z" fill="#1980af"/><path d="M10.9,19.75a2.83,2.83,0,0,1-.26.24l.25-.29Z" fill="#0c233b"/><path d="M12.39,18.58c0,.17-.21.31-.48.31s-.48-.14-.48-.31.21-.31.48-.31S12.39,18.31,12.39,18.58Z" fill="#139ad6"/><ellipse cx="13.42" cy="16.87" rx="3.06" ry="1.14" fill="#5b4026"/><path d="M8.27,15.45c-.62-1-2.12.31-2.53.65s.16-1,.68-1.18c0,0-1.19,0-1.38.79a1.64,1.64,0,0,1,.56-1.49,12,12,0,0,0-1.48,1.42c0-.27.11-.58.11-.58l-.91.13s-.24-2.33,1.34-2.75-.1-.21-.1-.21-.48-.84-1.87-.49c0,0,.61-4.8,3.51-5.17A1.11,1.11,0,0,0,4.9,5.72s.15-.54.58-.52l-.81-.43a3.7,3.7,0,0,1,4.51.76s.72-3.21.71-3.64A2.69,2.69,0,0,0,9.77.76s1,.18,1,.62a.49.49,0,0,0-.16-.59s1.66.67,1.51,1.46l.12-.67s.5.26.54.57.13-.71.13-.71a3.24,3.24,0,0,1,1.75,3.08s4.31-1.62,5.73,2.75l-1.09-.2s.84.35,1,.9c0,0,1.33.36,1.33,3.64,0,0-.33-1.36-1.32-1.52,0,0,1.46.62,1.54,3.7a3.55,3.55,0,0,0-1-.63,2.19,2.19,0,0,1,.69,2.42s-.19-.44-1-.53l.12.33-.65-.32s-2.07.17-2.62.8c0,0-.08-.83-.73-.4Z" fill="#f2f2f2"/><path d="M17.9,14a3.65,3.65,0,0,1-3.85,3.61c-.51,0-1,.12-1.59.08-2.2-.17-4.34.13-4.6-3a.63.63,0,0,0-.05-.14,3.33,3.33,0,0,1-.17-1.32c.17-2.25,2.72-4,5.55-3.74a6.09,6.09,0,0,1,1.49.3A4.32,4.32,0,0,1,17.9,14Z" fill="#fdd5a6"/><g opacity="0.5" style="mix-blend-mode:multiply"><path d="M11,9.71a6.26,6.26,0,0,1,2.23-.23,6.09,6.09,0,0,1,1.49.3A4.32,4.32,0,0,1,17.9,14a3.78,3.78,0,0,1-3.65,3.63s4.06-2.73.58-5.73A12.25,12.25,0,0,0,11,9.71Z" fill="#fdd5a6"/></g><path d="M10.39,13.62s.12-.84-.47-.77a.3.3,0,0,1,.14.38s-.32-1-1.57,0c0,0,.41-.15.56-.06,0,0-.56,0-.58.36,0,0,.24-.07.31,0s-.36.3.13.68C8.91,14.22,9.74,13.48,10.39,13.62Z" fill="#e8e7e6"/><ellipse cx="9.92" cy="14.78" rx="0.63" ry="0.42" transform="matrix(0.08, -1, 1, 0.08, -5.57, 23.54)" fill="#232221"/><ellipse cx="13.97" cy="14.78" rx="0.63" ry="0.42" transform="translate(-1.83 27.58) rotate(-85.63)" fill="#232221"/><path d="M8.27,15.45s-.09-3,.64-3c0,0,.32.53.57.56,0,0,0-1.49.87-1.86,0,0,2.69,1.45,3.1.85-.09-.07-1.08-.59-1-1,.06-.25,2.25.05,3,2.31.15.11.45-.26.58-.85.25-1.09.67,2,.68,2s.24,0,.46-.28-.15,1.72-.22,1.93c.51-.35.91-.51,1.12-2a4.74,4.74,0,0,0-2-4,7.33,7.33,0,0,0-5.75-.32,3.55,3.55,0,0,0-2.72,4.15C7.64,14.71,8.25,15.22,8.27,15.45Z" fill="#f2f2f2"/><path d="M13.85,13.9a2.19,2.19,0,0,1,1.38.46s.63-.29-.06-.63a.4.4,0,0,1,.34,0s0-.45-.7-.42a.57.57,0,0,1,.47,0s-.63-.67-1.08-.06a.51.51,0,0,1,.29-.35c-.23,0-1-.06-.92.95Z" fill="#e8e7e6"/><path d="M8.27,15s-.72-.75-1.91.2c0,0,1.71-.33,1.91.29Z" fill="#e8e7e6"/><path d="M5.17,14c1.27-.75,1.95-.34,1.95-.34a1.41,1.41,0,0,0-1.56,1,3,3,0,0,1,2.74-.42l0-.4h0l.05-.42A2.57,2.57,0,0,0,5.17,14Z" fill="#e8e7e6"/><path d="M4.63,11.66s2.61-1.33,4.28.8A5.33,5.33,0,0,0,4.63,11.66Z" fill="#e8e7e6"/><path d="M18.91,14.73a1.53,1.53,0,0,1,1.63.31c.06.06,0,.34,0,.34l-.65-.32a15.09,15.09,0,0,0-3,1A4.56,4.56,0,0,1,18.91,14.73Z" fill="#e8e7e6"/><path d="M21.79,13.79s-.58-2-1.37-2C20.43,11.79,21.6,11.3,21.79,13.79Z" fill="#e8e7e6"/><path d="M15.21,5.2s3.6-1,5.16,2.07A5.66,5.66,0,0,0,15.21,5.2Z" fill="#e8e7e6"/><path d="M21.57,11.67S21.48,8.61,20,8.46a2.09,2.09,0,0,0-.72-1.36s.8.31.91.88C20.24,8,21.78,8.36,21.57,11.67Z" fill="#e8e7e6"/><path d="M14.72,5.4s-.67-3.1-1.84-4a3.08,3.08,0,0,1,1.75,3.08Z" fill="#e8e7e6"/><path d="M5.6,4.75s3.18-1,4.86,3.36A6.81,6.81,0,0,0,5.6,4.75Z" fill="#e8e7e6"/><path d="M5.6,5.57s1.13-.14,1.48,1.29C7.08,6.86,7.27,4.89,5.6,5.57Z" fill="#e8e7e6"/><path d="M2.69,11.67s1.37-4.26,3.5-5.11C6.19,6.55,3.45,6.59,2.69,11.67Z" fill="#e8e7e6"/><path d="M10.15,11.11C9.21,10.77,7,9.6,7.42,8.19c0,0-1,1.49,1,2.35,0,0-1.2-.33-1.68,0a11.81,11.81,0,0,1,3.13.95,1.23,1.23,0,0,1,.44-.37Z" fill="#e8e7e6"/><path d="M13.44,12s-3.71-2-1.33-2.15C12.11,9.86,7.89,9.29,13.44,12Z" fill="#e8e7e6"/><path d="M13.44,12s-.21.67-2.69-.64A8,8,0,0,0,13.44,12Z" fill="#e8e7e6"/><path d="M9.77.76s.37.72-.58,4.77C9.19,5.53,11.49,2,9.77.76Z" fill="#e8e7e6"/><path d="M14,8.19s1.37-1.36,2.54-.84A2,2,0,0,0,14.36,7a2.72,2.72,0,0,1,.85-.46,2.54,2.54,0,0,0-1.06.17s-.5-1.39-3.22-.73C10.94,6,13.84,5.73,14,8.19Z" fill="#e8e7e6"/><path d="M10.66,17.89l-1.26,1,0,.4L9,19.49a13,13,0,0,0-.37,2.44,20.46,20.46,0,0,1,1.88-3.48A.88.88,0,0,0,10.66,17.89Z" fill="#693521"/><path d="M13.65,5.53a5.21,5.21,0,0,1-1.47-2,3.65,3.65,0,0,1,0-1c.08-.89-.4-1.37-1.58-1.73,0,0,1,.5,1,2.49a3.7,3.7,0,0,0-.7-.54c.65.47.43,1,.67,1.38A13.76,13.76,0,0,0,13.65,5.53Z" fill="#e8e7e6"/><path d="M11.13,16c-.6-.47-2.42-.82-2.19,2.12,0,0,.12-.46.41-.44,0,0-.12.72.25.88,0,0,.18-.72.47-.56,0,0,.54.89,1,.95,0,0-.12-.63.19-.64l.49.73.47-.81s.33.37.12.54a.53.53,0,0,0,.54-.47s.55.19.45.68a.87.87,0,0,0,.4-.8l.46.6.13-1s.76.29.77.62A1.5,1.5,0,0,0,14.68,17l.76.14s-1.66-1.94-3-.91C12.19,16.37,11.92,16.58,11.13,16Z" fill="#e8e7e6"/><path d="M13.13,16.88s1.9,0,2,1.43A3,3,0,0,0,13.13,16.88Z" fill="#dadbd9"/><path d="M11.1,18.91s0-1.37.52-1.74C11.62,17.18,10.49,17.55,11.1,18.91Z" fill="#dadbd9"/><path d="M13.35,18.93s.31-.94-.22-1.26C13.13,17.67,14.13,17.95,13.35,18.93Z" fill="#dadbd9"/><path d="M11.78,19a3.65,3.65,0,0,0,.37-1.49.68.68,0,0,1,.15.32A1.3,1.3,0,0,1,11.78,19Z" fill="#dadbd9"/><path d="M12,17.05s.48.93.18,1.16l0,.14a.25.25,0,0,1,.19.24A1.44,1.44,0,0,0,12,17.05Z" fill="#dadbd9"/><path d="M11.08,18.87s-.82-1.25-.16-1.82a1.08,1.08,0,0,0,.18,1.87" fill="#dadbd9"/><path d="M9.61,18.52s.3-1,.76-1C10.38,17.49,9.29,17.24,9.61,18.52Z" fill="#dadbd9"/><path d="M8.94,18.09a.81.81,0,0,1,.81-.49l.23-.1A.71.71,0,0,0,8.94,18.09Z" fill="#dadbd9"/><path d="M11.55,16.66s-1.88-1.76-2.42.43c0,0,.41-.86,1-.76,0,0-.3.12-.3.38C9.8,16.71,10.32,16.11,11.55,16.66Z" fill="#dadbd9"/><path d="M12.23,16.54a2,2,0,0,1,2.39.12A3.08,3.08,0,0,0,12.23,16.54Z" fill="#dadbd9"/><path d="M19.16,20.85a2,2,0,0,0,.49,1,2,2,0,0,0,0-1.74c-.09-.12-.25-.3-.41-.53A2.16,2.16,0,0,0,19.16,20.85Z" fill="#46423f"/><path d="M16.9,19.52c-.23.51-.84,1.83-1.18,2.68a2.46,2.46,0,0,0,.25,2.2c.11.21.94,1.61.94,1.61a6.34,6.34,0,0,1-2.23.52,2,2,0,0,0,.72.55,6.06,6.06,0,0,0,2.14-.62A2.37,2.37,0,0,0,18.9,25a5,5,0,0,1-1.07-1.3,3.79,3.79,0,0,1-.42-1.52,2,2,0,0,1,.18-.81A5.73,5.73,0,0,1,16.9,19.52Z" opacity="0.2" fill="url(#linear-gradient-4)" style="mix-blend-mode:multiply"/><g opacity="0.2" style="mix-blend-mode:multiply"><path d="M19.65,21.89a2,2,0,0,1-.48-1v0A7.87,7.87,0,0,1,18.79,22c-.39.68-.8.9-1.13.9a6.26,6.26,0,0,0,.39.9,3.78,3.78,0,0,0,1-.79,3.28,3.28,0,0,0,.56-1.07Z" fill="url(#linear-gradient-5)"/></g><g opacity="0.1" style="mix-blend-mode:multiply"><path d="M19.16,20.85a2,2,0,0,0,.49,1,2.67,2.67,0,0,0,.12-1.37A.92.92,0,0,1,19.16,20.85Z" fill="#46423f"/></g><path d="M14.63,4.52s4.31-1.62,5.73,2.75l-1.09-.2s.84.35,1,.9c0,0,1.33.36,1.33,3.64,0,0-.33-1.36-1.32-1.52,0,0,1.46.62,1.54,3.7a3.55,3.55,0,0,0-1-.63,2.19,2.19,0,0,1,.69,2.42s-.19-.44-1-.53l.12.33-.65-.32a14.4,14.4,0,0,0-3,1,12.85,12.85,0,0,0,.24-1.92c-.34.34-.51.28-.51.28s-.06-.51-.28-1.75a2.41,2.41,0,0,1,.28-1.8c.28-.39,2.48-1.07,1.8-2.65-.35-.81-1.51,0-1.3-.23,1.8-1.69-.3-.38-.6-.67-1.09-1.07-2.14-.15-2.44-.62S15.12,4.88,14.63,4.52Z" fill="#f6f7f7" opacity="0.8" style="mix-blend-mode:multiply"/><path d="M19.75,13.63c.27-.28-.07-1.83-.07-1.83a5.52,5.52,0,0,1-.21,1.1A1.41,1.41,0,0,1,18.16,14L18,14l-.86.15h0a.88.88,0,0,1,0,.38,4.09,4.09,0,0,1,.81-.2l.13,0a3.64,3.64,0,0,1,3.35,1.27A2,2,0,0,0,19.75,13.63Z" fill="#e8e7e6"/><path d="M16.94,16.07l0,0Z" fill="#e9e9eb" opacity="0.8" style="mix-blend-mode:multiply"/><path d="M16.92,16.05c0-.13.1-.46.16-.8C17,15.54,17,15.92,16.92,16.05Z" fill="#e9e9eb" opacity="0.8" style="mix-blend-mode:multiply"/><path d="M17.08,15.25l0-.09Z" fill="#f2f2f2"/><path d="M16.91,16.09v0Z" fill="#f2f2f2"/><path d="M17.16,14.14h0Z" fill="#f2f2f2"/><path d="M20.55,10.88a3.56,3.56,0,0,0-3.27.54,2.57,2.57,0,0,0-.94,1.26l0,.07h0A3.43,3.43,0,0,1,20.55,10.88Z" fill="#e8e7e6"/><path d="M18.4,10.31A3.14,3.14,0,0,0,18.91,9c.23-1.47-1.41-1-1.41-1s1.25-.11,1.11.95-2,2.06-2,2.06a1.45,1.45,0,0,0-.49-1.72,4.6,4.6,0,0,1-.31,3.17C15.64,8.88,13.48,9,13.48,9c1.82.43,2.1,3.5,2.12,3.85l-.19.39s.29.34.72-1.07l.22.53h0a3.43,3.43,0,0,1,4.2-1.86l.14,0C20.21,10,18.85,10.18,18.4,10.31Z" fill="#e8e7e6"/><path d="M20.78,13.16a3.55,3.55,0,0,1,1,.63,8.7,8.7,0,0,0-.18-1.5,4.64,4.64,0,0,0-.44-1.19,5.54,5.54,0,0,0-.63-.22,3.43,3.43,0,0,0-4.2,1.86h0c.17.66.31,1.68.31,1.71s.24,0,.46-.28l0,0h0a2.74,2.74,0,0,1-.07,1l0,.09c-.06.35-.13.67-.16.8v0l0,0a15.83,15.83,0,0,1,3-1l.65.32a.92.92,0,0,0,0-.32,1.38,1.38,0,0,1,.77.33,1.43,1.43,0,0,1,.15.19A2.19,2.19,0,0,0,20.78,13.16Z" fill="#e9e9eb" opacity="0.65" style="mix-blend-mode:multiply"/><path d="M6.21,17.93c-.09-.17,0,.42.37.57a.88.88,0,0,0,.64,0A1.19,1.19,0,0,1,6.21,17.93Z" fill="#dcad84"/></g></g></g></svg>