<?xml version="1.0" encoding="UTF-8"?>
<svg width="27px" height="26px" viewBox="0 0 27 26" version="1.1" xmlns="http://www.w3.org/2000/svg" xmlns:xlink="http://www.w3.org/1999/xlink">
    <g id="Page-1" stroke="none" stroke-width="1" fill="none" fill-rule="evenodd">
        <g id="platform-ai-day" transform="translate(-2.000000, -3.000000)">
            <g id="invisi-border">
                <rect id="Rectangle" x="0" y="0" width="32" height="32"></rect>
            </g>
            <g id="icon" transform="translate(1.500000, 3.000000)">
                <path d="M7.83,7.5 C7.80238576,7.5 7.78,7.47761424 7.78,7.45 C7.78,7.5 7.78,7.5 7.83,7.5 L7.83,7.5 Z" id="Path"></path>
                <path d="M9.295,21.615 C9.40490431,21.6675735 9.50608348,21.7367126 9.595,21.82 L9.595,21.82 C10.2073252,21.421792 10.9610144,21.3052797 11.665,21.5 C11.7058062,21.379604 11.7559589,21.2625811 11.815,21.15 C11.8663232,21.0860457 11.9495565,21.0568545 12.029583,21.0747426 C12.1096096,21.0926306 12.1724923,21.1544825 12.1917006,21.2342025 C12.2109088,21.3139224 12.1830973,21.3976268 12.12,21.45 C12.050222,21.5548995 12.0152353,21.6791025 12.02,21.805 C12.0236972,21.9491706 12.0986076,22.0821365 12.22,22.16 C12.3972436,22.2854403 12.6079139,22.3550834 12.825,22.36 C13.28,22.36 13.635,22.16 13.635,21.86 C13.635,21.76 13.585,21.605 13.585,21.555 C13.585,21.505 13.535,21.305 13.635,21.255 C13.735,21.205 13.885,21.205 13.935,21.305 C14.0020501,21.4295956 14.038068,21.5685219 14.04,21.71 C14.932082,21.4649915 15.8842996,21.7758394 16.46,22.5 C16.51,22.5 16.565,22.45 16.615,22.45 C17.07,22.35 17.22,22.3 17.22,22.3 C17.8576254,22.0480168 18.4277166,21.6508361 18.885,21.14 C19.0254368,20.5559895 19.0081815,19.9451513 18.835,19.37 C18.735,19.17 18.635,18.665 18.38,17.705 C18.2616073,17.9233991 18.0623752,18.0867334 17.825,18.16 C17.6006946,18.213619 17.3655085,18.1339279 17.22,17.955 C17.17,17.905 17.17,17.855 17.12,17.805 C16.7697525,16.5139524 15.7799324,15.4939088 14.5,15.105 C14.65,15.205 14.85,15.355 15.155,15.56 C15.200613,15.599486 15.2510079,15.6330827 15.305,15.66 C15.4538835,15.7794109 15.5135665,15.9783541 15.455,16.16 C15.3864403,16.3749309 15.2191602,16.5440696 15.005,16.615 C14.345,16.865 13.185,16.565 11.47,15.655 C11.1936458,15.6606812 10.9200627,15.7113447 10.66,15.805 C9.64462151,15.9987346 8.80343557,16.7073011 8.44,17.675 C8.37691346,17.8008652 8.34274776,17.9392363 8.34,18.08 L8.34,18.08 C8.22659324,18.5716815 8.17453015,19.0755179 8.185,19.58 C8.335,20 8.5,21.315 9.295,21.615 Z M16.295,20.255 C16.245,20.71 15.99,21.06 15.69,21.01 C15.39,20.96 15.19,20.61 15.235,20.155 C15.28,19.7 15.54,19.345 15.84,19.395 C16.14,19.445 16.36,19.8 16.31,20.255 L16.295,20.255 Z M15.795,17.58 C16.1378889,17.6448296 16.4730489,17.7453776 16.795,17.88 C16.974767,18.0649839 17.0711051,18.3154123 17.0616629,18.5731836 C17.0522208,18.830955 16.937819,19.073664 16.745,19.245 C16.21,18.64 15,18.64 15,18.64 L14.645,18.64 C14.545,17.325 15.555,17.58 15.805,17.58 L15.795,17.58 Z M11.2,20.155 C11.15,20.61 10.9,20.96 10.595,20.91 C10.29,20.86 10.095,20.505 10.14,20.05 C10.185,19.595 10.445,19.245 10.745,19.295 C11.045,19.345 11.26,19.7 11.21,20.155 L11.2,20.155 Z M9.2,18.285 C9.2,17.88 9.355,17.48 10.365,17.375 C11.775,17.375 11.525,18.375 11.525,18.375 C10.715,18.175 9.605,18.98 9.605,18.98 C9.19,18.84 9.19,18.285 9.19,18.285 L9.2,18.285 Z" id="Shape" fill="#FFFFFF" fill-rule="nonzero"></path>
                <path d="M13.535,23.74 C13.71397,23.8181714 13.8568286,23.96103 13.935,24.14 C13.935,24.09 13.99,24.04 13.99,23.99 C14.0258155,23.8167222 14.157844,23.6793462 14.3295641,23.6366829 C14.5012842,23.5940195 14.6822539,23.6536319 14.795,23.79 C14.8354634,23.8348609 14.8691528,23.885395 14.895,23.94 C14.9410423,23.7665286 15.0765286,23.6310423 15.25,23.585 C15.35,23.535 15.45,23.585 15.555,23.635 C15.6115818,23.528633 15.698633,23.4415818 15.805,23.385 C15.8826098,23.3348734 15.9823902,23.3348734 16.06,23.385 L16.06,23.235 C15.6396366,22.6511316 14.9593128,22.3109697 14.24,22.325 C14.09,22.68 13.485,22.88 12.775,22.88 C12.3942354,22.9249079 12.0213159,22.7481597 11.815,22.425 C11.6310255,22.3984351 11.4457601,22.3817445 11.26,22.375 C10.9133664,22.3125641 10.5559557,22.3840462 10.26,22.575 C10.0991427,22.7281365 9.97887052,22.9188538 9.91,23.13 L9.91,23.13 C10.01,23.08 10.11,22.98 10.21,22.98 C10.3608388,22.9221883 10.530315,22.9408121 10.665,23.03 C10.7868413,23.1262989 10.8447187,23.2825678 10.815,23.435 L10.815,23.435 C10.87,23.435 10.92,23.385 10.97,23.385 C11.0404799,23.3775181 11.1113327,23.3952313 11.17,23.435 C11.3213605,23.4877146 11.4233723,23.6297309 11.425,23.79 L11.425,23.84 C11.4612465,24.0504812 11.5286533,24.2543867 11.625,24.445 C11.6864717,24.2823084 11.7706381,24.1291256 11.875,23.99 C12.08,23.635 12.18,23.585 12.375,23.585 C12.5519886,23.5692304 12.7177225,23.6735813 12.78,23.84 L12.935,24.14 L12.935,24.04 C13.03,23.89 13.28,23.635 13.535,23.74 Z" id="Path" fill="#00A1E0" fill-rule="nonzero"></path>
                <path d="M23.68,15.255 C23.5571209,15.2495098 23.4424756,15.1916601 23.3650557,15.0960799 C23.2876357,15.0004997 23.2548539,14.8763406 23.275,14.755 C23.3062795,14.5078648 23.5267566,14.3292784 23.775,14.35 L23.88,14.35 C24.3352174,14.275982 24.8015388,14.3119847 25.24,14.455 C24.851096,14.1831396 24.4011404,14.0114009 23.93,13.955 C23.8141879,13.9407894 23.7097083,13.8784814 23.6421592,13.7833419 C23.5746102,13.6882025 23.5502329,13.5690219 23.575,13.455 C23.6181876,13.2208901 23.8397412,13.0635871 24.075,13.1 C24.4746418,13.1708141 24.8641748,13.2900247 25.235,13.455 C25.1020677,12.1521803 24.1793133,11.066353 22.915,10.725 L22.37,10.725 C22.034097,10.7232058 21.7264992,10.5365125 21.5698592,10.2393628 C21.4132192,9.94221307 21.433014,9.58293752 21.6213506,9.30479477 C21.8096871,9.02665202 22.1359331,8.87488125 22.47,8.91 L22.67,8.91 C22.2605895,8.23382153 21.6859034,7.67290039 21,7.28 C19.185,6.42 17.065,7.18 17,7.18 C16.7216117,7.27482399 16.4146127,7.23005595 16.1748971,7.05967962 C15.9351816,6.88930329 15.7919715,6.61408799 15.79,6.32 C15.8053657,5.4343712 15.4999131,4.57306602 14.93,3.895 C14.93,3.945 14.88,4 14.83,4.05 C14.5371612,4.44555111 13.9916748,4.55378254 13.57,4.3 C13.1818611,4.05168972 13.0491906,3.54710703 13.265,3.14 C13.0532787,2.52100554 12.6886739,1.96549924 12.205,1.525 C12.255,1.725 12.255,1.98 12.305,2.13 C12.3190239,2.24949016 12.2846158,2.36962029 12.2094586,2.46356685 C12.1343013,2.55751341 12.0246542,2.61745233 11.905,2.63 C11.8333437,2.63274994 11.7623434,2.6154328 11.7,2.58 L11.65,2.58 C11.6,2.58 11.6,2.53 11.55,2.53 C11.3741834,2.40457618 11.2204238,2.25081658 11.095,2.075 C11.0925018,3.37798337 10.973697,4.67814292 10.74,5.96 C10.54,6.96 10.39,7.63 10.39,7.63 C10.3127294,7.95622915 10.0568073,8.21021242 9.73,8.285 C9.68,8.285 9.58,8.335 9.53,8.335 C9.26376672,8.33124417 9.01002405,8.22146897 8.825,8.03 C7.86361718,6.95299978 6.31242748,6.62856795 5,7.23 C5.89287316,6.99077119 6.84191767,7.07946694 7.675,7.48 L7.73,7.48 L7.78,7.53 L7.78,7.53 C7.87938944,7.6411901 7.93298347,7.785894 7.93,7.935 C7.91578936,8.05081213 7.85348142,8.15529173 7.75834194,8.22284076 C7.66320246,8.29038979 7.54402186,8.31476706 7.43,8.29 C7.04465286,8.25053868 6.65731345,8.23384301 6.27,8.24 C6.80309358,8.52194112 7.28078541,8.89799638 7.68,9.35 C7.81972644,9.47999776 7.84312789,9.69273826 7.735,9.85 L7.735,9.9 C7.67997843,10.3977943 7.23305984,10.7575638 6.735,10.705 C6.38,10.655 3.55,10.505 2.49,14.445 C3.3,14.14 3.705,14.14 3.955,14.445 C4.055,14.545 4.21,14.795 3.905,15.35 C4.26,15.35 4.56,15.3 4.815,15.3 L5.42,15.15 C5.73528689,15.0865853 6.0604553,15.1961913 6.27301744,15.4375305 C6.48557957,15.6788696 6.55324219,16.0152767 6.45051744,16.3200305 C6.34779268,16.6247843 6.09028689,16.8515854 5.775,16.915 C4.74795207,17.0797073 3.88355225,17.7731269 3.5,18.74 C3.755,18.24 3.955,18.135 4.055,18.135 C4.21613769,17.9658554 4.47846954,17.9443528 4.665,18.085 C4.84287118,18.2602239 4.86421347,18.5398078 4.715,18.74 C4.6878473,18.7669694 4.67028393,18.8020962 4.665,18.84 C4.94943451,18.6795159 5.21885383,18.4937672 5.47,18.285 C5.57621425,18.2282855 5.70103033,18.2175764 5.8153532,18.2553691 C5.92967606,18.2931618 6.0235165,18.376154 6.075,18.485 C6.13189244,18.5919605 6.14271607,18.7174935 6.10497173,18.8326137 C6.06722739,18.9477339 5.98417822,19.0424889 5.875,19.095 C5.875,19.095 5.375,19.395 4.815,19.8 C4.64817449,20.1640323 4.56122565,20.5595643 4.56,20.96 C4.7927917,20.2160562 5.27485708,19.5750681 5.925,19.145 C6.13697107,19.0477997 6.38798726,19.1100351 6.53,19.295 C6.6230385,18.8918043 6.97638721,18.6021405 7.39,18.59 L7.39,18.59 C7.88786281,18.5954938 8.2877811,19.0021146 8.285,19.5 L8.285,19.605 C8.26993007,19.1006174 8.32035074,18.5964107 8.435,18.105 C8.41952099,18.2199009 8.35668297,18.323088 8.26170218,18.3895745 C8.16672139,18.4560611 8.04825875,18.4797845 7.935,18.455 C7.6964459,18.4088754 7.52558181,18.1979321 7.53,17.955 C7.53,17.855 7.835,15.585 10.56,14.875 C10.9321041,14.7451971 11.3271177,14.6941177 11.72,14.725 C11.792021,14.7180097 11.8642851,14.735635 11.925,14.775 C12.5585937,15.1082836 13.2152789,15.3956878 13.89,15.635 C13.5806519,15.3724558 13.4122358,14.9801018 13.435,14.575 C13.49,14.425 13.59,14.17 14.095,14.12 C14.95,14.07 16.92,14.775 17.88,16.895 C18.0155074,16.6583646 18.118119,16.4043587 18.185,16.14 C18.2471748,15.9448115 18.4358257,15.8183531 18.64,15.835 C18.7264109,15.827218 18.8132292,15.8445817 18.89,15.885 C18.94,15.885 18.99,15.935 18.99,16.04 C19.1009772,16.3521563 19.184625,16.673364 19.24,17 C19.34,17.45 19.49,18.06 19.59,18.5 C19.6292709,18.4944011 19.6659004,18.4769586 19.695,18.45 C19.7894734,18.4092779 19.8924262,18.3921191 19.995,18.4 C20.095,18.45 20.25,18.5 20.3,18.655 C20.3861857,18.8797217 20.3000395,19.1339579 20.095,19.26 C20.0673858,19.26 20.045,19.2823858 20.045,19.31 C19.945,19.36 19.795,19.46 19.695,19.51 C19.5811115,19.6054686 19.4385268,19.6600381 19.29,19.665 L19.19,19.665 C19.085,19.615 18.985,19.615 18.935,19.41 C19.0836868,19.988856 19.100772,20.5936734 18.985,21.18 L18.985,21.18 C19.0274193,20.9143393 19.1974515,20.6863841 19.44,20.57 C19.59,20.47 19.745,20.42 19.895,20.32 C21.56,19.41 22.62,19.06 22.67,19.005 C22.9247934,18.9092641 23.2107091,18.9487656 23.43,19.11 L24.74,19.965 C24.79,20.015 24.895,20.065 24.945,20.12 C24.84,20.015 24.79,19.865 24.69,19.765 C24.3409699,19.3858548 23.9403855,19.0576449 23.5,18.79 C23.2792013,18.7011673 23.1516203,18.4690118 23.195,18.235 C23.2250098,18.1189376 23.3015864,18.0204044 23.4066467,17.9626686 C23.5117069,17.9049327 23.6359368,17.8931128 23.75,17.93 C24.2138542,18.1625624 24.6361859,18.4700199 25,18.84 C24.695,17.34 23.84,16.975 23.785,16.92 C23.6682831,16.877064 23.5748586,16.7872456 23.5273639,16.6723083 C23.4798691,16.557371 23.4826382,16.4278032 23.535,16.315 C23.5941128,16.1118629 23.7894271,15.9795532 24,16 L24,16 C24.91,15.95 25.765,17.36 25.92,17.615 C25.095,15.56 24,15.305 23.68,15.255 Z" id="Path" fill="#00A1E0" fill-rule="nonzero"></path>
                <path d="M8.585,17.63 C8.51912516,17.7548202 8.48479349,17.8938635 8.485,18.035 C8.48774776,17.8942363 8.52191346,17.7558652 8.585,17.63 Z" id="Path" fill="#00A1E0" fill-rule="nonzero"></path>
                <path d="M9.645,19 C9.645,19 10.705,18.195 11.565,18.395 C11.565,18.395 11.765,17.395 10.405,17.395 C9.405,17.445 9.24,17.895 9.24,18.305 C9.1837796,18.6050786 9.35620693,18.9009724 9.645,19 Z" id="Path" fill="#032E61" fill-rule="nonzero"></path>
                <path d="M10.755,19.295 C10.455,19.295 10.2,19.6 10.15,20.05 C10.0763506,20.4086092 10.2670928,20.769133 10.605,20.91 C10.91,20.91 11.16,20.61 11.21,20.155 C11.26,19.7 11.06,19.345 10.755,19.295 Z" id="Path" fill="#032E61" fill-rule="nonzero"></path>
                <path d="M15.855,19.395 C15.555,19.395 15.3,19.7 15.25,20.155 C15.1780173,20.5095401 15.3693843,20.8649359 15.705,21 C16.005,21 16.26,20.7 16.31,20.245 C16.36,19.79 16.11,19.395 15.855,19.395 Z" id="Path" fill="#032E61" fill-rule="nonzero"></path>
                <path d="M15.05,18.69 C15.05,18.69 16.26,18.69 16.815,19.295 C17.0117742,19.1260534 17.1290623,18.8826135 17.138556,18.6234361 C17.1480496,18.3642587 17.0488864,18.1128902 16.865,17.93 C16.5399706,17.804161 16.205624,17.703857 15.865,17.63 C15.565,17.63 14.605,17.325 14.705,18.63 L15.05,18.69 Z" id="Path" fill="#032E61" fill-rule="nonzero"></path>
                <path d="M8.5,18.035 C8.52607481,17.8983106 8.55945601,17.7631168 8.6,17.63 C8.98148052,16.6751895 9.81425661,15.973707 10.82,15.76 C11.0812569,15.6708302 11.354137,15.6202969 11.63,15.61 C13.33,16.5 14.5,16.82 15.15,16.57 C15.3492553,16.4748552 15.5098552,16.3142553 15.605,16.115 C15.6655603,15.9323359 15.6032636,15.7313787 15.45,15.615 C15.4051391,15.5745366 15.354605,15.5408472 15.3,15.515 L14.645,15.06 C15.9206799,15.4427645 16.9113709,16.4523259 17.27,17.735 C17.27,17.785 17.32,17.835 17.37,17.885 C17.5250232,18.0496978 17.7517901,18.1265362 17.975,18.09 C18.2131588,18.0181976 18.4128893,17.8544546 18.53,17.635 C18.785,18.595 18.885,19.1 18.985,19.3 C19.085,19.5 19.135,19.5 19.24,19.55 L19.34,19.55 C19.487573,19.5446264 19.6295293,19.49205 19.745,19.4 C19.845,19.35 19.995,19.25 20.095,19.2 L20.145,19.15 C20.3500395,19.0239579 20.4361857,18.7697217 20.35,18.545 C20.2879478,18.4214981 20.1775415,18.3291912 20.045,18.29 C19.9424262,18.2821191 19.8394734,18.2992779 19.745,18.34 C19.7057291,18.3455989 19.6690996,18.3630414 19.64,18.39 C19.54,17.935 19.39,17.33 19.29,16.89 C19.19,16.45 19.085,16.085 19.035,15.93 C18.985,15.88 18.935,15.83 18.935,15.78 C18.8600636,15.7346476 18.7716153,15.7169579 18.685,15.73 C18.4912205,15.7473529 18.3196756,15.8623445 18.23,16.035 C18.1646035,16.2998415 18.0619107,16.5540484 17.925,16.79 C16.965,14.65 15,13.945 14.14,14 C13.64,14 13.485,14.3 13.485,14.455 C13.4356035,14.8632478 13.6069949,15.2669698 13.935,15.515 C13.2615339,15.2725263 12.6050646,14.9852166 11.97,14.655 C11.9094471,14.6152611 11.8370495,14.5976031 11.765,14.605 C11.3731359,14.5990279 10.9824556,14.6495469 10.605,14.755 C9.06730003,15.0785221 7.87331354,16.2922114 7.575,17.835 C7.54877435,18.0849065 7.73009507,18.3087593 7.98,18.335 C8.18,18.485 8.435,18.335 8.48,18.035 C8.43,18.085 8.48,18.085 8.48,18.035 L8.5,18.035 Z" id="Path" fill="#032E61" fill-rule="nonzero"></path>
                <path d="M26.965,17.63 C25.965,15.005 24.465,14.5 23.835,14.4 L23.73,14.4 C23.5683373,14.3821367 23.4094249,14.4518764 23.3131235,14.5829487 C23.2168221,14.7140211 23.1977622,14.8865131 23.2631235,15.0354487 C23.3284848,15.1843844 23.4683373,15.2871367 23.63,15.305 C23.985,15.355 25.095,15.61 25.955,17.73 C26.0111782,17.8227004 26.0453856,17.9270328 26.055,18.035 C26.1083312,18.2138904 26.2733325,18.3361136 26.46,18.335 C26.5149626,18.3416158 26.5699994,18.3232701 26.61,18.285 C26.965,18.135 27.065,17.83 26.965,17.63 Z" id="Path" fill="#032E61" fill-rule="nonzero"></path>
                <path d="M23.68,16.315 C23.6021467,16.5520431 23.7109575,16.8102022 23.935,16.92 C23.985,16.92 24.84,17.325 25.145,18.84 C24.7678849,18.4813231 24.344054,18.1752231 23.885,17.93 C23.6479922,17.8651201 23.4022892,18.0001461 23.33,18.235 C23.2805252,18.3479034 23.2858695,18.4773117 23.3444854,18.5857511 C23.4031013,18.6941905 23.5084409,18.7695474 23.63,18.79 C24.0604507,19.0742485 24.4653152,19.3954633 24.84,19.75 C25.095,20 25.295,20.205 25.295,20.305 C25.3587134,20.4990272 25.5463153,20.6247824 25.75,20.61 L25.8,20.61 C26.022468,20.5675614 26.1886285,20.3808872 26.205,20.155 C26.305,16.82 24.39,16.115 24.34,16.065 L24.185,16.065 C23.9783853,16.0154762 23.7658948,16.1206695 23.68,16.315 L23.68,16.315 Z" id="Path" fill="#032E61" fill-rule="nonzero"></path>
                <path d="M6.06,18.435 C5.93242997,18.2318236 5.67853234,18.1478905 5.455,18.235 C5.15766224,18.3739328 4.88559256,18.5615088 4.65,18.79 C4.67852679,18.7640477 4.69635421,18.7283928 4.7,18.69 C4.84921347,18.4898078 4.82787118,18.2102239 4.65,18.035 C4.56533933,17.9543975 4.45029945,17.9137642 4.3337962,17.9233137 C4.21729296,17.9328631 4.11040531,17.9916871 4.04,18.085 L4.04,18.085 C3.48488889,18.7243777 3.2125027,19.561379 3.285,20.405 C3.3133292,20.5880502 3.45694978,20.7316708 3.64,20.76 L3.74,20.76 C3.89085491,20.7787084 4.03579851,20.6950085 4.095,20.555 C4.30570109,20.2509911 4.56010769,19.9797364 4.85,19.75 C5.15994852,19.4555237 5.51858914,19.2169939 5.91,19.045 C6.01501802,18.9878933 6.09113036,18.8891994 6.11967525,18.7731169 C6.14822013,18.6570343 6.12655795,18.5342975 6.06,18.435 L6.06,18.435 Z" id="Path" fill="#032E61" fill-rule="nonzero"></path>
                <path d="M5.81,16.92 C6.29739129,16.8219695 6.61303054,16.3473913 6.515,15.86 C6.41696946,15.3726087 5.94239129,15.0569695 5.455,15.155 L4.85,15.305 C4.54585047,15.2993015 4.2416943,15.3160134 3.94,15.355 C4.245,14.8 4.04,14.55 3.99,14.45 C3.74,14.145 3.335,14.145 2.525,14.45 C3.59,10.51 6.415,10.66 6.77,10.71 C7.00950196,10.7366122 7.24972743,10.6666072 7.43743931,10.5154991 C7.62515119,10.3643911 7.74484679,10.1446596 7.77,9.905 L7.77,9.855 C7.87723157,9.69837368 7.85612328,9.48729083 7.72,9.355 C7.30127354,8.92207673 6.82517456,8.5485998 6.305,8.245 C6.69140107,8.18917595 7.08483555,8.20613434 7.465,8.295 C7.6989767,8.32611082 7.91722946,8.17115136 7.965,7.94 C7.96798347,7.790894 7.91438944,7.6461901 7.815,7.535 L7.765,7.485 L7.715,7.485 C7.67276634,7.44709871 7.61642034,7.42892258 7.56,7.435 C5.49,7.135 4.43,7.99 4.43,8.04 C4.29006063,8.16526633 4.23212382,8.35838901 4.28,8.54 C4.33,8.745 4.48,8.845 4.735,8.845 C5.0663495,8.83439767 5.39545089,8.90296045 5.695,9.045 C4.04,9.25 1.365,10.41 0.5,14.905 C0.410408434,15.3906962 0.722434705,15.8598421 1.205,15.965 L1.355,15.965 C1.66044729,15.9669073 1.94624725,15.814606 2.115,15.56 C2.415,15.41 2.67,15.305 2.82,15.205 C2.72,15.305 2.67,15.41 2.57,15.51 C2.45409416,15.6509953 2.43251367,15.8471816 2.515,16.01 C2.6140318,16.1655558 2.78559589,16.2598218 2.97,16.26 L3.02,16.26 C2.34424478,16.8898658 1.85619588,17.6946273 1.61,18.585 C1.52074821,19.0750181 1.83767017,19.5470766 2.325,19.65 L2.5,19.65 C2.94222,19.6366218 3.318031,19.3227577 3.41,18.89 C3.41984589,18.7990903 3.45443345,18.7126214 3.51,18.64 C3.97844428,17.7494873 4.82338917,17.1176155 5.81,16.92 Z" id="Path" fill="#032E61" fill-rule="nonzero"></path>
                <path d="M8.94,8.035 C9.11202943,8.24445448 9.37455549,8.35802958 9.645,8.34 C9.71702104,8.34699034 9.78928513,8.32936495 9.85,8.29 C10.1735426,8.21294468 10.4254262,7.95912351 10.5,7.635 C10.5,7.635 10.65,6.975 10.855,5.965 C11.114402,4.68684386 11.2317809,3.38393839 11.205,2.08 C11.2055758,1.7903998 11.1720108,1.50174129 11.105,1.22 C11.056678,1.09222947 10.9892434,0.972533084 10.905,0.865 C10.5555634,0.515961244 9.9894366,0.515961244 9.64,0.865 C9.46348837,1.05776583 9.37320568,1.31416869 9.39,1.575 C9.39,1.675 9.39,1.725 9.44,1.775 L9.44,1.825 C9.44,1.93 9.59,2.785 9.135,5.665 L9.135,5.765 C7.65658977,4.94964752 5.88117385,4.87559472 4.34,5.565 C3.90365716,5.78681109 3.71915988,6.31274305 3.92130654,6.75853667 C4.1234532,7.2043303 4.64064125,7.41208063 5.095,7.23 C5.13503258,7.22709358 5.17251053,7.20924695 5.2,7.18 C6.50059223,6.62854725 8.00821204,6.97320365 8.94,8.035 Z" id="Path" fill="#032E61" fill-rule="nonzero"></path>
                <path d="M11.765,2.635 L11.815,2.635 C11.865,2.635 11.92,2.685 12.02,2.685 C12.2585541,2.63887544 12.4294182,2.42793212 12.425,2.185 C12.4102402,1.98033921 12.3750654,1.7776656 12.32,1.58 C12.7658474,2.0515798 13.124715,2.59834519 13.38,3.195 C13.1641906,3.60210703 13.2968611,4.10668972 13.685,4.355 C13.8845567,4.49117866 14.1304842,4.54140853 14.3674583,4.49438985 C14.6044324,4.44737118 14.8125527,4.30705247 14.945,4.105 C15,4.055 15,4.005 15.05,3.95 C15.6246353,4.62504204 15.9291863,5.48882703 15.905,6.375 C15.9184154,6.6764641 16.0672452,6.95574969 16.31,7.135 C16.5506917,7.28992134 16.8488573,7.32673191 17.12,7.235 C17.12,7.235 19.29,6.475 21.12,7.335 C21.8253965,7.69278434 22.4058809,8.25583678 22.785,8.95 L22.585,8.95 C22.0879039,8.93762925 21.6671652,9.314541 21.625,9.81 C21.6113686,10.0514385 21.6943969,10.2883738 21.8557529,10.4684922 C22.0171089,10.6486105 22.2435214,10.7570975 22.485,10.77 L23.04,10.82 C24.2949158,11.1729791 25.2117342,12.2498455 25.36,13.545 C24.9969446,13.3600483 24.6043826,13.2399108 24.2,13.19 C24.0859781,13.1652329 23.9667975,13.1896102 23.8716581,13.2571592 C23.7765186,13.3247083 23.7142106,13.4291879 23.7,13.545 C23.6713868,13.7783518 23.825262,13.9950775 24.055,14.045 C24.5261404,14.1014009 24.976096,14.2731396 25.365,14.545 C25.42,14.545 25.42,14.595 25.47,14.595 C25.5621361,14.8145972 25.7639119,14.9687844 26,15 L26.05,15 C26.4103073,14.9919702 26.6997104,14.700358 26.705,14.34 C26.870655,12.8096544 26.2425986,11.30081 25.04,10.34 C25.1299494,10.1335264 25.1475671,9.90273441 25.09,9.685 C24.4866667,7.765 23.4266667,6.45166667 21.91,5.745 C20.5815419,5.14435903 19.0956536,4.9849064 17.67,5.29 C17.3310073,3.59767992 16.1811436,2.18044962 14.595,1.5 C14.2625175,1.38587695 13.8942485,1.46259966 13.635,1.7 C13.2138656,1.02875148 12.5693509,0.52765904 11.815,0.285 C11.6323235,0.226020228 11.4322829,0.288032822 11.315,0.44 C11.2177704,0.592486273 11.2177704,0.787513727 11.315,0.94 C11.4727396,1.41324657 11.5750893,1.90318302 11.62,2.4 C11.6265685,2.51780186 11.6807065,2.62788257 11.77,2.705 C11.67,2.605 11.72,2.605 11.77,2.655 L11.765,2.635 Z" id="Path" fill="#032E61" fill-rule="nonzero"></path>
                <path d="M11.665,2.585 C11.6919694,2.6121527 11.7270962,2.62971607 11.765,2.635" id="Path"></path>
                <path d="M23.5,19.045 C23.2793406,18.8871685 22.995188,18.8479106 22.74,18.94 C21.7701398,19.2766236 20.8396891,19.7175399 19.965,20.255 C19.815,20.355 19.66,20.405 19.51,20.505 C19.2769606,20.6326272 19.1109066,20.8552491 19.055,21.115 L19.055,21.115 C18.6128947,21.6427018 18.0381881,22.043098 17.39,22.275 C17.39,22.275 17.24,22.325 16.785,22.425 C16.735,22.425 16.685,22.475 16.635,22.475 C16.0620874,21.7438744 15.0966872,21.4433065 14.21,21.72 C14.2072522,21.5792363 14.1730865,21.4408652 14.11,21.315 C14.0813319,21.2616934 14.0295358,21.2247212 13.9698066,21.2149296 C13.9100775,21.2051379 13.8491877,21.223637 13.805,21.265 C13.7518562,21.2925152 13.7147815,21.3434604 13.7049432,21.4024905 C13.6951048,21.4615207 13.7136527,21.5217363 13.755,21.565 C13.805,21.615 13.805,21.77 13.805,21.87 C13.805,22.175 13.4,22.37 13,22.37 C12.7828094,22.3571178 12.5726553,22.2882148 12.39,22.17 C12.2686076,22.0921365 12.1936972,21.9591706 12.19,21.815 C12.1930528,21.6901557 12.2274398,21.5680817 12.29,21.46 C12.3663932,21.3745898 12.3663932,21.2454102 12.29,21.16 C12.2055053,21.0812464 12.0744947,21.0812464 11.99,21.16 C11.8939524,21.2514877 11.8381949,21.3773918 11.835,21.51 C11.1373482,21.2597424 10.3608231,21.3741579 9.765,21.815 L9.765,21.815 C9.67608348,21.7317126 9.57490431,21.6625735 9.465,21.61 C8.635,21.265 8.5,20 8.5,19.6 L8.5,19.5 C8.50000368,19.2591103 8.40396968,19.028159 8.23316632,18.8582941 C8.06236295,18.6884292 7.83088607,18.5936691 7.59,18.595 L7.59,18.595 C7.16992746,18.5863852 6.80658617,18.8859824 6.735,19.3 C6.59237393,19.1125703 6.33828362,19.050089 6.125,19.15 C5.47558602,19.5797021 4.9950221,20.2210429 4.765,20.965 C4.70817457,21.1105334 4.67443442,21.264051 4.665,21.42 C4.64955484,21.5397481 4.68343174,21.6606319 4.75885743,21.7549141 C4.83428312,21.8491962 4.94478222,21.9087823 5.065,21.92 L5.115,21.92 C5.34088719,21.9036285 5.52756136,21.737468 5.57,21.515 C5.64921112,20.8688417 6.0169248,20.2933698 6.57,19.95 C6.62,19.9 6.67,19.9 6.725,19.85 C6.775,20.66 7.075,22.625 8.845,23.35 C8.90366726,23.3897687 8.97452009,23.4074819 9.045,23.4 C8.99593131,23.7315275 8.99593131,24.0684725 9.045,24.4 C9.05085354,24.585893 9.17295557,24.7480285 9.35,24.805 C9.51776892,24.8673393 9.70620805,24.8024325 9.8,24.65 C9.80944897,24.9272482 9.99125932,25.168996 10.255,25.255 C10.4638106,25.3162003 10.6882272,25.2353295 10.81,25.055 C10.865,25.005 10.865,24.955 10.915,24.855 C11.0536291,25.2641321 11.397498,25.5700045 11.82,25.66 C12.0081073,25.675591 12.1872929,25.5771373 12.275,25.41 L12.43,25.105 L12.58,25.51 C12.6100509,25.6527443 12.7341767,25.7561826 12.88,25.76 L13,25.76 C13.106246,25.7496433 13.2087891,25.7154622 13.3,25.66 C13.4138074,25.5544956 13.5160511,25.4371668 13.605,25.31 C13.605,25.41 13.655,25.46 13.705,25.56 C13.8460516,25.7239848 14.0919107,25.7461343 14.26,25.61 L14.41,25.46 L14.41,25.46 C14.4371527,25.4330306 14.4547161,25.3979038 14.46,25.36 C14.515,25.46 14.565,25.61 14.715,25.66 C14.9014107,25.7554508 15.1286274,25.7145108 15.27,25.56 C15.3739728,25.4576374 15.4586581,25.3373843 15.52,25.205 L15.575,25.255 C15.6587786,25.4490666 15.8687182,25.5561358 16.075,25.51 C16.2727058,25.474657 16.4186829,25.3057407 16.425,25.105 L16.475,24.755 C16.93,25.155 17.03,25.155 17.235,25.055 C17.3847868,24.9897881 17.4956802,24.8585643 17.535,24.7 C17.5842198,24.5369672 17.5842198,24.3630328 17.535,24.2 C17.7244289,24.168127 17.9103054,24.1178901 18.09,24.05 C19.2337815,23.6588651 20.2128824,22.8946029 20.87,21.88 C21.5314192,21.4904833 22.2237527,21.1560226 22.94,20.88 L23.9,21.485 C24.3216748,21.7387825 24.8671612,21.6305511 25.16,21.235 C25.3491278,20.9848517 25.3688645,20.6453804 25.21,20.375 L25.21,20.375 C25.16,20.325 25.11,20.225 25.06,20.175 C25.0024834,20.1103996 24.9328298,20.0577346 24.855,20.02 L23.5,19.045 Z M12.93,24.19 L12.93,24.19 L12.775,23.84 C12.7010907,23.6834606 12.5431074,23.5839896 12.37,23.585 C12.17,23.585 12.07,23.635 11.87,23.99 C11.82,24.09 11.72,24.245 11.62,24.445 C11.5383408,24.2486025 11.4714876,24.0463716 11.42,23.84 L11.42,23.79 C11.3840606,23.6431641 11.2926751,23.5159412 11.165,23.435 C11.1042143,23.4002225 11.0350003,23.382919 10.965,23.385 C10.9085797,23.3789226 10.8522337,23.3970987 10.81,23.435 L10.81,23.435 C10.8397187,23.2825678 10.7818413,23.1262989 10.66,23.03 C10.5365106,22.9136091 10.3508177,22.8932032 10.205,22.98 L9.905,23.13 L9.905,23.13 C9.97387052,22.9188538 10.0941427,22.7281365 10.255,22.575 C10.5527762,22.3885807 10.9084299,22.31745 11.255,22.375 C11.41,22.375 11.81,22.425 11.81,22.425 C12.0450833,22.7135844 12.3977843,22.8807499 12.77,22.88 C13.48,22.93 14.085,22.68 14.235,22.325 C14.9543128,22.3109697 15.6346366,22.6511316 16.055,23.235 L16.055,23.385 L15.8,23.385 C15.693633,23.4415818 15.6065818,23.528633 15.55,23.635 C15.4536711,23.594611 15.3491826,23.5774817 15.245,23.585 C15.0715286,23.6310423 14.9360423,23.7665286 14.89,23.94 C14.84,23.89 14.79,23.84 14.79,23.79 C14.6887038,23.6441858 14.504246,23.5813486 14.335,23.635 C14.1666684,23.6889027 14.0393031,23.8276739 14,24 C14,24.05 13.945,24.1 13.945,24.15 C13.795,23.95 13.695,23.75 13.545,23.75 C13.28346,23.7160985 13.0405576,23.8911633 12.99,24.15 C12.94,24.15 12.94,24.15 12.94,24.2 L12.93,24.19 Z" id="Shape" fill="#032E61" fill-rule="nonzero"></path>
            </g>
        </g>
    </g>
</svg>