<svg id="svg" version="1.1" xmlns="http://www.w3.org/2000/svg" xmlns:xlink="http://www.w3.org/1999/xlink" width="400" height="400" viewBox="0, 0, 400,400"><g id="svgg"><path id="path0" d="M113.597 77.731 C 113.486 77.845,110.696 78.131,107.397 78.365 C 103.198 78.663,100.769 79.032,99.296 79.595 C 98.138 80.038,96.696 80.400,96.090 80.400 C 95.484 80.400,94.361 80.736,93.594 81.147 C 92.827 81.557,91.570 82.027,90.800 82.191 C 90.030 82.355,89.130 82.716,88.800 82.994 C 88.470 83.272,87.537 83.712,86.726 83.972 C 85.915 84.232,85.195 84.579,85.126 84.743 C 85.057 84.907,83.690 85.691,82.088 86.484 C 77.741 88.638,64.400 100.035,64.400 101.595 C 64.400 101.825,63.452 103.143,60.081 107.600 C 59.665 108.150,59.206 109.082,59.062 109.672 C 58.917 110.262,58.553 110.990,58.252 111.291 C 57.952 111.591,57.567 112.279,57.398 112.819 C 57.228 113.358,56.767 114.213,56.373 114.719 C 55.978 115.224,55.532 116.214,55.381 116.919 C 55.231 117.623,54.955 118.390,54.769 118.623 C 54.582 118.856,54.166 120.058,53.844 121.294 C 53.522 122.531,53.081 123.874,52.865 124.279 C 52.648 124.684,52.258 126.542,51.997 128.408 C 51.737 130.273,51.271 132.688,50.962 133.773 C 50.216 136.392,50.215 145.620,50.961 148.918 C 51.270 150.283,51.725 152.738,51.973 154.372 C 52.220 156.007,52.604 157.563,52.825 157.830 C 53.047 158.098,53.397 159.350,53.602 160.613 C 53.808 161.877,54.237 163.201,54.557 163.555 C 54.876 163.910,55.271 164.735,55.434 165.388 C 55.597 166.042,56.044 167.122,56.427 167.788 C 56.809 168.455,57.244 169.585,57.393 170.300 C 57.542 171.015,57.838 171.600,58.052 171.600 C 58.266 171.600,58.704 172.230,59.026 173.000 C 59.348 173.770,59.769 174.400,59.962 174.400 C 60.155 174.400,60.601 175.120,60.953 176.000 C 61.305 176.880,61.775 177.600,61.997 177.600 C 62.219 177.600,62.402 177.825,62.405 178.100 C 62.408 178.375,63.083 179.324,63.905 180.210 C 64.727 181.095,66.120 182.704,67.000 183.786 C 69.213 186.505,199.502 316.800,200.009 316.800 C 200.233 316.800,201.407 315.810,202.617 314.600 C 203.827 313.390,204.993 312.400,205.209 312.400 C 205.424 312.400,205.600 312.255,205.600 312.078 C 205.600 311.566,208.261 308.800,208.754 308.800 C 208.999 308.800,209.200 308.635,209.200 308.432 C 209.200 307.991,215.645 301.600,216.089 301.600 C 216.260 301.600,216.400 301.448,216.400 301.262 C 216.400 300.771,220.707 296.400,221.191 296.400 C 221.416 296.400,221.600 296.255,221.600 296.078 C 221.600 295.566,224.261 292.800,224.754 292.800 C 224.999 292.800,225.200 292.635,225.200 292.432 C 225.200 291.991,231.645 285.600,232.089 285.600 C 232.260 285.600,232.400 285.448,232.400 285.262 C 232.400 284.771,236.707 280.400,237.191 280.400 C 237.416 280.400,237.600 280.255,237.600 280.078 C 237.600 279.566,240.261 276.800,240.754 276.800 C 240.999 276.800,241.200 276.635,241.200 276.432 C 241.200 275.991,247.645 269.600,248.089 269.600 C 248.260 269.600,248.400 269.448,248.400 269.262 C 248.400 268.771,252.707 264.400,253.191 264.400 C 253.416 264.400,253.600 264.236,253.600 264.035 C 253.600 263.559,263.559 253.600,264.035 253.600 C 264.236 253.600,264.400 253.424,264.400 253.209 C 264.400 252.993,265.394 251.823,266.609 250.609 C 267.823 249.394,268.993 248.400,269.209 248.400 C 269.424 248.400,269.600 248.236,269.600 248.035 C 269.600 247.559,279.559 237.600,280.035 237.600 C 280.236 237.600,280.400 237.424,280.400 237.209 C 280.400 236.993,281.394 235.823,282.609 234.609 C 283.823 233.394,284.993 232.400,285.209 232.400 C 285.424 232.400,285.600 232.236,285.600 232.035 C 285.600 231.559,295.559 221.600,296.035 221.600 C 296.236 221.600,296.400 221.424,296.400 221.209 C 296.400 220.993,297.394 219.823,298.609 218.609 C 299.823 217.394,300.993 216.400,301.209 216.400 C 301.424 216.400,301.600 216.229,301.600 216.020 C 301.600 215.566,311.625 205.600,312.082 205.600 C 312.257 205.600,312.400 205.448,312.400 205.262 C 312.400 204.771,316.707 200.400,317.191 200.400 C 317.416 200.400,317.600 200.255,317.600 200.078 C 317.600 199.566,320.261 196.800,320.754 196.800 C 320.999 196.800,321.200 196.635,321.200 196.432 C 321.200 195.991,327.645 189.600,328.089 189.600 C 328.260 189.600,328.400 189.427,328.400 189.215 C 328.400 189.003,329.106 188.148,329.970 187.315 C 330.833 186.482,332.102 185.080,332.790 184.200 C 335.342 180.937,335.820 180.340,336.700 179.323 C 337.195 178.751,337.600 178.099,337.600 177.873 C 337.600 177.648,337.887 177.146,338.237 176.759 C 338.987 175.931,339.793 174.488,341.789 170.400 C 342.594 168.750,343.491 166.950,343.781 166.400 C 344.070 165.850,344.439 164.770,344.599 164.000 C 344.759 163.230,345.230 161.845,345.645 160.922 C 346.060 159.999,346.408 158.649,346.418 157.922 C 346.427 157.195,346.693 155.880,347.008 155.000 C 348.536 150.736,348.775 136.147,347.398 131.200 C 347.062 129.990,346.625 128.010,346.429 126.800 C 346.232 125.590,345.699 123.790,345.244 122.800 C 344.790 121.810,344.414 120.700,344.409 120.332 C 344.404 119.965,344.137 119.155,343.815 118.532 C 343.494 117.910,342.577 116.050,341.777 114.400 C 339.847 110.417,339.146 109.166,338.087 107.819 C 337.599 107.199,337.200 106.490,337.200 106.242 C 337.200 105.995,336.840 105.568,336.400 105.293 C 335.960 105.018,335.600 104.531,335.600 104.211 C 335.600 103.432,325.062 92.999,322.347 91.090 C 319.126 88.825,317.200 87.600,316.860 87.600 C 316.692 87.600,315.945 87.150,315.200 86.600 C 314.455 86.050,313.593 85.600,313.285 85.600 C 312.978 85.600,312.269 85.240,311.709 84.800 C 311.150 84.360,310.399 84.000,310.040 84.000 C 309.682 84.000,308.761 83.666,307.994 83.259 C 307.227 82.851,305.880 82.388,305.000 82.229 C 304.120 82.071,302.994 81.680,302.499 81.360 C 302.003 81.041,300.244 80.608,298.590 80.399 C 296.936 80.189,294.526 79.744,293.234 79.409 C 289.621 78.472,279.783 78.578,275.400 79.600 C 273.513 80.040,271.391 80.408,270.685 80.418 C 269.978 80.427,268.680 80.713,267.800 81.053 C 266.920 81.392,265.371 81.879,264.359 82.135 C 263.346 82.391,262.265 82.811,261.956 83.068 C 261.648 83.325,260.857 83.671,260.198 83.836 C 258.925 84.155,254.058 86.586,253.420 87.222 C 253.211 87.430,252.725 87.600,252.340 87.600 C 251.955 87.600,251.496 87.829,251.320 88.110 C 250.961 88.681,249.267 89.896,247.570 90.800 C 245.710 91.790,243.527 93.861,225.647 111.600 C 207.607 129.498,207.185 129.891,205.600 130.276 C 205.050 130.410,204.245 130.763,203.811 131.060 C 202.708 131.815,196.665 131.801,196.035 131.042 C 195.780 130.735,194.937 130.365,194.161 130.219 C 192.971 129.996,189.973 127.192,174.970 112.277 C 153.729 91.160,154.042 91.463,152.792 90.803 C 152.246 90.516,151.710 90.168,151.600 90.031 C 151.108 89.418,146.604 86.556,144.927 85.792 C 144.227 85.473,143.550 85.043,143.422 84.835 C 143.294 84.628,142.516 84.242,141.694 83.979 C 140.872 83.715,139.930 83.272,139.600 82.994 C 139.270 82.716,138.377 82.356,137.616 82.194 C 136.855 82.032,135.595 81.580,134.816 81.188 C 134.037 80.797,132.500 80.356,131.400 80.208 C 130.300 80.059,129.034 79.703,128.586 79.416 C 128.139 79.129,125.439 78.698,122.586 78.457 C 119.734 78.216,116.590 77.908,115.600 77.771 C 114.610 77.635,113.709 77.617,113.597 77.731 M123.000 102.970 C 129.636 105.020,133.043 113.099,130.039 119.663 C 127.678 124.821,123.705 127.066,115.719 127.754 C 111.446 128.122,103.654 132.956,103.606 135.269 C 103.603 135.417,103.178 136.047,102.662 136.669 C 101.578 137.977,100.149 143.269,99.765 147.400 C 99.426 151.047,96.124 156.336,94.154 156.388 C 93.909 156.395,93.207 156.794,92.596 157.275 C 90.838 158.658,85.519 158.819,82.927 157.567 C 75.880 154.166,73.758 147.914,76.012 137.200 C 77.051 132.262,77.935 129.987,81.564 122.901 C 82.716 120.651,87.225 115.464,89.996 113.200 C 90.938 112.430,91.910 111.616,92.155 111.392 C 93.283 110.359,96.204 108.400,96.617 108.400 C 96.869 108.400,97.386 108.058,97.764 107.640 C 98.143 107.221,99.071 106.763,99.826 106.621 C 100.582 106.480,101.200 106.221,101.200 106.046 C 101.200 105.613,103.053 104.800,104.041 104.800 C 104.482 104.800,105.603 104.454,106.531 104.032 C 107.458 103.609,109.743 103.054,111.608 102.799 C 113.473 102.544,115.089 102.239,115.199 102.123 C 115.554 101.748,120.936 102.332,123.000 102.970 " stroke="none" fill="#d2639a" fill-rule="evenodd"></path><path id="path1" d="M276.400 53.566 C 271.612 53.751,269.972 53.956,269.200 54.465 C 268.650 54.828,267.030 55.248,265.600 55.400 C 264.170 55.552,262.633 55.908,262.184 56.192 C 261.735 56.476,260.295 56.930,258.984 57.201 C 257.673 57.472,256.488 57.871,256.350 58.089 C 256.213 58.306,255.255 58.642,254.222 58.835 C 253.189 59.028,251.882 59.549,251.318 59.993 C 250.754 60.437,249.981 60.800,249.600 60.800 C 249.219 60.800,248.479 61.137,247.954 61.548 C 247.429 61.959,246.434 62.419,245.741 62.571 C 245.049 62.722,244.166 63.195,243.779 63.623 C 243.393 64.050,242.772 64.400,242.400 64.400 C 242.028 64.400,241.398 64.760,241.000 65.200 C 240.602 65.640,240.079 66.003,239.838 66.007 C 239.338 66.016,236.117 68.071,235.166 68.988 C 234.818 69.325,234.392 69.600,234.221 69.600 C 234.049 69.600,232.870 70.500,231.600 71.600 C 230.330 72.700,229.181 73.600,229.045 73.600 C 228.910 73.600,228.100 74.320,227.246 75.200 C 226.392 76.080,225.582 76.800,225.445 76.800 C 225.309 76.800,219.604 82.380,212.768 89.200 C 205.932 96.020,200.183 101.600,199.992 101.600 C 199.801 101.600,194.414 96.380,188.021 90.000 C 181.627 83.620,176.217 78.400,175.998 78.400 C 175.779 78.400,175.600 78.130,175.600 77.800 C 175.600 77.470,175.429 77.200,175.221 77.200 C 175.012 77.200,174.396 76.795,173.852 76.300 C 173.308 75.805,171.949 74.684,170.832 73.808 C 169.714 72.932,168.800 72.077,168.800 71.908 C 168.800 71.739,168.543 71.600,168.229 71.600 C 167.914 71.600,167.376 71.319,167.033 70.976 C 165.979 69.922,162.352 67.600,161.760 67.600 C 161.452 67.600,161.200 67.447,161.200 67.261 C 161.200 67.074,160.491 66.602,159.624 66.211 C 158.757 65.820,157.952 65.252,157.836 64.950 C 157.720 64.647,157.194 64.400,156.666 64.400 C 156.139 64.400,155.264 64.051,154.722 63.625 C 154.180 63.198,153.211 62.724,152.568 62.571 C 151.926 62.418,151.098 62.030,150.729 61.710 C 150.359 61.390,149.282 60.954,148.335 60.741 C 147.387 60.528,146.301 60.073,145.922 59.730 C 145.543 59.386,144.370 59.014,143.316 58.902 C 142.262 58.790,141.119 58.454,140.776 58.156 C 140.432 57.857,138.741 57.417,137.017 57.177 C 135.292 56.937,133.503 56.498,133.041 56.202 C 132.323 55.742,118.826 54.612,114.800 54.674 C 110.735 54.738,100.266 55.729,98.794 56.189 C 97.801 56.500,95.736 56.955,94.204 57.199 C 92.673 57.444,91.315 57.814,91.187 58.021 C 91.058 58.229,89.892 58.595,88.595 58.835 C 87.298 59.075,85.799 59.615,85.264 60.035 C 84.730 60.456,83.801 60.800,83.200 60.800 C 82.599 60.800,81.679 61.133,81.154 61.539 C 80.629 61.945,79.674 62.407,79.032 62.564 C 78.389 62.721,77.420 63.198,76.878 63.625 C 76.336 64.051,75.581 64.400,75.200 64.400 C 74.819 64.400,74.050 64.760,73.491 65.200 C 72.931 65.640,72.332 66.000,72.158 66.000 C 71.850 66.000,71.435 66.259,66.654 69.439 C 65.363 70.298,64.029 71.180,63.689 71.400 C 63.348 71.620,62.766 72.070,62.395 72.400 C 62.024 72.730,61.288 73.349,60.760 73.775 C 54.901 78.501,46.400 87.065,46.400 88.241 C 46.400 88.442,46.040 88.832,45.600 89.107 C 45.160 89.382,44.800 89.869,44.800 90.189 C 44.800 90.510,44.440 90.965,44.000 91.200 C 43.560 91.435,43.200 91.878,43.200 92.183 C 43.200 92.489,42.795 93.249,42.300 93.872 C 41.165 95.302,40.576 96.236,39.698 98.000 C 39.314 98.770,38.685 99.635,38.300 99.923 C 37.915 100.210,37.600 100.858,37.600 101.361 C 37.600 101.865,37.259 102.671,36.842 103.151 C 36.425 103.632,35.965 104.659,35.820 105.434 C 35.675 106.208,35.313 106.935,35.017 107.049 C 34.721 107.162,34.356 107.918,34.206 108.728 C 34.056 109.537,33.588 110.761,33.166 111.447 C 32.745 112.133,32.398 113.123,32.396 113.647 C 32.394 114.171,31.950 115.500,31.409 116.600 C 30.826 117.785,30.420 119.321,30.413 120.369 C 30.406 121.341,30.139 122.425,29.820 122.778 C 29.457 123.179,29.069 125.130,28.782 128.008 C 28.529 130.532,28.121 132.957,27.874 133.398 C 27.091 134.794,26.987 149.324,27.745 151.330 C 28.092 152.248,28.557 154.935,28.778 157.300 C 28.999 159.665,29.429 162.095,29.734 162.700 C 30.039 163.305,30.392 164.726,30.520 165.857 C 30.648 166.988,31.123 168.605,31.576 169.451 C 32.029 170.296,32.400 171.644,32.400 172.445 C 32.400 173.261,32.668 174.124,33.008 174.407 C 33.343 174.685,33.813 175.691,34.053 176.644 C 34.293 177.596,34.739 178.583,35.044 178.837 C 35.350 179.090,35.600 179.482,35.600 179.707 C 35.600 180.065,37.175 183.355,39.267 187.368 C 39.634 188.072,40.219 188.884,40.567 189.173 C 40.915 189.462,41.200 189.918,41.200 190.187 C 41.200 190.456,41.650 191.199,42.200 191.838 C 42.749 192.477,43.199 193.107,43.200 193.238 C 43.200 193.369,43.650 193.999,44.200 194.638 C 44.749 195.277,45.199 196.006,45.200 196.257 C 45.200 196.509,45.470 196.818,45.800 196.945 C 46.130 197.071,46.400 197.354,46.400 197.572 C 46.400 198.393,187.761 340.506,192.975 344.926 L 194.949 346.600 199.575 346.600 C 202.119 346.600,204.650 346.470,205.200 346.311 C 205.777 346.144,236.994 315.186,279.013 273.111 C 347.130 204.903,354.327 197.633,355.392 195.957 C 356.865 193.638,357.979 192.115,358.546 191.645 C 358.906 191.346,359.200 190.863,359.200 190.571 C 359.200 190.279,359.436 189.896,359.723 189.720 C 360.011 189.544,360.478 188.828,360.760 188.129 C 361.042 187.430,361.527 186.760,361.837 186.641 C 362.146 186.522,362.400 186.094,362.400 185.690 C 362.400 185.286,362.850 184.345,363.400 183.600 C 363.950 182.855,364.400 181.993,364.400 181.685 C 364.400 181.378,364.760 180.669,365.200 180.109 C 365.640 179.550,366.000 178.781,366.000 178.400 C 366.000 178.019,366.337 177.279,366.748 176.754 C 367.159 176.229,367.633 175.170,367.801 174.400 C 367.969 173.630,368.443 172.373,368.853 171.606 C 369.264 170.839,369.600 169.690,369.600 169.053 C 369.600 168.416,369.939 167.333,370.354 166.647 C 370.769 165.961,371.235 164.320,371.391 163.000 C 371.546 161.680,371.953 160.286,372.296 159.903 C 372.766 159.377,372.997 157.714,373.240 153.103 C 373.417 149.746,373.777 145.533,374.039 143.740 C 374.302 141.947,374.378 140.147,374.209 139.740 C 374.040 139.333,373.680 135.533,373.409 131.295 C 373.040 125.525,372.763 123.416,372.309 122.895 C 371.975 122.513,371.575 121.030,371.420 119.600 C 371.266 118.170,370.814 116.460,370.417 115.800 C 370.019 115.140,369.572 113.745,369.423 112.700 C 369.273 111.655,368.989 110.800,368.791 110.800 C 368.593 110.800,368.237 110.035,367.999 109.100 C 367.610 107.567,366.084 103.945,365.177 102.400 C 364.983 102.070,364.479 101.058,364.058 100.152 C 363.636 99.245,363.090 98.379,362.845 98.228 C 362.600 98.077,362.400 97.681,362.400 97.350 C 362.400 97.018,361.950 96.157,361.400 95.436 C 360.850 94.714,360.400 93.916,360.400 93.662 C 360.400 93.408,360.040 92.795,359.600 92.300 C 357.940 90.433,357.626 90.010,357.011 88.821 C 356.664 88.150,356.204 87.600,355.990 87.600 C 355.775 87.600,355.600 87.359,355.600 87.064 C 355.600 86.769,354.835 85.711,353.900 84.714 C 352.965 83.717,351.463 82.113,350.562 81.151 C 347.811 78.211,341.496 72.347,340.006 71.350 C 337.631 69.760,336.632 69.031,335.825 68.301 C 335.398 67.916,334.822 67.600,334.544 67.600 C 334.267 67.600,333.896 67.364,333.720 67.077 C 333.544 66.789,332.828 66.322,332.129 66.040 C 331.430 65.758,330.760 65.273,330.641 64.963 C 330.522 64.654,330.094 64.400,329.690 64.400 C 329.286 64.400,328.345 63.950,327.600 63.400 C 326.855 62.850,325.993 62.400,325.685 62.400 C 325.378 62.400,324.669 62.040,324.109 61.600 C 323.550 61.160,322.694 60.800,322.208 60.800 C 321.722 60.800,320.801 60.350,320.162 59.800 C 319.432 59.173,318.510 58.801,317.684 58.800 C 316.960 58.800,315.880 58.458,315.284 58.040 C 314.688 57.622,313.416 57.167,312.458 57.028 C 311.500 56.890,310.240 56.533,309.658 56.235 C 309.076 55.937,307.430 55.565,306.000 55.409 C 304.570 55.252,303.008 54.875,302.528 54.571 C 300.948 53.569,288.615 53.095,276.400 53.566 M124.161 77.950 C 127.220 78.438,130.041 79.008,130.430 79.216 C 130.820 79.425,132.097 79.794,133.269 80.037 C 134.441 80.281,135.799 80.732,136.286 81.040 C 136.773 81.348,137.401 81.600,137.680 81.600 C 138.142 81.600,141.421 83.048,143.400 84.126 C 143.840 84.365,144.740 84.846,145.400 85.194 C 146.438 85.740,150.678 88.520,153.346 90.402 C 155.006 91.573,157.890 94.373,174.358 110.803 C 195.934 132.329,196.584 132.763,203.670 130.376 C 207.173 129.196,207.317 129.069,225.675 110.800 C 234.849 101.670,242.833 93.840,243.415 93.400 C 243.997 92.960,244.808 92.261,245.216 91.848 C 245.623 91.434,246.308 90.894,246.737 90.648 C 247.166 90.401,248.480 89.543,249.658 88.739 C 252.748 86.631,257.251 84.215,260.600 82.868 C 263.973 81.512,266.476 80.750,269.400 80.192 C 270.940 79.898,272.740 79.432,273.400 79.156 C 274.958 78.504,291.019 78.168,293.800 78.729 C 300.765 80.133,302.264 80.472,302.805 80.763 C 303.137 80.942,304.478 81.399,305.784 81.778 C 307.090 82.158,309.628 83.173,311.424 84.034 C 313.220 84.895,314.811 85.600,314.961 85.600 C 315.110 85.600,315.720 85.932,316.316 86.337 C 316.912 86.743,318.210 87.598,319.200 88.237 C 326.891 93.200,339.600 106.252,339.600 109.186 C 339.600 109.397,339.938 109.891,340.350 110.284 C 340.763 110.678,341.239 111.450,341.408 112.000 C 341.577 112.550,342.004 113.442,342.357 113.982 C 343.004 114.971,343.418 115.960,344.878 120.000 C 345.316 121.210,345.814 122.380,345.986 122.600 C 346.158 122.820,346.423 123.900,346.574 125.000 C 346.726 126.100,347.231 127.990,347.696 129.200 C 348.855 132.216,349.011 152.365,347.894 154.912 C 347.529 155.743,347.029 157.536,346.783 158.895 C 346.536 160.254,346.079 161.860,345.767 162.463 C 345.455 163.067,345.200 163.882,345.200 164.274 C 345.200 164.667,344.772 165.891,344.249 166.994 C 343.725 168.097,343.092 169.450,342.840 170.000 C 342.589 170.550,341.860 171.900,341.220 173.000 C 340.579 174.100,339.867 175.408,339.636 175.906 C 339.201 176.843,337.848 178.820,336.800 180.049 C 336.470 180.436,335.246 181.978,334.079 183.476 C 331.558 186.715,200.783 317.600,200.069 317.600 C 199.526 317.600,68.487 186.595,65.600 183.166 C 62.810 179.853,60.400 176.692,60.400 176.348 C 60.400 176.044,58.786 173.451,58.037 172.551 C 57.431 171.823,55.200 166.884,55.200 166.271 C 55.200 165.961,54.855 165.269,54.432 164.732 C 54.010 164.195,53.484 162.866,53.264 161.778 C 53.043 160.690,52.589 158.990,52.254 158.000 C 49.954 151.197,49.201 137.614,50.765 131.144 C 51.224 129.245,51.600 127.083,51.600 126.339 C 51.600 125.596,51.947 124.340,52.372 123.548 C 52.796 122.756,53.261 121.409,53.406 120.554 C 53.550 119.699,53.997 118.280,54.400 117.400 C 54.802 116.520,55.336 115.350,55.585 114.800 C 55.835 114.250,56.476 113.080,57.010 112.200 C 57.544 111.320,58.176 110.150,58.415 109.600 C 60.234 105.409,72.664 90.800,74.411 90.800 C 74.548 90.800,75.662 90.035,76.887 89.100 C 79.500 87.105,80.409 86.570,86.000 83.743 C 88.310 82.574,90.504 81.614,90.876 81.609 C 91.248 81.604,91.661 81.425,91.793 81.211 C 91.926 80.997,92.791 80.638,93.717 80.414 C 94.643 80.190,96.570 79.653,98.000 79.221 C 99.430 78.789,102.220 78.235,104.200 77.990 C 106.180 77.745,108.610 77.393,109.600 77.207 C 112.381 76.685,118.047 76.974,124.161 77.950 " stroke="none" fill="#832323" fill-rule="evenodd"></path><path id="path2" d="M0.000 200.000 L 0.000 400.000 200.000 400.000 L 400.000 400.000 400.000 200.000 L 400.000 0.000 200.000 0.000 L 0.000 0.000 0.000 200.000 M292.400 52.017 C 293.390 52.228,296.180 52.571,298.600 52.780 C 301.087 52.994,303.996 53.516,305.290 53.980 C 306.550 54.431,308.260 54.801,309.090 54.801 C 309.921 54.802,311.189 55.162,311.910 55.601 C 312.630 56.041,313.620 56.402,314.110 56.404 C 314.599 56.406,315.900 56.850,317.000 57.391 C 318.100 57.932,319.215 58.381,319.479 58.387 C 319.742 58.394,320.804 58.850,321.838 59.400 C 322.873 59.950,324.058 60.400,324.472 60.400 C 324.886 60.400,325.329 60.670,325.455 61.000 C 325.582 61.330,326.001 61.600,326.387 61.600 C 326.773 61.600,327.698 62.007,328.444 62.504 C 329.190 63.001,330.250 63.643,330.800 63.930 C 333.180 65.175,334.423 65.945,337.030 67.790 C 338.554 68.868,339.944 69.986,340.120 70.275 C 340.296 70.564,340.691 70.800,340.997 70.800 C 341.304 70.800,341.790 71.115,342.077 71.500 C 342.365 71.885,343.674 73.100,344.987 74.200 C 348.025 76.745,351.949 80.723,354.457 83.800 C 355.533 85.120,356.680 86.485,357.007 86.834 C 357.333 87.182,357.600 87.655,357.600 87.885 C 357.600 88.114,357.881 88.535,358.225 88.821 C 358.900 89.381,361.600 93.317,361.600 93.741 C 361.600 93.884,361.960 94.360,362.400 94.800 C 362.840 95.240,363.200 95.966,363.200 96.413 C 363.200 96.859,363.456 97.323,363.769 97.443 C 364.082 97.563,364.623 98.323,364.971 99.131 C 365.319 99.939,365.765 100.870,365.962 101.200 C 366.725 102.480,368.400 106.093,368.400 106.459 C 368.400 106.671,368.765 107.644,369.210 108.622 C 369.656 109.600,370.134 110.985,370.274 111.700 C 370.414 112.415,370.755 113.360,371.033 113.800 C 371.310 114.240,371.757 115.770,372.026 117.200 C 372.295 118.630,372.670 120.000,372.860 120.244 C 373.050 120.488,373.470 122.698,373.794 125.154 C 374.118 127.611,374.587 130.002,374.837 130.469 C 375.467 131.647,375.493 149.703,374.867 151.600 C 374.612 152.370,374.150 154.942,373.838 157.316 C 373.526 159.690,373.098 161.850,372.886 162.116 C 372.674 162.382,372.376 163.500,372.223 164.600 C 372.070 165.700,371.613 167.320,371.208 168.200 C 370.802 169.080,370.340 170.430,370.182 171.200 C 370.023 171.970,369.557 173.227,369.147 173.994 C 368.736 174.761,368.400 175.599,368.400 175.857 C 368.400 176.288,366.801 179.792,365.962 181.200 C 365.765 181.530,365.313 182.475,364.959 183.300 C 364.604 184.125,364.180 184.800,364.017 184.800 C 363.855 184.800,363.417 185.475,363.045 186.300 C 362.129 188.330,360.909 190.478,360.509 190.765 C 360.329 190.894,359.840 191.535,359.423 192.190 C 359.006 192.844,358.518 193.564,358.340 193.790 C 356.564 196.035,352.153 201.501,351.822 201.866 C 349.782 204.114,209.062 344.725,208.000 345.577 C 204.585 348.314,198.867 349.469,196.396 347.920 C 195.848 347.576,194.860 347.173,194.200 347.024 C 192.846 346.718,54.002 208.327,48.500 201.800 C 46.831 199.820,45.271 198.016,45.033 197.791 C 44.795 197.566,44.372 197.026,44.094 196.591 C 42.341 193.850,41.995 193.342,41.524 192.818 C 40.540 191.725,38.400 188.228,38.400 187.713 C 38.400 187.431,38.238 187.200,38.039 187.200 C 37.841 187.200,37.487 186.652,37.253 185.981 C 37.020 185.311,36.462 184.297,36.014 183.727 C 35.566 183.158,35.200 182.381,35.200 182.000 C 35.200 181.619,34.855 180.869,34.433 180.333 C 34.011 179.796,33.541 178.692,33.388 177.879 C 33.236 177.065,32.980 176.400,32.820 176.400 C 32.394 176.400,31.600 174.505,31.598 173.481 C 31.596 172.997,31.314 172.062,30.971 171.403 C 30.628 170.745,30.106 169.125,29.812 167.803 C 29.517 166.482,29.087 164.860,28.857 164.200 C 26.641 157.857,25.415 133.879,27.104 129.920 C 27.357 129.326,27.770 127.256,28.020 125.320 C 28.271 123.384,28.700 121.440,28.975 121.000 C 29.249 120.560,29.594 119.307,29.741 118.215 C 29.888 117.123,30.366 115.542,30.804 114.702 C 31.242 113.863,31.600 112.829,31.600 112.407 C 31.600 111.475,32.415 109.600,32.820 109.600 C 32.980 109.600,33.236 108.935,33.388 108.121 C 33.541 107.308,34.011 106.204,34.433 105.667 C 34.855 105.131,35.200 104.443,35.200 104.138 C 35.200 103.554,37.432 99.178,37.916 98.814 C 38.072 98.696,38.514 97.970,38.898 97.200 C 39.697 95.596,40.230 94.720,41.499 92.927 C 41.995 92.226,42.400 91.527,42.400 91.373 C 42.400 91.218,42.805 90.676,43.300 90.168 C 45.175 88.244,45.600 87.721,45.600 87.337 C 45.600 86.363,58.173 73.821,60.337 72.637 C 60.701 72.437,61.810 71.622,62.800 70.825 C 64.838 69.184,66.546 68.059,71.800 64.899 C 73.366 63.957,78.291 61.600,78.693 61.600 C 78.918 61.600,79.317 61.342,79.579 61.026 C 79.841 60.710,80.628 60.328,81.328 60.177 C 82.027 60.026,83.268 59.564,84.084 59.151 C 84.900 58.738,85.897 58.400,86.299 58.400 C 86.702 58.400,87.706 58.056,88.530 57.635 C 89.355 57.215,90.968 56.744,92.115 56.589 C 93.262 56.433,94.738 56.030,95.396 55.693 C 96.054 55.356,98.664 54.834,101.196 54.534 C 103.728 54.233,107.060 53.821,108.600 53.618 C 112.188 53.146,119.455 53.137,122.800 53.603 C 124.230 53.801,127.200 54.167,129.400 54.414 C 131.600 54.661,134.300 55.197,135.400 55.603 C 136.500 56.010,138.338 56.461,139.485 56.607 C 140.632 56.752,142.245 57.215,143.070 57.635 C 143.894 58.056,144.902 58.400,145.309 58.400 C 145.964 58.400,147.075 58.843,151.800 60.987 C 155.644 62.731,160.333 65.150,162.400 66.455 C 162.950 66.803,164.345 67.683,165.500 68.411 C 166.655 69.139,167.600 69.872,167.600 70.040 C 167.600 70.209,167.990 70.470,168.466 70.621 C 168.942 70.772,169.751 71.279,170.264 71.748 C 170.776 72.217,171.738 73.050,172.401 73.600 C 173.064 74.150,174.803 75.725,176.265 77.100 C 177.727 78.475,178.989 79.600,179.070 79.600 C 179.373 79.600,183.600 84.138,183.600 84.462 C 183.600 84.648,183.801 84.800,184.046 84.800 C 184.524 84.800,187.200 87.559,187.200 88.051 C 187.200 88.213,187.560 88.460,188.000 88.600 C 188.440 88.740,188.800 89.112,188.800 89.427 C 188.800 89.742,188.983 90.000,189.208 90.000 C 189.664 90.000,194.395 94.831,194.398 95.300 C 194.399 95.465,194.576 95.600,194.791 95.600 C 195.007 95.600,196.173 96.590,197.383 97.800 C 200.071 100.488,199.877 100.488,202.653 97.800 C 203.902 96.590,204.973 95.600,205.031 95.600 C 205.308 95.600,207.600 93.098,207.600 92.796 C 207.600 92.608,207.951 92.343,208.380 92.206 C 208.808 92.070,209.267 91.617,209.400 91.200 C 209.533 90.783,209.992 90.330,210.420 90.194 C 210.849 90.057,211.200 89.671,211.200 89.336 C 211.200 89.000,211.560 88.631,212.000 88.516 C 212.440 88.401,212.800 88.175,212.800 88.015 C 212.800 87.577,215.581 84.800,216.019 84.800 C 216.229 84.800,216.400 84.640,216.400 84.443 C 216.400 84.144,220.698 79.600,220.982 79.600 C 221.034 79.600,222.260 78.475,223.707 77.100 C 227.145 73.832,229.822 71.489,231.800 70.018 C 232.680 69.363,233.760 68.553,234.200 68.217 C 236.065 66.794,238.636 65.214,239.100 65.207 C 239.375 65.203,239.600 65.040,239.600 64.844 C 239.600 64.648,240.365 64.107,241.300 63.642 C 242.235 63.176,243.270 62.616,243.600 62.397 C 243.930 62.179,244.650 61.820,245.200 61.601 C 245.750 61.381,246.470 61.051,246.800 60.866 C 248.760 59.770,251.978 58.397,253.072 58.190 C 253.772 58.057,254.548 57.704,254.795 57.406 C 255.043 57.107,256.001 56.737,256.923 56.583 C 257.845 56.430,259.230 55.991,260.000 55.608 C 260.770 55.225,262.403 54.799,263.629 54.661 C 264.855 54.523,266.429 54.125,267.127 53.776 C 267.826 53.428,270.332 52.972,272.698 52.763 C 275.064 52.554,277.900 52.231,279.000 52.045 C 281.786 51.574,290.231 51.557,292.400 52.017 M115.199 102.123 C 115.089 102.239,113.473 102.544,111.608 102.799 C 109.743 103.054,107.458 103.609,106.531 104.032 C 105.603 104.454,104.482 104.800,104.041 104.800 C 103.053 104.800,101.200 105.613,101.200 106.046 C 101.200 106.221,100.582 106.480,99.826 106.621 C 99.071 106.763,98.143 107.221,97.764 107.640 C 97.386 108.058,96.869 108.400,96.617 108.400 C 96.204 108.400,93.283 110.359,92.155 111.392 C 91.910 111.616,90.938 112.430,89.996 113.200 C 87.225 115.464,82.716 120.651,81.564 122.901 C 77.935 129.987,77.051 132.262,76.012 137.200 C 73.758 147.914,75.880 154.166,82.927 157.567 C 85.519 158.819,90.838 158.658,92.596 157.275 C 93.207 156.794,93.909 156.395,94.154 156.388 C 96.124 156.336,99.426 151.047,99.765 147.400 C 100.149 143.269,101.578 137.977,102.662 136.669 C 103.178 136.047,103.603 135.417,103.606 135.269 C 103.654 132.956,111.446 128.122,115.719 127.754 C 123.705 127.066,127.678 124.821,130.039 119.663 C 133.043 113.099,129.636 105.020,123.000 102.970 C 120.936 102.332,115.554 101.748,115.199 102.123 " stroke="none" fill="#fbfbfb" fill-rule="evenodd"></path><path id="path3" d="M279.000 52.045 C 277.900 52.231,275.064 52.554,272.698 52.763 C 270.332 52.972,267.826 53.428,267.127 53.776 C 266.429 54.125,264.855 54.523,263.629 54.661 C 262.403 54.799,260.770 55.225,260.000 55.608 C 259.230 55.991,257.845 56.430,256.923 56.583 C 256.001 56.737,255.043 57.107,254.795 57.406 C 254.548 57.704,253.772 58.057,253.072 58.190 C 251.978 58.397,248.760 59.770,246.800 60.866 C 246.470 61.051,245.750 61.381,245.200 61.601 C 244.650 61.820,243.930 62.179,243.600 62.397 C 243.270 62.616,242.235 63.176,241.300 63.642 C 240.365 64.107,239.600 64.648,239.600 64.844 C 239.600 65.040,239.375 65.203,239.100 65.207 C 238.636 65.214,236.065 66.794,234.200 68.217 C 233.760 68.553,232.680 69.363,231.800 70.018 C 229.822 71.489,227.145 73.832,223.707 77.100 C 222.260 78.475,221.034 79.600,220.982 79.600 C 220.698 79.600,216.400 84.144,216.400 84.443 C 216.400 84.640,216.229 84.800,216.019 84.800 C 215.581 84.800,212.800 87.577,212.800 88.015 C 212.800 88.175,212.440 88.401,212.000 88.516 C 211.560 88.631,211.200 89.000,211.200 89.336 C 211.200 89.671,210.849 90.057,210.420 90.194 C 209.992 90.330,209.533 90.783,209.400 91.200 C 209.267 91.617,208.808 92.070,208.380 92.206 C 207.951 92.343,207.600 92.608,207.600 92.796 C 207.600 93.098,205.308 95.600,205.031 95.600 C 204.973 95.600,203.902 96.590,202.653 97.800 C 199.877 100.488,200.071 100.488,197.383 97.800 C 196.173 96.590,195.007 95.600,194.791 95.600 C 194.576 95.600,194.399 95.465,194.398 95.300 C 194.395 94.831,189.664 90.000,189.208 90.000 C 188.983 90.000,188.800 89.742,188.800 89.427 C 188.800 89.112,188.440 88.740,188.000 88.600 C 187.560 88.460,187.200 88.213,187.200 88.051 C 187.200 87.559,184.524 84.800,184.046 84.800 C 183.801 84.800,183.600 84.648,183.600 84.462 C 183.600 84.138,179.373 79.600,179.070 79.600 C 178.989 79.600,177.727 78.475,176.265 77.100 C 174.803 75.725,173.064 74.150,172.401 73.600 C 171.738 73.050,170.776 72.217,170.264 71.748 C 169.751 71.279,168.942 70.772,168.466 70.621 C 167.990 70.470,167.600 70.209,167.600 70.040 C 167.600 69.872,166.655 69.139,165.500 68.411 C 164.345 67.683,162.950 66.803,162.400 66.455 C 160.333 65.150,155.644 62.731,151.800 60.987 C 147.075 58.843,145.964 58.400,145.309 58.400 C 144.902 58.400,143.894 58.056,143.070 57.635 C 142.245 57.215,140.632 56.752,139.485 56.607 C 138.338 56.461,136.500 56.010,135.400 55.603 C 134.300 55.197,131.600 54.661,129.400 54.414 C 127.200 54.167,124.230 53.801,122.800 53.603 C 119.455 53.137,112.188 53.146,108.600 53.618 C 107.060 53.821,103.728 54.233,101.196 54.534 C 98.664 54.834,96.054 55.356,95.396 55.693 C 94.738 56.030,93.262 56.433,92.115 56.589 C 90.968 56.744,89.355 57.215,88.530 57.635 C 87.706 58.056,86.702 58.400,86.299 58.400 C 85.897 58.400,84.900 58.738,84.084 59.151 C 83.268 59.564,82.027 60.026,81.328 60.177 C 80.628 60.328,79.841 60.710,79.579 61.026 C 79.317 61.342,78.918 61.600,78.693 61.600 C 78.291 61.600,73.366 63.957,71.800 64.899 C 66.546 68.059,64.838 69.184,62.800 70.825 C 61.810 71.622,60.701 72.437,60.337 72.637 C 58.173 73.821,45.600 86.363,45.600 87.337 C 45.600 87.721,45.175 88.244,43.300 90.168 C 42.805 90.676,42.400 91.218,42.400 91.373 C 42.400 91.527,41.995 92.226,41.499 92.927 C 40.230 94.720,39.697 95.596,38.898 97.200 C 38.514 97.970,38.072 98.696,37.916 98.814 C 37.432 99.178,35.200 103.554,35.200 104.138 C 35.200 104.443,34.855 105.131,34.433 105.667 C 34.011 106.204,33.541 107.308,33.388 108.121 C 33.236 108.935,32.980 109.600,32.820 109.600 C 32.415 109.600,31.600 111.475,31.600 112.407 C 31.600 112.829,31.242 113.863,30.804 114.702 C 30.366 115.542,29.888 117.123,29.741 118.215 C 29.594 119.307,29.249 120.560,28.975 121.000 C 28.700 121.440,28.271 123.384,28.020 125.320 C 27.770 127.256,27.357 129.326,27.104 129.920 C 25.415 133.879,26.641 157.857,28.857 164.200 C 29.087 164.860,29.517 166.482,29.812 167.803 C 30.106 169.125,30.628 170.745,30.971 171.403 C 31.314 172.062,31.596 172.997,31.598 173.481 C 31.600 174.505,32.394 176.400,32.820 176.400 C 32.980 176.400,33.236 177.065,33.388 177.879 C 33.541 178.692,34.011 179.796,34.433 180.333 C 34.855 180.869,35.200 181.619,35.200 182.000 C 35.200 182.381,35.566 183.158,36.014 183.727 C 36.462 184.297,37.020 185.311,37.253 185.981 C 37.487 186.652,37.841 187.200,38.039 187.200 C 38.238 187.200,38.400 187.431,38.400 187.713 C 38.400 188.228,40.540 191.725,41.524 192.818 C 41.995 193.342,42.341 193.850,44.094 196.591 C 44.372 197.026,44.795 197.566,45.033 197.791 C 45.271 198.016,46.831 199.820,48.500 201.800 C 54.002 208.327,192.846 346.718,194.200 347.024 C 194.860 347.173,195.848 347.576,196.396 347.920 C 198.867 349.469,204.585 348.314,208.000 345.577 C 209.062 344.725,349.782 204.114,351.822 201.866 C 352.153 201.501,356.564 196.035,358.340 193.790 C 358.518 193.564,359.006 192.844,359.423 192.190 C 359.840 191.535,360.329 190.894,360.509 190.765 C 360.909 190.478,362.129 188.330,363.045 186.300 C 363.417 185.475,363.855 184.800,364.017 184.800 C 364.180 184.800,364.604 184.125,364.959 183.300 C 365.313 182.475,365.765 181.530,365.962 181.200 C 366.801 179.792,368.400 176.288,368.400 175.857 C 368.400 175.599,368.736 174.761,369.147 173.994 C 369.557 173.227,370.023 171.970,370.182 171.200 C 370.340 170.430,370.802 169.080,371.208 168.200 C 371.613 167.320,372.070 165.700,372.223 164.600 C 372.376 163.500,372.674 162.382,372.886 162.116 C 373.098 161.850,373.526 159.690,373.838 157.316 C 374.150 154.942,374.612 152.370,374.867 151.600 C 375.493 149.703,375.467 131.647,374.837 130.469 C 374.587 130.002,374.118 127.611,373.794 125.154 C 373.470 122.698,373.050 120.488,372.860 120.244 C 372.670 120.000,372.295 118.630,372.026 117.200 C 371.757 115.770,371.310 114.240,371.033 113.800 C 370.755 113.360,370.414 112.415,370.274 111.700 C 370.134 110.985,369.656 109.600,369.210 108.622 C 368.765 107.644,368.400 106.671,368.400 106.459 C 368.400 106.093,366.725 102.480,365.962 101.200 C 365.765 100.870,365.319 99.939,364.971 99.131 C 364.623 98.323,364.082 97.563,363.769 97.443 C 363.456 97.323,363.200 96.859,363.200 96.413 C 363.200 95.966,362.840 95.240,362.400 94.800 C 361.960 94.360,361.600 93.884,361.600 93.741 C 361.600 93.317,358.900 89.381,358.225 88.821 C 357.881 88.535,357.600 88.114,357.600 87.885 C 357.600 87.655,357.333 87.182,357.007 86.834 C 356.680 86.485,355.533 85.120,354.457 83.800 C 351.949 80.723,348.025 76.745,344.987 74.200 C 343.674 73.100,342.365 71.885,342.077 71.500 C 341.790 71.115,341.304 70.800,340.997 70.800 C 340.691 70.800,340.296 70.564,340.120 70.275 C 339.944 69.986,338.554 68.868,337.030 67.790 C 334.423 65.945,333.180 65.175,330.800 63.930 C 330.250 63.643,329.190 63.001,328.444 62.504 C 327.698 62.007,326.773 61.600,326.387 61.600 C 326.001 61.600,325.582 61.330,325.455 61.000 C 325.329 60.670,324.886 60.400,324.472 60.400 C 324.058 60.400,322.873 59.950,321.838 59.400 C 320.804 58.850,319.742 58.394,319.479 58.387 C 319.215 58.381,318.100 57.932,317.000 57.391 C 315.900 56.850,314.599 56.406,314.110 56.404 C 313.620 56.402,312.630 56.041,311.910 55.601 C 311.189 55.162,309.921 54.802,309.090 54.801 C 308.260 54.801,306.550 54.431,305.290 53.980 C 303.996 53.516,301.087 52.994,298.600 52.780 C 296.180 52.571,293.390 52.228,292.400 52.017 C 290.231 51.557,281.786 51.574,279.000 52.045 M294.134 53.007 C 298.498 53.338,302.412 53.793,302.833 54.018 C 303.253 54.243,304.633 54.607,305.899 54.827 C 308.700 55.315,313.232 56.632,315.400 57.587 C 316.280 57.975,317.630 58.429,318.400 58.596 C 319.170 58.763,320.250 59.215,320.800 59.600 C 321.350 59.985,322.373 60.424,323.072 60.576 C 323.772 60.727,324.545 61.092,324.789 61.386 C 325.033 61.681,325.706 62.040,326.285 62.186 C 326.863 62.331,327.780 62.798,328.322 63.225 C 328.864 63.651,329.526 64.000,329.792 64.000 C 330.058 64.000,330.602 64.360,331.000 64.800 C 331.398 65.240,331.941 65.600,332.207 65.600 C 334.362 65.600,346.113 75.474,352.913 83.000 C 355.100 85.420,356.992 87.670,357.117 88.000 C 357.243 88.330,358.078 89.583,358.973 90.785 C 359.868 91.987,360.870 93.457,361.200 94.052 C 361.530 94.647,362.549 96.454,363.465 98.067 C 366.317 103.091,368.589 108.264,369.768 112.418 C 370.052 113.419,370.502 114.643,370.768 115.140 C 371.034 115.637,371.428 117.138,371.643 118.475 C 371.858 119.813,372.288 121.397,372.598 121.997 C 373.147 123.059,373.482 125.597,374.459 136.100 C 374.937 141.248,374.902 142.048,373.598 155.306 C 373.387 157.454,372.951 159.721,372.629 160.343 C 372.308 160.966,371.921 162.448,371.771 163.637 C 371.620 164.827,371.181 166.520,370.794 167.400 C 370.407 168.280,369.963 169.630,369.806 170.400 C 369.650 171.170,369.269 172.199,368.961 172.686 C 368.652 173.173,368.400 173.801,368.400 174.080 C 368.400 174.785,364.890 182.093,362.962 185.400 C 362.449 186.280,361.642 187.709,361.169 188.575 C 360.695 189.441,360.103 190.375,359.854 190.651 C 359.604 190.927,358.950 191.808,358.400 192.609 C 357.188 194.375,353.959 198.416,352.020 200.594 C 349.271 203.680,209.774 343.265,207.766 344.938 C 204.896 347.329,200.644 348.423,197.759 347.512 C 196.682 347.172,195.260 346.768,194.600 346.614 C 193.702 346.405,175.367 328.289,121.783 274.667 C 54.978 207.815,46.504 199.139,43.387 194.400 C 42.735 193.410,42.100 192.510,41.974 192.400 C 41.849 192.290,41.047 191.030,40.193 189.600 C 39.339 188.170,38.420 186.730,38.151 186.400 C 37.882 186.070,37.542 185.318,37.395 184.729 C 37.248 184.141,36.784 183.348,36.364 182.967 C 35.944 182.587,35.600 181.944,35.600 181.538 C 35.600 181.132,35.164 179.945,34.632 178.900 C 32.949 175.596,32.000 173.335,32.000 172.630 C 32.000 172.255,31.658 171.105,31.240 170.074 C 30.404 168.009,29.311 163.805,28.726 160.400 C 28.518 159.190,27.977 156.086,27.522 153.502 C 26.531 147.864,26.669 135.271,27.769 131.000 C 28.109 129.680,28.390 127.836,28.394 126.902 C 28.397 125.967,28.747 124.167,29.171 122.902 C 29.595 121.636,30.066 119.790,30.216 118.800 C 30.367 117.810,30.633 116.820,30.807 116.600 C 30.982 116.380,31.433 115.120,31.810 113.800 C 32.188 112.480,32.658 111.198,32.855 110.951 C 33.051 110.705,33.487 109.580,33.822 108.451 C 34.157 107.323,34.590 106.400,34.784 106.400 C 34.978 106.400,35.263 105.815,35.418 105.100 C 35.573 104.385,36.025 103.339,36.423 102.776 C 36.821 102.212,37.268 101.267,37.417 100.676 C 37.565 100.084,37.827 99.600,37.998 99.600 C 38.169 99.600,38.624 98.936,39.009 98.125 C 39.394 97.314,39.869 96.459,40.065 96.225 C 40.261 95.991,40.991 94.900,41.688 93.800 C 42.385 92.700,43.612 90.990,44.415 90.000 C 45.217 89.010,46.037 87.907,46.237 87.548 C 47.501 85.279,55.297 77.437,59.905 73.800 C 60.462 73.360,61.837 72.262,62.959 71.361 C 64.082 70.459,65.540 69.419,66.200 69.049 C 66.860 68.679,67.940 68.026,68.600 67.599 C 69.260 67.172,70.430 66.456,71.200 66.007 C 71.970 65.559,72.870 65.020,73.200 64.811 C 74.457 64.012,82.381 60.400,82.878 60.399 C 83.165 60.398,83.989 60.038,84.710 59.599 C 85.430 59.159,86.283 58.800,86.606 58.800 C 86.929 58.800,88.500 58.365,90.096 57.834 C 91.693 57.302,93.801 56.754,94.780 56.616 C 95.759 56.478,96.749 56.212,96.980 56.025 C 97.648 55.483,112.800 53.800,115.800 53.934 C 123.132 54.262,133.490 55.444,134.231 56.038 C 134.468 56.228,135.862 56.554,137.329 56.761 C 138.795 56.969,140.530 57.406,141.184 57.732 C 141.838 58.058,143.122 58.452,144.038 58.606 C 144.954 58.761,146.265 59.211,146.951 59.605 C 147.638 60.000,148.773 60.441,149.472 60.587 C 150.172 60.732,150.955 61.105,151.213 61.415 C 151.470 61.725,152.294 62.094,153.045 62.235 C 153.795 62.376,154.504 62.645,154.621 62.834 C 154.738 63.023,155.591 63.548,156.517 64.001 C 161.953 66.662,166.546 69.676,172.000 74.159 C 176.266 77.667,176.635 78.017,189.185 90.500 C 194.881 96.165,199.755 100.800,200.017 100.800 C 200.279 100.800,205.917 95.420,212.546 88.845 C 226.079 75.424,226.918 74.627,230.000 72.277 C 231.210 71.355,232.380 70.407,232.600 70.172 C 233.155 69.578,236.704 67.207,238.600 66.164 C 239.260 65.801,240.070 65.269,240.400 64.983 C 241.190 64.296,248.872 60.408,249.446 60.403 C 249.691 60.402,250.321 60.066,250.846 59.658 C 251.371 59.250,252.440 58.798,253.222 58.654 C 254.005 58.511,255.348 58.034,256.207 57.596 C 257.066 57.158,258.136 56.799,258.585 56.798 C 259.033 56.796,259.906 56.531,260.525 56.208 C 261.144 55.885,263.087 55.349,264.842 55.016 C 266.597 54.683,268.341 54.249,268.716 54.051 C 269.092 53.853,271.920 53.487,275.000 53.239 C 278.080 52.990,281.230 52.728,282.000 52.657 C 284.977 52.382,286.452 52.425,294.134 53.007 " stroke="none" fill="#b4848c" fill-rule="evenodd"></path><path id="path4" d="M279.000 52.845 C 276.580 53.027,274.150 53.232,273.600 53.301 C 273.050 53.369,278.720 53.429,286.200 53.435 L 299.800 53.445 293.600 52.960 C 286.467 52.402,285.019 52.391,279.000 52.845 M114.359 53.772 C 114.272 53.858,112.040 54.129,109.400 54.372 C 101.824 55.072,97.435 55.656,96.980 56.025 C 96.749 56.212,95.759 56.478,94.780 56.616 C 93.801 56.754,91.693 57.302,90.096 57.834 C 88.500 58.365,86.929 58.800,86.606 58.800 C 86.283 58.800,85.430 59.159,84.710 59.599 C 83.989 60.038,83.165 60.398,82.878 60.399 C 82.381 60.400,74.457 64.012,73.200 64.811 C 72.870 65.020,71.970 65.559,71.200 66.007 C 70.430 66.456,69.260 67.172,68.600 67.599 C 67.940 68.026,66.860 68.679,66.200 69.049 C 65.540 69.419,64.082 70.459,62.959 71.361 C 61.837 72.262,60.462 73.360,59.905 73.800 C 55.297 77.437,47.501 85.279,46.237 87.548 C 46.037 87.907,45.217 89.010,44.415 90.000 C 43.612 90.990,42.382 92.700,41.682 93.800 C 40.982 94.900,40.137 96.152,39.805 96.581 C 39.472 97.011,39.200 97.562,39.200 97.806 C 39.200 98.050,38.822 98.655,38.360 99.151 C 37.898 99.647,37.583 100.116,37.660 100.194 C 37.959 100.492,39.031 99.338,39.698 98.000 C 40.576 96.236,41.165 95.302,42.300 93.872 C 42.795 93.249,43.200 92.489,43.200 92.183 C 43.200 91.878,43.560 91.435,44.000 91.200 C 44.440 90.965,44.800 90.510,44.800 90.189 C 44.800 89.869,45.160 89.382,45.600 89.107 C 46.040 88.832,46.400 88.442,46.400 88.241 C 46.400 87.065,54.901 78.501,60.760 73.775 C 61.288 73.349,62.024 72.730,62.395 72.400 C 62.766 72.070,63.348 71.620,63.689 71.400 C 64.029 71.180,65.363 70.298,66.654 69.439 C 71.435 66.259,71.850 66.000,72.158 66.000 C 72.332 66.000,72.931 65.640,73.491 65.200 C 74.050 64.760,74.819 64.400,75.200 64.400 C 75.581 64.400,76.336 64.051,76.878 63.625 C 77.420 63.198,78.389 62.721,79.032 62.564 C 79.674 62.407,80.629 61.945,81.154 61.539 C 81.679 61.133,82.599 60.800,83.200 60.800 C 83.801 60.800,84.730 60.456,85.264 60.035 C 85.799 59.615,87.298 59.075,88.595 58.835 C 89.892 58.595,91.058 58.229,91.187 58.021 C 91.315 57.814,92.673 57.444,94.204 57.199 C 95.736 56.955,97.801 56.500,98.794 56.189 C 100.266 55.729,110.735 54.738,114.800 54.674 C 118.826 54.612,132.323 55.742,133.041 56.202 C 133.503 56.498,135.292 56.937,137.017 57.177 C 138.741 57.417,140.446 57.880,140.807 58.207 C 141.168 58.533,142.079 58.779,142.831 58.754 C 143.636 58.726,143.870 58.633,143.400 58.526 C 142.960 58.427,142.000 58.072,141.266 57.738 C 140.532 57.403,138.746 56.962,137.297 56.757 C 135.848 56.552,134.447 56.205,134.185 55.987 C 133.626 55.524,129.615 55.010,121.800 54.401 C 118.720 54.161,115.822 53.886,115.359 53.790 C 114.897 53.693,114.447 53.685,114.359 53.772 M268.731 54.015 C 268.363 54.229,266.620 54.679,264.856 55.013 C 263.093 55.348,261.144 55.885,260.525 56.208 C 259.906 56.531,259.079 56.796,258.687 56.798 C 258.295 56.799,257.305 57.105,256.487 57.478 C 255.669 57.851,254.640 58.283,254.200 58.438 C 253.512 58.681,253.550 58.726,254.471 58.760 C 255.061 58.782,255.793 58.549,256.100 58.243 C 256.406 57.937,257.716 57.466,259.012 57.197 C 260.308 56.929,261.735 56.476,262.184 56.192 C 262.633 55.908,264.170 55.552,265.600 55.400 C 267.030 55.248,268.568 54.892,269.017 54.608 C 269.466 54.323,270.186 54.001,270.617 53.892 C 271.245 53.732,271.202 53.686,270.400 53.659 C 269.850 53.640,269.099 53.800,268.731 54.015 M300.983 53.892 C 301.414 54.001,302.134 54.323,302.583 54.608 C 303.032 54.892,304.570 55.252,306.000 55.409 C 307.430 55.565,309.076 55.937,309.658 56.235 C 310.240 56.533,311.500 56.890,312.458 57.028 C 313.416 57.167,314.688 57.622,315.284 58.040 C 315.880 58.458,316.870 58.786,317.484 58.768 C 318.098 58.751,318.330 58.650,318.000 58.544 C 317.670 58.438,316.590 58.022,315.600 57.621 C 313.018 56.573,308.572 55.293,305.899 54.827 C 304.633 54.607,303.250 54.241,302.825 54.013 C 302.400 53.786,301.636 53.621,301.126 53.646 C 300.326 53.686,300.307 53.720,300.983 53.892 M145.200 59.389 C 146.852 60.342,148.012 60.800,148.772 60.800 C 149.168 60.800,149.921 61.133,150.446 61.539 C 150.971 61.945,151.926 62.407,152.568 62.564 C 153.211 62.721,154.180 63.198,154.722 63.625 C 155.264 64.051,156.089 64.385,156.554 64.368 C 157.316 64.338,157.297 64.289,156.358 63.868 C 155.785 63.610,155.065 63.200,154.758 62.955 C 154.451 62.710,153.660 62.381,153.000 62.224 C 152.340 62.067,151.530 61.698,151.200 61.406 C 150.870 61.114,149.874 60.681,148.988 60.445 C 148.101 60.209,147.021 59.748,146.588 59.421 C 146.154 59.093,145.440 58.822,145.000 58.819 C 144.295 58.813,144.318 58.880,145.200 59.389 M251.217 59.380 C 250.952 59.698,250.147 60.153,249.428 60.391 C 247.823 60.920,241.225 64.281,240.400 64.989 C 240.070 65.272,239.260 65.801,238.600 66.164 C 236.704 67.207,233.155 69.578,232.600 70.172 C 232.380 70.407,231.210 71.355,230.000 72.277 C 226.918 74.627,226.079 75.424,212.546 88.845 C 205.917 95.420,200.279 100.800,200.017 100.800 C 199.755 100.800,194.881 96.165,189.185 90.500 C 183.490 84.835,178.058 79.467,177.115 78.571 C 173.097 74.754,163.350 67.317,162.924 67.743 C 162.815 67.851,163.508 68.441,164.463 69.054 C 165.418 69.667,166.522 70.491,166.916 70.884 C 167.309 71.278,167.894 71.600,168.216 71.600 C 168.537 71.600,168.800 71.739,168.800 71.908 C 168.800 72.077,169.714 72.932,170.832 73.808 C 171.949 74.684,173.308 75.805,173.852 76.300 C 174.396 76.795,175.012 77.200,175.221 77.200 C 175.429 77.200,175.600 77.470,175.600 77.800 C 175.600 78.130,175.779 78.400,175.998 78.400 C 176.217 78.400,181.627 83.620,188.021 90.000 C 194.414 96.380,199.801 101.600,199.992 101.600 C 200.183 101.600,205.932 96.020,212.768 89.200 C 219.604 82.380,225.309 76.800,225.445 76.800 C 225.582 76.800,226.392 76.080,227.246 75.200 C 228.100 74.320,228.910 73.600,229.045 73.600 C 229.181 73.600,230.330 72.700,231.600 71.600 C 232.870 70.500,234.049 69.600,234.221 69.600 C 234.392 69.600,234.818 69.325,235.166 68.988 C 236.117 68.071,239.338 66.016,239.838 66.007 C 240.079 66.003,240.602 65.640,241.000 65.200 C 241.398 64.760,242.028 64.400,242.400 64.400 C 242.772 64.400,243.393 64.050,243.779 63.623 C 244.166 63.195,245.049 62.722,245.741 62.571 C 246.434 62.419,247.429 61.959,247.954 61.548 C 248.479 61.137,249.219 60.800,249.600 60.800 C 249.981 60.800,250.721 60.467,251.246 60.060 C 251.771 59.653,252.470 59.217,252.800 59.091 C 253.217 58.933,253.140 58.854,252.549 58.832 C 252.081 58.814,251.482 59.061,251.217 59.380 M320.162 59.800 C 320.801 60.350,321.722 60.800,322.208 60.800 C 322.694 60.800,323.550 61.160,324.109 61.600 C 324.669 62.040,325.378 62.400,325.685 62.400 C 325.993 62.400,326.855 62.850,327.600 63.400 C 328.345 63.950,329.286 64.400,329.690 64.400 C 330.094 64.400,330.522 64.654,330.641 64.963 C 330.760 65.273,331.430 65.758,332.129 66.040 C 332.828 66.322,333.544 66.789,333.720 67.077 C 333.896 67.364,334.267 67.600,334.544 67.600 C 334.822 67.600,335.398 67.916,335.825 68.301 C 336.632 69.031,337.631 69.760,340.006 71.350 C 341.496 72.347,347.811 78.211,350.562 81.151 C 351.463 82.113,352.965 83.717,353.900 84.714 C 354.835 85.711,355.600 86.769,355.600 87.064 C 355.600 87.359,355.775 87.600,355.990 87.600 C 356.204 87.600,356.664 88.150,357.011 88.821 C 357.358 89.493,357.993 90.438,358.421 90.921 C 360.148 92.870,360.400 93.219,360.400 93.662 C 360.400 93.916,360.850 94.714,361.400 95.436 C 361.950 96.157,362.400 97.018,362.400 97.350 C 362.400 97.681,362.600 98.077,362.845 98.228 C 363.090 98.379,363.636 99.245,364.058 100.152 C 364.479 101.058,364.983 102.070,365.177 102.400 C 366.084 103.945,367.610 107.567,367.999 109.100 C 368.237 110.035,368.593 110.800,368.791 110.800 C 368.989 110.800,369.272 111.655,369.419 112.700 C 369.566 113.745,369.972 115.050,370.321 115.600 C 370.669 116.150,371.079 117.230,371.231 118.000 C 371.479 119.255,371.513 119.285,371.554 118.287 C 371.579 117.675,371.311 116.505,370.957 115.687 C 370.603 114.869,370.075 113.390,369.783 112.400 C 368.512 108.091,366.276 103.020,363.465 98.067 C 362.549 96.454,361.530 94.647,361.200 94.052 C 360.870 93.457,359.868 91.987,358.973 90.785 C 358.078 89.583,357.243 88.330,357.117 88.000 C 356.041 85.170,343.512 73.149,336.645 68.359 C 334.470 66.842,332.472 65.600,332.207 65.600 C 331.941 65.600,331.398 65.240,331.000 64.800 C 330.602 64.360,330.058 64.000,329.792 64.000 C 329.526 64.000,328.864 63.651,328.322 63.225 C 327.780 62.798,326.863 62.331,326.285 62.186 C 325.706 62.040,325.033 61.681,324.789 61.386 C 324.545 61.092,323.772 60.727,323.072 60.576 C 322.373 60.424,321.322 59.963,320.738 59.550 C 319.196 58.461,318.803 58.632,320.162 59.800 M157.806 64.872 C 157.939 65.217,158.757 65.820,159.624 66.211 C 160.491 66.602,161.200 67.074,161.200 67.261 C 161.200 67.447,161.492 67.600,161.849 67.600 C 162.827 67.600,161.866 66.602,160.287 65.977 C 159.579 65.697,158.677 65.193,158.283 64.857 C 157.637 64.306,157.590 64.308,157.806 64.872 M109.600 77.207 C 108.610 77.393,106.180 77.745,104.200 77.990 C 102.220 78.235,99.430 78.789,98.000 79.221 C 96.570 79.653,94.643 80.190,93.717 80.414 C 92.791 80.638,91.926 80.997,91.793 81.211 C 91.661 81.425,91.248 81.604,90.876 81.609 C 90.504 81.614,88.310 82.574,86.000 83.743 C 80.409 86.570,79.500 87.105,76.887 89.100 C 75.662 90.035,74.548 90.800,74.411 90.800 C 72.664 90.800,60.234 105.409,58.415 109.600 C 58.176 110.150,57.544 111.320,57.010 112.200 C 56.476 113.080,55.835 114.250,55.585 114.800 C 55.336 115.350,54.802 116.520,54.400 117.400 C 53.997 118.280,53.550 119.699,53.406 120.554 C 53.261 121.409,52.796 122.756,52.372 123.548 C 51.947 124.340,51.600 125.596,51.600 126.339 C 51.600 127.083,51.224 129.245,50.765 131.144 C 49.201 137.614,49.954 151.197,52.254 158.000 C 52.589 158.990,53.043 160.690,53.264 161.778 C 53.484 162.866,54.010 164.195,54.432 164.732 C 54.855 165.269,55.200 165.961,55.200 166.271 C 55.200 166.884,57.431 171.823,58.037 172.551 C 58.786 173.451,60.400 176.044,60.400 176.348 C 60.400 176.692,62.810 179.853,65.600 183.166 C 68.487 186.595,199.526 317.600,200.069 317.600 C 200.783 317.600,331.558 186.715,334.079 183.476 C 335.246 181.978,336.470 180.436,336.800 180.049 C 337.848 178.820,339.201 176.843,339.636 175.906 C 339.867 175.408,340.579 174.100,341.220 173.000 C 341.860 171.900,342.589 170.550,342.840 170.000 C 343.092 169.450,343.725 168.097,344.249 166.994 C 344.772 165.891,345.200 164.667,345.200 164.274 C 345.200 163.882,345.455 163.067,345.767 162.463 C 346.079 161.860,346.536 160.254,346.783 158.895 C 347.029 157.536,347.529 155.743,347.894 154.912 C 349.011 152.365,348.855 132.216,347.696 129.200 C 347.231 127.990,346.726 126.100,346.574 125.000 C 346.423 123.900,346.158 122.820,345.986 122.600 C 345.814 122.380,345.316 121.210,344.878 120.000 C 343.418 115.960,343.004 114.971,342.357 113.982 C 342.004 113.442,341.577 112.550,341.408 112.000 C 341.239 111.450,340.763 110.678,340.350 110.284 C 339.938 109.891,339.600 109.397,339.600 109.186 C 339.600 106.252,326.891 93.200,319.200 88.237 C 318.210 87.598,316.912 86.743,316.316 86.337 C 315.720 85.932,315.110 85.600,314.961 85.600 C 314.811 85.600,313.220 84.895,311.424 84.034 C 309.628 83.173,307.090 82.158,305.784 81.778 C 304.478 81.399,303.137 80.942,302.805 80.763 C 302.264 80.472,300.765 80.133,293.800 78.729 C 291.019 78.168,274.958 78.504,273.400 79.156 C 272.740 79.432,270.940 79.898,269.400 80.192 C 266.476 80.750,263.973 81.512,260.600 82.868 C 257.251 84.215,252.748 86.631,249.658 88.739 C 248.480 89.543,247.166 90.401,246.737 90.648 C 246.308 90.894,245.623 91.434,245.216 91.848 C 244.808 92.261,243.997 92.960,243.415 93.400 C 242.833 93.840,234.849 101.670,225.675 110.800 C 207.317 129.069,207.173 129.196,203.670 130.376 C 196.584 132.763,195.934 132.329,174.358 110.803 C 157.890 94.373,155.006 91.573,153.346 90.402 C 150.678 88.520,146.438 85.740,145.400 85.194 C 144.740 84.846,143.840 84.365,143.400 84.126 C 141.421 83.048,138.142 81.600,137.680 81.600 C 137.401 81.600,136.773 81.348,136.286 81.040 C 135.799 80.732,134.441 80.281,133.269 80.037 C 132.097 79.794,130.820 79.425,130.430 79.216 C 128.024 77.928,113.317 76.509,109.600 77.207 M122.586 78.457 C 125.439 78.698,128.139 79.129,128.586 79.416 C 129.034 79.703,130.300 80.059,131.400 80.208 C 132.500 80.356,134.037 80.797,134.816 81.188 C 135.595 81.580,136.855 82.032,137.616 82.194 C 138.377 82.356,139.270 82.716,139.600 82.994 C 139.930 83.272,140.872 83.715,141.694 83.979 C 142.516 84.242,143.294 84.628,143.422 84.835 C 143.550 85.043,144.227 85.473,144.927 85.792 C 146.604 86.556,151.108 89.418,151.600 90.031 C 151.710 90.168,152.246 90.516,152.792 90.803 C 154.042 91.463,153.729 91.160,174.970 112.277 C 189.973 127.192,192.971 129.996,194.161 130.219 C 194.937 130.365,195.780 130.735,196.035 131.042 C 196.665 131.801,202.708 131.815,203.811 131.060 C 204.245 130.763,205.050 130.410,205.600 130.276 C 207.185 129.891,207.607 129.498,225.647 111.600 C 243.527 93.861,245.710 91.790,247.570 90.800 C 249.267 89.896,250.961 88.681,251.320 88.110 C 251.496 87.829,251.955 87.600,252.340 87.600 C 252.725 87.600,253.211 87.430,253.420 87.222 C 254.058 86.586,258.925 84.155,260.198 83.836 C 260.857 83.671,261.648 83.325,261.956 83.068 C 262.265 82.811,263.346 82.391,264.359 82.135 C 265.371 81.879,266.920 81.392,267.800 81.053 C 268.680 80.713,269.978 80.427,270.685 80.418 C 271.391 80.408,273.513 80.040,275.400 79.600 C 279.783 78.578,289.621 78.472,293.234 79.409 C 294.526 79.744,296.936 80.189,298.590 80.399 C 300.244 80.608,302.003 81.041,302.499 81.360 C 302.994 81.680,304.120 82.071,305.000 82.229 C 305.880 82.388,307.227 82.851,307.994 83.259 C 308.761 83.666,309.682 84.000,310.040 84.000 C 310.399 84.000,311.150 84.360,311.709 84.800 C 312.269 85.240,312.978 85.600,313.285 85.600 C 313.593 85.600,314.455 86.050,315.200 86.600 C 315.945 87.150,316.692 87.600,316.860 87.600 C 317.200 87.600,319.126 88.825,322.347 91.090 C 325.062 92.999,335.600 103.432,335.600 104.211 C 335.600 104.531,335.960 105.018,336.400 105.293 C 336.840 105.568,337.200 105.995,337.200 106.242 C 337.200 106.490,337.599 107.199,338.087 107.819 C 339.146 109.166,339.847 110.417,341.777 114.400 C 342.577 116.050,343.494 117.910,343.815 118.532 C 344.137 119.155,344.404 119.965,344.409 120.332 C 344.414 120.700,344.790 121.810,345.244 122.800 C 345.699 123.790,346.232 125.590,346.429 126.800 C 346.625 128.010,347.062 129.990,347.398 131.200 C 348.775 136.147,348.536 150.736,347.008 155.000 C 346.693 155.880,346.427 157.195,346.418 157.922 C 346.408 158.649,346.060 159.999,345.645 160.922 C 345.230 161.845,344.759 163.230,344.599 164.000 C 344.439 164.770,344.070 165.850,343.781 166.400 C 343.491 166.950,342.594 168.750,341.789 170.400 C 339.793 174.488,338.987 175.931,338.237 176.759 C 337.887 177.146,337.600 177.648,337.600 177.873 C 337.600 178.099,337.195 178.751,336.700 179.323 C 335.820 180.340,335.342 180.937,332.790 184.200 C 332.102 185.080,330.833 186.482,329.970 187.315 C 329.106 188.148,328.400 189.003,328.400 189.215 C 328.400 189.427,328.260 189.600,328.089 189.600 C 327.645 189.600,321.200 195.991,321.200 196.432 C 321.200 196.635,320.999 196.800,320.754 196.800 C 320.261 196.800,317.600 199.566,317.600 200.078 C 317.600 200.255,317.416 200.400,317.191 200.400 C 316.707 200.400,312.400 204.771,312.400 205.262 C 312.400 205.448,312.257 205.600,312.082 205.600 C 311.625 205.600,301.600 215.566,301.600 216.020 C 301.600 216.229,301.424 216.400,301.209 216.400 C 300.993 216.400,299.823 217.394,298.609 218.609 C 297.394 219.823,296.400 220.993,296.400 221.209 C 296.400 221.424,296.236 221.600,296.035 221.600 C 295.559 221.600,285.600 231.559,285.600 232.035 C 285.600 232.236,285.424 232.400,285.209 232.400 C 284.993 232.400,283.823 233.394,282.609 234.609 C 281.394 235.823,280.400 236.993,280.400 237.209 C 280.400 237.424,280.236 237.600,280.035 237.600 C 279.559 237.600,269.600 247.559,269.600 248.035 C 269.600 248.236,269.424 248.400,269.209 248.400 C 268.993 248.400,267.823 249.394,266.609 250.609 C 265.394 251.823,264.400 252.993,264.400 253.209 C 264.400 253.424,264.236 253.600,264.035 253.600 C 263.559 253.600,253.600 263.559,253.600 264.035 C 253.600 264.236,253.416 264.400,253.191 264.400 C 252.707 264.400,248.400 268.771,248.400 269.262 C 248.400 269.448,248.260 269.600,248.089 269.600 C 247.645 269.600,241.200 275.991,241.200 276.432 C 241.200 276.635,240.999 276.800,240.754 276.800 C 240.261 276.800,237.600 279.566,237.600 280.078 C 237.600 280.255,237.416 280.400,237.191 280.400 C 236.707 280.400,232.400 284.771,232.400 285.262 C 232.400 285.448,232.260 285.600,232.089 285.600 C 231.645 285.600,225.200 291.991,225.200 292.432 C 225.200 292.635,224.999 292.800,224.754 292.800 C 224.261 292.800,221.600 295.566,221.600 296.078 C 221.600 296.255,221.416 296.400,221.191 296.400 C 220.707 296.400,216.400 300.771,216.400 301.262 C 216.400 301.448,216.260 301.600,216.089 301.600 C 215.645 301.600,209.200 307.991,209.200 308.432 C 209.200 308.635,208.999 308.800,208.754 308.800 C 208.261 308.800,205.600 311.566,205.600 312.078 C 205.600 312.255,205.424 312.400,205.209 312.400 C 204.993 312.400,203.827 313.390,202.617 314.600 C 201.407 315.810,200.233 316.800,200.009 316.800 C 199.502 316.800,69.213 186.505,67.000 183.786 C 66.120 182.704,64.727 181.095,63.905 180.210 C 63.083 179.324,62.408 178.375,62.405 178.100 C 62.402 177.825,62.219 177.600,61.997 177.600 C 61.775 177.600,61.305 176.880,60.953 176.000 C 60.601 175.120,60.155 174.400,59.962 174.400 C 59.769 174.400,59.348 173.770,59.026 173.000 C 58.704 172.230,58.266 171.600,58.052 171.600 C 57.838 171.600,57.542 171.015,57.393 170.300 C 57.244 169.585,56.809 168.455,56.427 167.788 C 56.044 167.122,55.597 166.042,55.434 165.388 C 55.271 164.735,54.876 163.910,54.557 163.555 C 54.237 163.201,53.808 161.877,53.602 160.613 C 53.397 159.350,53.047 158.098,52.825 157.830 C 52.604 157.563,52.220 156.007,51.973 154.372 C 51.725 152.738,51.270 150.283,50.961 148.918 C 50.215 145.620,50.216 136.392,50.962 133.773 C 51.271 132.688,51.737 130.273,51.997 128.408 C 52.258 126.542,52.648 124.684,52.865 124.279 C 53.081 123.874,53.522 122.531,53.844 121.294 C 54.166 120.058,54.582 118.856,54.769 118.623 C 54.955 118.390,55.231 117.623,55.381 116.919 C 55.532 116.214,55.978 115.224,56.373 114.719 C 56.767 114.213,57.228 113.358,57.398 112.819 C 57.567 112.279,57.952 111.591,58.252 111.291 C 58.553 110.990,58.917 110.262,59.062 109.672 C 59.206 109.082,59.665 108.150,60.081 107.600 C 63.452 103.143,64.400 101.825,64.400 101.595 C 64.400 100.035,77.741 88.638,82.088 86.484 C 83.690 85.691,85.057 84.907,85.126 84.743 C 85.195 84.579,85.915 84.232,86.726 83.972 C 87.537 83.712,88.470 83.272,88.800 82.994 C 89.130 82.716,90.030 82.355,90.800 82.191 C 91.570 82.027,92.827 81.557,93.594 81.147 C 94.361 80.736,95.484 80.400,96.090 80.400 C 96.696 80.400,98.138 80.038,99.296 79.595 C 100.769 79.032,103.198 78.663,107.397 78.365 C 110.696 78.131,113.486 77.845,113.597 77.731 C 113.709 77.617,114.610 77.635,115.600 77.771 C 116.590 77.908,119.734 78.216,122.586 78.457 M37.200 101.238 C 37.200 101.479,36.862 102.154,36.450 102.738 C 36.037 103.322,35.573 104.385,35.418 105.100 C 35.263 105.815,34.978 106.400,34.784 106.400 C 34.590 106.400,34.157 107.323,33.822 108.451 C 33.487 109.580,33.049 110.705,32.849 110.951 C 32.649 111.198,32.172 112.530,31.787 113.911 C 31.403 115.292,30.934 116.517,30.744 116.634 C 30.555 116.751,30.406 117.242,30.413 117.724 C 30.430 118.941,32.391 114.910,32.396 113.647 C 32.398 113.123,32.745 112.133,33.166 111.447 C 33.588 110.761,34.056 109.537,34.206 108.728 C 34.356 107.918,34.721 107.162,35.017 107.049 C 35.313 106.935,35.675 106.208,35.820 105.434 C 35.965 104.659,36.425 103.632,36.842 103.151 C 37.527 102.362,37.897 100.800,37.400 100.800 C 37.290 100.800,37.200 100.997,37.200 101.238 M30.070 119.614 C 30.031 120.171,29.640 121.652,29.200 122.904 C 28.760 124.156,28.397 125.950,28.394 126.890 C 28.390 127.831,28.109 129.680,27.769 131.000 C 26.669 135.271,26.531 147.864,27.522 153.502 C 27.977 156.086,28.518 159.190,28.726 160.400 C 29.284 163.651,30.389 167.999,31.078 169.658 C 31.411 170.461,31.827 171.721,32.001 172.458 L 32.318 173.800 32.359 172.394 C 32.382 171.621,32.029 170.296,31.576 169.451 C 31.123 168.605,30.648 166.988,30.520 165.857 C 30.392 164.726,30.039 163.305,29.734 162.700 C 29.429 162.095,28.999 159.665,28.778 157.300 C 28.557 154.935,28.092 152.248,27.745 151.330 C 26.987 149.324,27.091 134.794,27.874 133.398 C 28.121 132.957,28.529 130.532,28.782 128.008 C 29.080 125.022,29.452 123.185,29.845 122.750 C 30.253 122.300,30.399 121.514,30.295 120.341 C 30.210 119.383,30.108 119.056,30.070 119.614 M371.618 120.851 C 371.608 121.649,371.859 122.517,372.176 122.780 C 372.493 123.043,372.829 123.560,372.923 123.929 C 373.017 124.298,373.045 124.150,372.985 123.600 C 372.925 123.050,372.596 121.880,372.255 121.000 L 371.635 119.400 371.618 120.851 M373.453 131.200 C 373.555 134.390,373.835 137.933,374.076 139.072 C 374.396 140.584,374.394 141.775,374.069 143.472 C 373.823 144.753,373.542 148.410,373.444 151.600 C 373.252 157.827,373.459 156.755,374.431 146.500 C 374.833 142.254,374.833 140.146,374.433 135.900 C 373.515 126.172,373.254 124.924,373.453 131.200 M372.846 158.651 C 372.821 159.119,372.547 159.712,372.237 159.969 C 371.928 160.226,371.549 161.553,371.395 162.918 C 371.242 164.283,370.775 165.961,370.358 166.647 C 369.941 167.333,369.600 168.416,369.600 169.053 C 369.600 169.690,369.264 170.839,368.853 171.606 C 368.443 172.373,367.969 173.630,367.801 174.400 C 367.633 175.170,367.159 176.229,366.748 176.754 C 366.337 177.279,366.000 178.019,366.000 178.400 C 366.000 178.781,365.640 179.550,365.200 180.109 C 364.760 180.669,364.400 181.378,364.400 181.685 C 364.400 181.993,363.950 182.855,363.400 183.600 C 362.850 184.345,362.400 185.286,362.400 185.690 C 362.400 186.094,362.146 186.522,361.837 186.641 C 361.527 186.760,361.042 187.430,360.760 188.129 C 360.478 188.828,360.011 189.544,359.723 189.720 C 359.436 189.896,359.200 190.279,359.200 190.571 C 359.200 190.863,358.906 191.346,358.546 191.645 C 357.979 192.115,356.865 193.638,355.392 195.957 C 354.327 197.633,347.130 204.903,279.013 273.111 C 236.994 315.186,205.777 346.144,205.200 346.311 C 204.650 346.470,202.119 346.600,199.575 346.600 L 194.949 346.600 192.975 344.926 C 190.855 343.128,50.898 203.000,48.162 199.936 C 47.261 198.927,46.412 197.808,46.275 197.451 C 46.137 197.093,45.839 196.800,45.613 196.800 C 45.386 196.800,45.200 196.575,45.200 196.300 C 45.199 196.025,44.749 195.277,44.200 194.638 C 43.650 193.999,43.200 193.369,43.200 193.238 C 43.199 193.107,42.749 192.477,42.200 191.838 C 41.650 191.199,41.200 190.456,41.200 190.187 C 41.200 189.918,40.915 189.462,40.567 189.173 C 40.219 188.884,39.634 188.072,39.267 187.368 C 37.175 183.355,35.600 180.065,35.600 179.707 C 35.600 179.482,35.350 179.090,35.044 178.837 C 34.739 178.583,34.293 177.596,34.053 176.644 C 33.813 175.691,33.314 174.662,32.943 174.356 C 32.573 174.050,32.350 173.980,32.448 174.200 C 32.546 174.420,32.857 175.140,33.141 175.800 C 33.424 176.460,34.093 177.855,34.628 178.900 C 35.163 179.945,35.600 181.132,35.600 181.538 C 35.600 181.944,35.944 182.587,36.364 182.967 C 36.784 183.348,37.248 184.141,37.395 184.729 C 37.542 185.318,37.882 186.070,38.151 186.400 C 38.420 186.730,39.339 188.170,40.193 189.600 C 41.047 191.030,41.849 192.290,41.974 192.400 C 42.100 192.510,42.735 193.410,43.387 194.400 C 46.504 199.139,54.978 207.815,121.783 274.667 C 175.367 328.289,193.702 346.405,194.600 346.614 C 195.260 346.768,196.682 347.172,197.759 347.512 C 200.644 348.423,204.896 347.329,207.766 344.938 C 209.774 343.265,349.271 203.680,352.020 200.594 C 353.959 198.416,357.188 194.375,358.400 192.609 C 358.950 191.808,359.604 190.927,359.854 190.651 C 360.103 190.375,360.695 189.441,361.169 188.575 C 361.642 187.709,362.449 186.280,362.962 185.400 C 364.890 182.093,368.400 174.785,368.400 174.080 C 368.400 173.801,368.652 173.173,368.961 172.686 C 369.269 172.199,369.650 171.170,369.806 170.400 C 369.963 169.630,370.407 168.280,370.794 167.400 C 371.181 166.520,371.620 164.827,371.771 163.637 C 371.921 162.448,372.315 160.951,372.646 160.311 C 372.977 159.670,373.168 158.843,373.071 158.473 C 372.938 157.971,372.881 158.016,372.846 158.651 " stroke="none" fill="#ac7c7c" fill-rule="evenodd"></path></g></svg>