<?xml version="1.0" encoding="UTF-8"?><svg xmlns="http://www.w3.org/2000/svg" viewBox="0 0 1364.34 1672.24"><defs><style>.cls-1{opacity:.1;}.cls-1,.cls-2,.cls-3,.cls-4,.cls-5,.cls-6,.cls-7,.cls-8,.cls-9,.cls-10,.cls-11,.cls-12,.cls-13,.cls-14,.cls-15,.cls-16,.cls-17,.cls-18,.cls-19,.cls-20,.cls-21,.cls-22,.cls-23,.cls-24,.cls-25,.cls-26,.cls-27,.cls-28,.cls-29,.cls-30,.cls-31,.cls-32,.cls-33,.cls-34,.cls-35,.cls-36,.cls-37,.cls-38,.cls-39,.cls-40,.cls-41,.cls-42,.cls-43,.cls-44,.cls-45,.cls-46,.cls-47,.cls-48,.cls-49,.cls-50,.cls-51,.cls-52,.cls-53,.cls-54,.cls-55,.cls-56,.cls-57,.cls-58,.cls-59,.cls-60,.cls-61,.cls-62,.cls-63,.cls-64,.cls-65,.cls-66,.cls-67,.cls-68,.cls-69,.cls-70,.cls-71,.cls-72,.cls-73,.cls-74,.cls-75,.cls-76,.cls-77,.cls-78,.cls-79,.cls-80,.cls-81,.cls-82,.cls-83,.cls-84,.cls-85,.cls-86,.cls-87,.cls-88,.cls-89,.cls-90,.cls-91,.cls-92,.cls-93,.cls-94,.cls-95,.cls-96,.cls-97,.cls-98,.cls-99,.cls-100,.cls-101,.cls-102,.cls-103,.cls-104,.cls-105,.cls-106,.cls-107,.cls-108,.cls-109,.cls-110,.cls-111,.cls-112,.cls-113,.cls-114,.cls-115,.cls-116,.cls-117,.cls-118,.cls-119,.cls-120,.cls-121,.cls-122,.cls-123,.cls-124,.cls-125,.cls-126,.cls-127,.cls-128,.cls-129,.cls-130,.cls-131,.cls-132,.cls-133,.cls-134,.cls-135,.cls-136,.cls-137,.cls-138,.cls-139,.cls-140,.cls-141,.cls-142,.cls-143,.cls-144,.cls-145,.cls-146,.cls-147,.cls-148,.cls-149,.cls-150,.cls-151,.cls-152,.cls-153,.cls-154,.cls-155,.cls-156,.cls-157,.cls-158,.cls-159,.cls-160,.cls-161,.cls-162,.cls-163,.cls-164,.cls-165,.cls-166,.cls-167,.cls-168,.cls-169,.cls-170,.cls-171,.cls-172,.cls-173,.cls-174,.cls-175,.cls-176,.cls-177,.cls-178,.cls-179,.cls-180,.cls-181,.cls-182,.cls-183,.cls-184,.cls-185,.cls-186,.cls-187,.cls-188,.cls-189,.cls-190,.cls-191,.cls-192,.cls-193,.cls-194,.cls-195,.cls-196,.cls-197,.cls-198,.cls-199,.cls-200,.cls-201,.cls-202,.cls-203,.cls-204,.cls-205,.cls-206,.cls-207,.cls-208,.cls-209,.cls-210,.cls-211,.cls-212,.cls-213,.cls-214,.cls-215,.cls-216,.cls-217,.cls-218,.cls-219,.cls-220,.cls-221,.cls-222,.cls-223,.cls-224,.cls-225,.cls-226,.cls-227,.cls-228,.cls-229,.cls-230,.cls-231,.cls-232,.cls-233,.cls-234,.cls-235,.cls-236,.cls-237,.cls-238,.cls-239,.cls-240,.cls-241,.cls-242,.cls-243,.cls-244,.cls-245,.cls-246,.cls-247,.cls-248,.cls-249,.cls-250,.cls-251,.cls-252,.cls-253,.cls-254,.cls-255,.cls-256,.cls-257,.cls-258,.cls-259,.cls-260,.cls-261,.cls-262{stroke-width:0px;}.cls-263{isolation:isolate;}.cls-264{mix-blend-mode:multiply;opacity:.6;}.cls-2{fill:#f3f8fc;}.cls-3{fill:#f2f8fc;}.cls-4{fill:#f7fbfd;}.cls-5{fill:#f6fafd;}.cls-6{fill:#f8fbfd;}.cls-7{fill:#f9fcfd;}.cls-8{fill:#4b9bd0;}.cls-9{fill:#60a6d5;}.cls-10{fill:#4899cf;}.cls-11{fill:#529fd2;}.cls-12{fill:#5ea5d5;}.cls-13{fill:#5da5d4;}.cls-14{fill:#76b3db;}.cls-15{fill:#539fd2;}.cls-16{fill:#82b9de;}.cls-17{fill:#74b2da;}.cls-18{fill:#75b2db;}.cls-19{fill:#4a9acf;}.cls-20{fill:#5ca4d4;}.cls-21{fill:#78b4dc;}.cls-22{fill:#79b4dc;}.cls-23{fill:#4698ce;}.cls-24{fill:#519ed1;}.cls-25{fill:#77b3db;}.cls-26{fill:#5fa6d5;}.cls-27{fill:#71b0da;}.cls-28{fill:#7bb5dc;}.cls-29{fill:#4c9bd0;}.cls-30{fill:#4f9dd1;}.cls-31{fill:#4e9cd0;}.cls-32{fill:#509ed1;}.cls-33{fill:#2686c6;}.cls-34{fill:#7ab5dc;}.cls-35{fill:#4d9cd0;}.cls-36{fill:#2b89c7;}.cls-37{fill:#4799cf;}.cls-38{fill:#2887c7;}.cls-39{fill:#499acf;}.cls-40{fill:#5ba4d4;}.cls-41{fill:#2c8ac8;}.cls-42{fill:#55a0d2;}.cls-43{fill:#2a88c7;}.cls-44{fill:#2988c7;}.cls-45{fill:#58a2d3;}.cls-46{fill:#2787c6;}.cls-47{fill:#59a3d3;}.cls-48{fill:#5aa3d4;}.cls-49{fill:#61a7d5;}.cls-50{fill:#62a8d6;}.cls-51{fill:#63a8d6;}.cls-52{fill:#54a0d2;}.cls-53{fill:#99c6e4;}.cls-54{fill:#6daed9;}.cls-55{fill:#6cadd8;}.cls-56{fill:#87bcdf;}.cls-57{fill:#88bde0;}.cls-58{fill:#4597ce;}.cls-59{fill:#85bbdf;}.cls-60{fill:#86bcdf;}.cls-61{fill:#95c4e3;}.cls-62{fill:#94deff;}.cls-63{fill:#4497ce;}.cls-64{fill:#94c3e3;}.cls-65{fill:#6eaed9;}.cls-66{fill:#70afd9;}.cls-67{fill:#a1cbe6;}.cls-68{fill:#6fafd9;}.cls-69{fill:#9ac7e4;}.cls-70{fill:#a2cbe7;}.cls-71{fill:#93c3e3;}.cls-72{fill:#2e8bc8;}.cls-73{fill:#2d8ac8;}.cls-74{fill:#3890cb;}.cls-75{fill:#308cc9;}.cls-76{fill:#3790ca;}.cls-77{fill:#328dc9;}.cls-78{fill:#3a91cb;}.cls-79{fill:#3991cb;}.cls-80{fill:#338dc9;}.cls-81{fill:#2586c6;}.cls-82{fill:#56a1d3;}.cls-83{fill:#57a1d3;}.cls-84{fill:#81b9de;}.cls-85{fill:#3b92cc;}.cls-86{fill:#17dd32;}.cls-87{fill:#1b80c3;}.cls-88{fill:#3d93cc;}.cls-89{fill:#193544;}.cls-90{fill:#197fc3;}.cls-91{fill:#1a7fc3;}.cls-92{fill:#3c92cc;}.cls-93{fill:#0c78bf;}.cls-94{fill:#0b77bf;}.cls-95{fill:#3e94cc;}.cls-96{fill:#358fca;}.cls-97{fill:#368fca;}.cls-98{fill:#348eca;}.cls-99{fill:#0a77bf;}.cls-100{fill:#4396ce;}.cls-101{fill:#0f79c0;}.cls-102{fill:#187ec2;}.cls-103{fill:#0976be;}.cls-104{fill:#1c81c3;}.cls-105{fill:#0d78bf;}.cls-106{fill:#0e79c0;}.cls-107{fill:#0674be;}.cls-108{fill:#0574bd;}.cls-109{fill:#107ac0;}.cls-110{fill:#4095cd;}.cls-111{fill:#3f94cd;}.cls-112{fill:#147cc1;}.cls-113{fill:#4296cd;}.cls-114{fill:#4195cd;}.cls-115{fill:#0875be;}.cls-116{fill:#0775be;}.cls-117{fill:#2183c5;}.cls-118{fill:#2083c4;}.cls-119{fill:#2384c5;}.cls-120{fill:#2284c5;}.cls-121{fill:#a7cee8;}.cls-122{fill:#1f82c4;}.cls-123{fill:#1e82c4;}.cls-124{fill:#1d81c4;}.cls-125{fill:#127bc1;}.cls-126{fill:#117ac0;}.cls-127{fill:#177ec2;}.cls-128{fill:#167dc2;}.cls-129{fill:#157dc2;}.cls-130{fill:#2485c5;}.cls-131{fill:#137cc1;}.cls-132{fill:#1294dd;}.cls-133{fill:#c3deef;}.cls-134{fill:#d0e5f3;}.cls-135{fill:#d1e5f3;}.cls-136{fill:#c8e0f1;}.cls-137{fill:#dcecf6;}.cls-138{fill:#ddecf6;}.cls-139{fill:#cfe4f2;}.cls-140{fill:#c9e1f1;}.cls-141{fill:#c6dff0;}.cls-142{fill:#cbe2f1;}.cls-143{fill:#cce3f2;}.cls-144{fill:#c4deef;}.cls-145{fill:#d8e9f5;}.cls-146{fill:#dfedf7;}.cls-147{fill:#cae1f1;}.cls-148{fill:#aed2ea;}.cls-149{fill:#d3e6f3;}.cls-150{fill:#c5dff0;}.cls-151{fill:#e1eef7;}.cls-152{fill:#e0eef7;}.cls-153{fill:#c7e0f0;}.cls-154{fill:#d5e8f4;}.cls-155{fill:#afd2ea;}.cls-156{fill:#deedf6;}.cls-157{fill:#abd0e9;}.cls-158{fill:#d4e7f4;}.cls-159{fill:#dbebf6;}.cls-160{fill:#daeaf5;}.cls-161{fill:#d2e6f3;}.cls-162{fill:#d9eaf5;}.cls-163{fill:#bbd9ed;}.cls-164{fill:#bcdaed;}.cls-165{fill:#d6e8f4;}.cls-166{fill:#bddaee;}.cls-167{fill:#c0dcee;}.cls-168{fill:#a6cde8;}.cls-169{fill:#a3cce7;}.cls-170{fill:#acd1e9;}.cls-171{fill:#d7e9f4;}.cls-172{fill:#b1d4eb;}.cls-173{fill:#a4cce7;}.cls-174{fill:#add1e9;}.cls-175{fill:#b0d3ea;}.cls-176{fill:#a9cfe8;}.cls-177{fill:#bfdbee;}.cls-178{fill:#bedbee;}.cls-179{fill:#a5cde7;}.cls-180{fill:#a6dfff;}.cls-181{fill:#a8cfe8;}.cls-182{fill:#aad0e9;}.cls-183{fill:#b2d4eb;}.cls-184{fill:#cee4f2;}.cls-185{fill:#cde3f2;}.cls-186{fill:#92c2e2;}.cls-187{fill:#b7d7ec;}.cls-188{fill:#b4d5eb;}.cls-189{fill:#89bde0;}.cls-190{fill:#b8d7ec;}.cls-191{fill:#9bc7e5;}.cls-192{fill:#9cc8e5;}.cls-193{fill:#a0cae6;}.cls-194{fill:#8fc1e2;}.cls-195{fill:#90c1e2;}.cls-196{fill:#c2ddef;}.cls-197{fill:#8ec0e1;}.cls-198{fill:#b3d5eb;}.cls-199{fill:#c1dcef;}.cls-200{fill:#b5d6ec;}.cls-201{fill:#b6d6ec;}.cls-202{fill:#72b0da;}.cls-203{fill:#65a9d7;}.cls-204{fill:#318cc9;}.cls-205{fill:#bad9ed;}.cls-206{fill:#2f8bc8;}.cls-207{fill:#8cbfe1;}.cls-208{fill:#8dc0e1;}.cls-209{fill:#b9d8ed;}.cls-210{fill:#8bbee1;}.cls-211{fill:#98c6e4;}.cls-212{fill:#96c5e3;}.cls-213{fill:#6badd8;}.cls-214{fill:#97c5e4;}.cls-215{fill:#7cb6dd;}.cls-216{fill:#9ec9e6;}.cls-217{fill:#8abee0;}.cls-218{fill:#91c2e2;}.cls-219{fill:#9dc8e5;}.cls-220{fill:#9fcae6;}.cls-221{fill:#83bade;}.cls-222{fill:#84bbdf;}.cls-223{fill:#fdfefe;}.cls-224{fill:#7db7dd;}.cls-225{fill:#6aacd8;}.cls-226{fill:#7fb8dd;}.cls-227{fill:#80b8de;}.cls-228{fill:#64a9d6;}.cls-229{fill:#73b1da;}.cls-230{fill:#7eb7dd;}.cls-231{fill:#f1f7fb;}.cls-232{fill:#fff;}.cls-233{fill:#e3eff8;}.cls-234{fill:#edf5fa;}.cls-235{fill:#e8f2f9;}.cls-236{fill:#eef6fb;}.cls-237{fill:#e4f0f8;}.cls-238{fill:#eff6fb;}.cls-239{fill:#e2eff7;}.cls-240{fill:#e5f1f8;}.cls-241{fill:#ecf4fa;}.cls-242{fill:#fbfdfe;}.cls-243{fill:#fefeff;}.cls-244{fill:#eaf3f9;}.cls-245{fill:#ebf4fa;}.cls-246{fill:#f0f7fb;}.cls-247{fill:#fcfdfe;}.cls-248{fill:#fafcfe;}.cls-249{fill:#e7f2f9;}.cls-250{fill:#e9f3f9;}.cls-251{fill:#f4f9fc;}.cls-252{fill:#f5f9fc;}.cls-253{fill:#e6f1f8;}.cls-254{fill:#0473bd;}.cls-255{fill:#0172bc;}.cls-256{fill:#0272bd;}.cls-257{fill:#0373bd;}.cls-258{fill:#67aad7;}.cls-259{fill:#68abd7;}.cls-260{fill:#66aad7;}.cls-261{fill:#69abd8;}.cls-262{fill:#0071bc;}</style></defs><g class="cls-263"><g id="Layer_2"><g id="Layer_1-2"><circle class="cls-180" cx="682.17" cy="682.17" r="682.17"/><path class="cls-89" d="m987.27,418.63c-16.12-22.75-38.4-39.88-64.45-49.55-15.26-5.66-31.34-8.54-47.78-8.54h-386.46c-75.78,0-137.45,61.66-137.45,137.45v849c0,75.78,61.66,137.45,137.45,137.45h386.46c75.78,0,137.44-61.66,137.44-137.45V497.99c0-28.63-8.72-56.07-25.21-79.36Zm-18.28,928.36c0,51.8-42.14,93.94-93.94,93.94h-386.46c-51.8,0-93.95-42.14-93.95-93.94V497.99c0-51.8,42.15-93.95,93.95-93.95h386.46c11.26,0,22.24,1.96,32.64,5.81,36.67,13.6,61.3,49.03,61.3,88.14v849Z"/><path class="cls-232" d="m968.99,497.99v849c0,51.8-42.14,93.94-93.94,93.94h-386.46c-51.8,0-93.95-42.14-93.95-93.94V497.99c0-51.8,42.15-93.95,93.95-93.95h386.46c11.26,0,22.24,1.96,32.64,5.81,36.67,13.6,61.3,49.03,61.3,88.14Z"/><path class="cls-89" d="m1022.55,532.33v130.3c0,5.16-4.19,9.35-9.36,9.35-.23,0-.47-.01-.69-.03-4.84-.35-8.66-4.39-8.66-9.32v-130.3c0-4.93,3.82-8.97,8.66-9.32.23-.02.47-.03.69-.03,2.59,0,4.92,1.04,6.62,2.74,1.7,1.69,2.74,4.02,2.74,6.61Z"/><path class="cls-89" d="m351.15,671.98h0c-5.17,0-9.36-4.19-9.36-9.36v-130.29c0-5.17,4.19-9.36,9.36-9.36h0c5.17,0,9.36,4.19,9.36,9.36v130.29c0,5.17-4.19,9.36-9.36,9.36Z"/><path class="cls-89" d="m351.15,846.93h0c-5.17,0-9.36-4.19-9.36-9.36v-130.29c0-5.17,4.19-9.36,9.36-9.36h0c5.17,0,9.36,4.19,9.36,9.36v130.29c0,5.17-4.19,9.36-9.36,9.36Z"/><path class="cls-89" d="m732.72,471.16h-101.1c-12.37,0-22.41-10.03-22.41-22.41h0c0-12.37,10.03-22.41,22.41-22.41h101.1c12.37,0,22.41,10.03,22.41,22.41h0c0,12.37-10.03,22.41-22.41,22.41Z"/><g class="cls-264"><rect class="cls-232" x="68.32" y="537.46" width="744.21" height="870.52" rx="148.71" ry="148.71"/><rect class="cls-243" x="68.71" y="537.87" width="743.44" height="869.71" rx="148.53" ry="148.53"/><path class="cls-223" d="m217.44,538.27h445.97c81.88,0,148.35,66.47,148.35,148.35v572.19c0,81.88-66.47,148.35-148.35,148.35H217.44c-81.88,0-148.35-66.47-148.35-148.35v-572.2c0-81.88,66.47-148.35,148.35-148.35Z"/><rect class="cls-247" x="69.48" y="538.68" width="741.9" height="868.09" rx="148.17" ry="148.17"/><rect class="cls-242" x="69.86" y="539.08" width="741.13" height="867.28" rx="147.99" ry="147.99"/><rect class="cls-248" x="70.25" y="539.49" width="740.36" height="866.47" rx="147.81" ry="147.81"/><path class="cls-7" d="m218.26,539.89h444.33c81.48,0,147.63,66.15,147.63,147.63v570.4c0,81.48-66.15,147.63-147.63,147.63H218.26c-81.48,0-147.63-66.15-147.63-147.63v-570.4c0-81.48,66.15-147.63,147.63-147.63Z"/><rect class="cls-6" x="71.01" y="540.3" width="738.82" height="864.85" rx="147.45" ry="147.45"/><rect class="cls-4" x="71.4" y="540.7" width="738.06" height="864.04" rx="147.27" ry="147.27"/><rect class="cls-5" x="71.78" y="541.11" width="737.29" height="863.23" rx="147.09" ry="147.09"/><rect class="cls-252" x="72.17" y="541.51" width="736.52" height="862.42" rx="146.91" ry="146.91"/><rect class="cls-251" x="72.55" y="541.91" width="735.75" height="861.62" rx="146.73" ry="146.73"/><rect class="cls-2" x="72.94" y="542.32" width="734.98" height="860.81" rx="146.55" ry="146.55"/><rect class="cls-3" x="73.32" y="542.72" width="734.21" height="860" rx="146.37" ry="146.37"/><rect class="cls-231" x="73.71" y="543.13" width="733.44" height="859.19" rx="146.19" ry="146.19"/><rect class="cls-246" x="74.09" y="543.53" width="732.67" height="858.38" rx="146.01" ry="146.01"/><rect class="cls-238" x="74.47" y="543.94" width="731.9" height="857.57" rx="145.84" ry="145.84"/><rect class="cls-236" x="74.86" y="544.34" width="731.14" height="856.76" rx="145.66" ry="145.66"/><rect class="cls-234" x="75.24" y="544.75" width="730.37" height="855.95" rx="145.48" ry="145.48"/><rect class="cls-241" x="75.63" y="545.15" width="729.6" height="855.14" rx="145.3" ry="145.3"/><rect class="cls-245" x="76.01" y="545.56" width="728.83" height="854.33" rx="145.12" ry="145.12"/><path class="cls-244" d="m221.33,545.96h438.19c79.99,0,144.94,64.94,144.94,144.94v563.65c0,79.99-64.94,144.94-144.94,144.94H221.33c-79.99,0-144.94-64.94-144.94-144.94v-563.65c0-79.99,64.94-144.94,144.94-144.94Z"/><rect class="cls-250" x="76.78" y="546.36" width="727.29" height="852.71" rx="144.76" ry="144.76"/><rect class="cls-235" x="77.17" y="546.77" width="726.52" height="851.91" rx="144.58" ry="144.58"/><rect class="cls-249" x="77.55" y="547.17" width="725.75" height="851.1" rx="144.4" ry="144.4"/><path class="cls-253" d="m222.15,547.58h436.55c79.6,0,144.22,64.62,144.22,144.22v561.85c0,79.6-64.62,144.22-144.22,144.22H222.15c-79.6,0-144.22-64.62-144.22-144.22v-561.85c0-79.6,64.62-144.22,144.22-144.22Z"/><rect class="cls-240" x="78.32" y="547.98" width="724.21" height="849.48" rx="144.04" ry="144.04"/><rect class="cls-237" x="78.7" y="548.39" width="723.45" height="848.67" rx="143.86" ry="143.86"/><rect class="cls-233" x="79.09" y="548.79" width="722.68" height="847.86" rx="143.68" ry="143.68"/><rect class="cls-239" x="79.47" y="549.2" width="721.91" height="847.05" rx="143.5" ry="143.5"/><rect class="cls-151" x="79.86" y="549.6" width="721.14" height="846.24" rx="143.32" ry="143.32"/><rect class="cls-152" x="80.24" y="550.01" width="720.37" height="845.43" rx="143.14" ry="143.14"/><rect class="cls-146" x="80.63" y="550.41" width="719.6" height="844.62" rx="142.96" ry="142.96"/><rect class="cls-156" x="81.01" y="550.82" width="718.83" height="843.81" rx="142.78" ry="142.78"/><rect class="cls-138" x="81.4" y="551.22" width="718.06" height="843" rx="142.6" ry="142.6"/><rect class="cls-137" x="81.78" y="551.62" width="717.29" height="842.2" rx="142.42" ry="142.42"/><rect class="cls-159" x="82.16" y="552.03" width="716.53" height="841.39" rx="142.24" ry="142.24"/><rect class="cls-160" x="82.55" y="552.43" width="715.76" height="840.58" rx="142.06" ry="142.06"/><rect class="cls-162" x="82.93" y="552.84" width="714.99" height="839.77" rx="141.88" ry="141.88"/><rect class="cls-145" x="83.32" y="553.24" width="714.22" height="838.96" rx="141.7" ry="141.7"/><path class="cls-171" d="m225.22,553.65h430.41c78.11,0,141.52,63.41,141.52,141.52v555.11c0,78.11-63.41,141.52-141.52,141.52H225.22c-78.11,0-141.52-63.41-141.52-141.52v-555.11c0-78.11,63.41-141.52,141.52-141.52Z"/><rect class="cls-165" x="84.09" y="554.05" width="712.68" height="837.34" rx="141.34" ry="141.34"/><rect class="cls-154" x="84.47" y="554.46" width="711.91" height="836.53" rx="141.16" ry="141.16"/><rect class="cls-158" x="84.86" y="554.86" width="711.14" height="835.72" rx="140.98" ry="140.98"/><rect class="cls-149" x="85.24" y="555.27" width="710.37" height="834.91" rx="140.8" ry="140.8"/><rect class="cls-161" x="85.62" y="555.67" width="709.6" height="834.1" rx="140.62" ry="140.62"/><rect class="cls-135" x="86.01" y="556.07" width="708.84" height="833.29" rx="140.44" ry="140.44"/><rect class="cls-134" x="86.39" y="556.48" width="708.07" height="832.49" rx="140.26" ry="140.26"/><rect class="cls-139" x="86.78" y="556.88" width="707.3" height="831.68" rx="140.08" ry="140.08"/><rect class="cls-184" x="87.16" y="557.29" width="706.53" height="830.87" rx="139.9" ry="139.9"/><rect class="cls-185" x="87.55" y="557.69" width="705.76" height="830.06" rx="139.72" ry="139.72"/><rect class="cls-143" x="87.93" y="558.1" width="704.99" height="829.25" rx="139.54" ry="139.54"/><rect class="cls-142" x="88.32" y="558.5" width="704.22" height="828.44" rx="139.36" ry="139.36"/><rect class="cls-147" x="88.7" y="558.91" width="703.45" height="827.63" rx="139.18" ry="139.18"/><rect class="cls-140" x="89.09" y="559.31" width="702.68" height="826.82" rx="139.01" ry="139.01"/><rect class="cls-136" x="89.47" y="559.72" width="701.91" height="826.01" rx="138.83" ry="138.83"/><rect class="cls-153" x="89.85" y="560.12" width="701.15" height="825.2" rx="138.65" ry="138.65"/><rect class="cls-141" x="90.24" y="560.53" width="700.38" height="824.39" rx="138.47" ry="138.47"/><rect class="cls-150" x="90.62" y="560.93" width="699.61" height="823.58" rx="138.29" ry="138.29"/><path class="cls-144" d="m229.11,561.33h422.63c76.22,0,138.11,61.88,138.11,138.11v546.56c0,76.22-61.88,138.11-138.11,138.11H229.11c-76.22,0-138.11-61.88-138.11-138.11v-546.56c0-76.22,61.88-138.11,138.11-138.11Z"/><rect class="cls-133" x="91.39" y="561.74" width="698.07" height="821.97" rx="137.93" ry="137.93"/><rect class="cls-196" x="91.78" y="562.14" width="697.3" height="821.16" rx="137.75" ry="137.75"/><rect class="cls-199" x="92.16" y="562.55" width="696.53" height="820.35" rx="137.57" ry="137.57"/><rect class="cls-167" x="92.55" y="562.95" width="695.76" height="819.54" rx="137.39" ry="137.39"/><rect class="cls-177" x="92.93" y="563.36" width="694.99" height="818.73" rx="137.21" ry="137.21"/><rect class="cls-178" x="93.31" y="563.76" width="694.23" height="817.92" rx="137.03" ry="137.03"/><rect class="cls-166" x="93.7" y="564.17" width="693.46" height="817.11" rx="136.85" ry="136.85"/><rect class="cls-164" x="94.08" y="564.57" width="692.69" height="816.3" rx="136.67" ry="136.67"/><rect class="cls-163" x="94.47" y="564.98" width="691.92" height="815.49" rx="136.49" ry="136.49"/><rect class="cls-205" x="94.85" y="565.38" width="691.15" height="814.68" rx="136.31" ry="136.31"/><rect class="cls-209" x="95.24" y="565.78" width="690.38" height="813.87" rx="136.13" ry="136.13"/><rect class="cls-190" x="95.62" y="566.19" width="689.61" height="813.07" rx="135.95" ry="135.95"/><rect class="cls-187" x="96.01" y="566.59" width="688.84" height="812.26" rx="135.77" ry="135.77"/><rect class="cls-201" x="96.39" y="567" width="688.07" height="811.45" rx="135.59" ry="135.59"/><rect class="cls-200" x="96.77" y="567.4" width="687.3" height="810.64" rx="135.41" ry="135.41"/><rect class="cls-188" x="97.16" y="567.81" width="686.54" height="809.83" rx="135.23" ry="135.23"/><rect class="cls-198" x="97.54" y="568.21" width="685.77" height="809.02" rx="135.05" ry="135.05"/><rect class="cls-183" x="97.93" y="568.62" width="685" height="808.21" rx="134.87" ry="134.87"/><path class="cls-172" d="m233,569.02h414.85c74.34,0,134.69,60.35,134.69,134.69v538.02c0,74.34-60.35,134.69-134.69,134.69H233c-74.34,0-134.69-60.35-134.69-134.69v-538.02c0-74.34,60.35-134.69,134.69-134.69Z"/><rect class="cls-175" x="98.7" y="569.43" width="683.46" height="806.59" rx="134.51" ry="134.51"/><rect class="cls-155" x="99.08" y="569.83" width="682.69" height="805.78" rx="134.33" ry="134.33"/><rect class="cls-148" x="99.47" y="570.24" width="681.92" height="804.97" rx="134.15" ry="134.15"/><rect class="cls-174" x="99.85" y="570.64" width="681.15" height="804.16" rx="133.97" ry="133.97"/><rect class="cls-170" x="100.24" y="571.04" width="680.38" height="803.36" rx="133.79" ry="133.79"/><rect class="cls-157" x="100.62" y="571.45" width="679.61" height="802.55" rx="133.61" ry="133.61"/><rect class="cls-182" x="101" y="571.85" width="678.85" height="801.74" rx="133.43" ry="133.43"/><rect class="cls-176" x="101.39" y="572.26" width="678.08" height="800.93" rx="133.25" ry="133.25"/><rect class="cls-181" x="101.77" y="572.66" width="677.31" height="800.12" rx="133.07" ry="133.07"/><rect class="cls-121" x="102.16" y="573.07" width="676.54" height="799.31" rx="132.89" ry="132.89"/><rect class="cls-168" x="102.54" y="573.47" width="675.77" height="798.5" rx="132.71" ry="132.71"/><rect class="cls-179" x="102.93" y="573.88" width="675" height="797.69" rx="132.53" ry="132.53"/><rect class="cls-173" x="103.31" y="574.28" width="674.23" height="796.88" rx="132.35" ry="132.35"/><rect class="cls-169" x="103.7" y="574.69" width="673.46" height="796.07" rx="132.18" ry="132.18"/><path class="cls-70" d="m236.08,575.09h408.7c72.85,0,132,59.15,132,132v531.27c0,72.85-59.15,132-132,132H236.08c-72.85,0-132-59.15-132-132v-531.27c0-72.85,59.15-132,132-132Z"/><rect class="cls-67" x="104.46" y="575.49" width="671.93" height="794.45" rx="131.82" ry="131.82"/><rect class="cls-193" x="104.85" y="575.9" width="671.16" height="793.65" rx="131.64" ry="131.64"/><rect class="cls-220" x="105.23" y="576.3" width="670.39" height="792.84" rx="131.46" ry="131.46"/><rect class="cls-216" x="105.62" y="576.71" width="669.62" height="792.03" rx="131.28" ry="131.28"/><rect class="cls-219" x="106" y="577.11" width="668.85" height="791.22" rx="131.1" ry="131.1"/><rect class="cls-192" x="106.39" y="577.52" width="668.08" height="790.41" rx="130.92" ry="130.92"/><rect class="cls-191" x="106.77" y="577.92" width="667.31" height="789.6" rx="130.74" ry="130.74"/><rect class="cls-69" x="107.16" y="578.33" width="666.54" height="788.79" rx="130.56" ry="130.56"/><rect class="cls-53" x="107.54" y="578.73" width="665.77" height="787.98" rx="130.38" ry="130.38"/><rect class="cls-211" x="107.92" y="579.14" width="665" height="787.17" rx="130.2" ry="130.2"/><rect class="cls-214" x="108.31" y="579.54" width="664.24" height="786.36" rx="130.02" ry="130.02"/><rect class="cls-212" x="108.69" y="579.95" width="663.47" height="785.55" rx="129.84" ry="129.84"/><rect class="cls-61" x="109.08" y="580.35" width="662.7" height="784.74" rx="129.66" ry="129.66"/><rect class="cls-64" x="109.46" y="580.75" width="661.93" height="783.94" rx="129.48" ry="129.48"/><rect class="cls-71" x="109.85" y="581.16" width="661.16" height="783.13" rx="129.3" ry="129.3"/><rect class="cls-186" x="110.23" y="581.56" width="660.39" height="782.32" rx="129.12" ry="129.12"/><rect class="cls-218" x="110.62" y="581.97" width="659.62" height="781.51" rx="128.94" ry="128.94"/><rect class="cls-195" x="111" y="582.37" width="658.85" height="780.7" rx="128.76" ry="128.76"/><path class="cls-194" d="m239.97,582.78h400.92c70.97,0,128.58,57.61,128.58,128.58v522.73c0,70.97-57.61,128.58-128.58,128.58H239.97c-70.97,0-128.58-57.61-128.58-128.58v-522.73c0-70.97,57.61-128.58,128.58-128.58Z"/><rect class="cls-197" x="111.77" y="583.18" width="657.31" height="779.08" rx="128.4" ry="128.4"/><rect class="cls-208" x="112.15" y="583.59" width="656.55" height="778.27" rx="128.22" ry="128.22"/><rect class="cls-207" x="112.54" y="583.99" width="655.78" height="777.46" rx="128.04" ry="128.04"/><rect class="cls-210" x="112.92" y="584.4" width="655.01" height="776.65" rx="127.86" ry="127.86"/><rect class="cls-217" x="113.31" y="584.8" width="654.24" height="775.84" rx="127.68" ry="127.68"/><rect class="cls-189" x="113.69" y="585.2" width="653.47" height="775.03" rx="127.5" ry="127.5"/><rect class="cls-57" x="114.08" y="585.61" width="652.7" height="774.23" rx="127.32" ry="127.32"/><rect class="cls-56" x="114.46" y="586.01" width="651.93" height="773.42" rx="127.14" ry="127.14"/><rect class="cls-60" x="114.85" y="586.42" width="651.16" height="772.61" rx="126.96" ry="126.96"/><rect class="cls-59" x="115.23" y="586.82" width="650.39" height="771.8" rx="126.78" ry="126.78"/><rect class="cls-222" x="115.61" y="587.23" width="649.63" height="770.99" rx="126.6" ry="126.6"/><rect class="cls-221" x="116" y="587.63" width="648.86" height="770.18" rx="126.42" ry="126.42"/><rect class="cls-16" x="116.38" y="588.04" width="648.09" height="769.37" rx="126.24" ry="126.24"/><rect class="cls-84" x="116.77" y="588.44" width="647.32" height="768.56" rx="126.06" ry="126.06"/><rect class="cls-227" x="117.15" y="588.85" width="646.55" height="767.75" rx="125.88" ry="125.88"/><rect class="cls-226" x="117.54" y="589.25" width="645.78" height="766.94" rx="125.7" ry="125.7"/><rect class="cls-230" x="117.92" y="589.66" width="645.01" height="766.13" rx="125.52" ry="125.52"/><rect class="cls-224" x="118.31" y="590.06" width="644.24" height="765.32" rx="125.35" ry="125.35"/><path class="cls-215" d="m243.86,590.46h393.14c69.08,0,125.17,56.08,125.17,125.17v514.18c0,69.08-56.08,125.17-125.17,125.17H243.86c-69.08,0-125.17-56.08-125.17-125.17v-514.18c0-69.08,56.08-125.17,125.17-125.17Z"/><rect class="cls-28" x="119.07" y="590.87" width="642.7" height="763.71" rx="124.99" ry="124.99"/><rect class="cls-34" x="119.46" y="591.27" width="641.94" height="762.9" rx="124.81" ry="124.81"/><rect class="cls-22" x="119.84" y="591.68" width="641.17" height="762.09" rx="124.63" ry="124.63"/><rect class="cls-21" x="120.23" y="592.08" width="640.4" height="761.28" rx="124.45" ry="124.45"/><rect class="cls-25" x="120.61" y="592.49" width="639.63" height="760.47" rx="124.27" ry="124.27"/><rect class="cls-14" x="121" y="592.89" width="638.86" height="759.66" rx="124.09" ry="124.09"/><rect class="cls-18" x="121.38" y="593.3" width="638.09" height="758.85" rx="123.91" ry="123.91"/><rect class="cls-17" x="121.77" y="593.7" width="637.32" height="758.04" rx="123.73" ry="123.73"/><rect class="cls-229" x="122.15" y="594.11" width="636.55" height="757.23" rx="123.55" ry="123.55"/><rect class="cls-202" x="122.53" y="594.51" width="635.78" height="756.42" rx="123.37" ry="123.37"/><rect class="cls-27" x="122.92" y="594.91" width="635.02" height="755.61" rx="123.19" ry="123.19"/><rect class="cls-66" x="123.3" y="595.32" width="634.25" height="754.81" rx="123.01" ry="123.01"/><rect class="cls-68" x="123.69" y="595.72" width="633.48" height="754" rx="122.83" ry="122.83"/><rect class="cls-65" x="124.07" y="596.13" width="632.71" height="753.19" rx="122.65" ry="122.65"/><rect class="cls-54" x="124.46" y="596.53" width="631.94" height="752.38" rx="122.47" ry="122.47"/><rect class="cls-55" x="124.84" y="596.94" width="631.17" height="751.57" rx="122.29" ry="122.29"/><rect class="cls-213" x="125.23" y="597.34" width="630.4" height="750.76" rx="122.11" ry="122.11"/><rect class="cls-225" x="125.61" y="597.75" width="629.63" height="749.95" rx="121.93" ry="121.93"/><path class="cls-261" d="m247.75,598.15h385.36c67.2,0,121.75,54.55,121.75,121.75v505.64c0,67.2-54.55,121.75-121.75,121.75H247.75c-67.2,0-121.75-54.55-121.75-121.75v-505.64c0-67.2,54.55-121.75,121.75-121.75Z"/><rect class="cls-259" x="126.38" y="598.56" width="628.09" height="748.33" rx="121.57" ry="121.57"/><rect class="cls-258" x="126.76" y="598.96" width="627.33" height="747.52" rx="121.39" ry="121.39"/><rect class="cls-260" x="127.15" y="599.37" width="626.56" height="746.71" rx="121.21" ry="121.21"/><rect class="cls-203" x="127.53" y="599.77" width="625.79" height="745.9" rx="121.03" ry="121.03"/><rect class="cls-228" x="127.92" y="600.17" width="625.02" height="745.1" rx="120.85" ry="120.85"/><rect class="cls-51" x="128.3" y="600.58" width="624.25" height="744.29" rx="120.67" ry="120.67"/><rect class="cls-50" x="128.69" y="600.98" width="623.48" height="743.48" rx="120.49" ry="120.49"/><rect class="cls-49" x="129.07" y="601.39" width="622.71" height="742.67" rx="120.31" ry="120.31"/><rect class="cls-9" x="129.46" y="601.79" width="621.94" height="741.86" rx="120.13" ry="120.13"/><rect class="cls-26" x="129.84" y="602.2" width="621.17" height="741.05" rx="119.95" ry="119.95"/><rect class="cls-12" x="130.22" y="602.6" width="620.4" height="740.24" rx="119.77" ry="119.77"/><rect class="cls-13" x="130.61" y="603.01" width="619.64" height="739.43" rx="119.59" ry="119.59"/><rect class="cls-20" x="130.99" y="603.41" width="618.87" height="738.62" rx="119.41" ry="119.41"/><rect class="cls-40" x="131.38" y="603.82" width="618.1" height="737.81" rx="119.23" ry="119.23"/><rect class="cls-48" x="131.76" y="604.22" width="617.33" height="737" rx="119.05" ry="119.05"/><rect class="cls-47" x="132.15" y="604.62" width="616.56" height="736.19" rx="118.87" ry="118.87"/><rect class="cls-45" x="132.53" y="605.03" width="615.79" height="735.39" rx="118.69" ry="118.69"/><rect class="cls-83" x="132.92" y="605.43" width="615.02" height="734.58" rx="118.52" ry="118.52"/><path class="cls-82" d="m251.64,605.84h377.58c65.31,0,118.34,53.02,118.34,118.34v497.1c0,65.31-53.02,118.34-118.34,118.34H251.64c-65.31,0-118.34-53.02-118.34-118.34v-497.1c0-65.31,53.02-118.34,118.34-118.34Z"/><rect class="cls-42" x="133.68" y="606.24" width="613.48" height="732.96" rx="118.16" ry="118.16"/><rect class="cls-52" x="134.07" y="606.65" width="612.72" height="732.15" rx="117.98" ry="117.98"/><rect class="cls-15" x="134.45" y="607.05" width="611.95" height="731.34" rx="117.8" ry="117.8"/><rect class="cls-11" x="134.84" y="607.46" width="611.18" height="730.53" rx="117.62" ry="117.62"/><rect class="cls-24" x="135.22" y="607.86" width="610.41" height="729.72" rx="117.44" ry="117.44"/><rect class="cls-32" x="135.61" y="608.27" width="609.64" height="728.91" rx="117.26" ry="117.26"/><rect class="cls-30" x="135.99" y="608.67" width="608.87" height="728.1" rx="117.08" ry="117.08"/><rect class="cls-31" x="136.38" y="609.08" width="608.1" height="727.29" rx="116.9" ry="116.9"/><rect class="cls-35" x="136.76" y="609.48" width="607.33" height="726.48" rx="116.72" ry="116.72"/><rect class="cls-29" x="137.15" y="609.88" width="606.56" height="725.68" rx="116.54" ry="116.54"/><rect class="cls-8" x="137.53" y="610.29" width="605.79" height="724.87" rx="116.36" ry="116.36"/><rect class="cls-19" x="137.91" y="610.69" width="605.03" height="724.06" rx="116.18" ry="116.18"/><rect class="cls-39" x="138.3" y="611.1" width="604.26" height="723.25" rx="116" ry="116"/><rect class="cls-10" x="138.68" y="611.5" width="603.49" height="722.44" rx="115.82" ry="115.82"/><rect class="cls-37" x="139.07" y="611.91" width="602.72" height="721.63" rx="115.64" ry="115.64"/><rect class="cls-23" x="139.45" y="612.31" width="601.95" height="720.82" rx="115.46" ry="115.46"/><rect class="cls-58" x="139.84" y="612.72" width="601.18" height="720.01" rx="115.28" ry="115.28"/><rect class="cls-63" x="140.22" y="613.12" width="600.41" height="719.2" rx="115.1" ry="115.1"/><rect class="cls-100" x="140.61" y="613.53" width="599.64" height="718.39" rx="114.92" ry="114.92"/><rect class="cls-113" x="140.99" y="613.93" width="598.87" height="717.58" rx="114.74" ry="114.74"/><rect class="cls-114" x="141.37" y="614.33" width="598.1" height="716.77" rx="114.56" ry="114.56"/><rect class="cls-110" x="141.76" y="614.74" width="597.34" height="715.97" rx="114.38" ry="114.38"/><rect class="cls-111" x="142.14" y="615.14" width="596.57" height="715.16" rx="114.2" ry="114.2"/><rect class="cls-95" x="142.53" y="615.55" width="595.8" height="714.35" rx="114.02" ry="114.02"/><rect class="cls-88" x="142.91" y="615.95" width="595.03" height="713.54" rx="113.84" ry="113.84"/><rect class="cls-92" x="143.3" y="616.36" width="594.26" height="712.73" rx="113.66" ry="113.66"/><rect class="cls-85" x="143.68" y="616.76" width="593.49" height="711.92" rx="113.48" ry="113.48"/><rect class="cls-78" x="144.07" y="617.17" width="592.72" height="711.11" rx="113.3" ry="113.3"/><rect class="cls-79" x="144.45" y="617.57" width="591.95" height="710.3" rx="113.12" ry="113.12"/><rect class="cls-74" x="144.83" y="617.98" width="591.18" height="709.49" rx="112.94" ry="112.94"/><rect class="cls-76" x="145.22" y="618.38" width="590.42" height="708.68" rx="112.76" ry="112.76"/><rect class="cls-97" x="145.6" y="618.79" width="589.65" height="707.87" rx="112.58" ry="112.58"/><rect class="cls-96" x="145.99" y="619.19" width="588.88" height="707.06" rx="112.4" ry="112.4"/><rect class="cls-98" x="146.37" y="619.59" width="588.11" height="706.26" rx="112.22" ry="112.22"/><rect class="cls-80" x="146.76" y="620" width="587.34" height="705.45" rx="112.04" ry="112.04"/><rect class="cls-77" x="147.14" y="620.4" width="586.57" height="704.64" rx="111.87" ry="111.87"/><rect class="cls-204" x="147.53" y="620.81" width="585.8" height="703.83" rx="111.69" ry="111.69"/><path class="cls-75" d="m259.42,621.21h362.02c61.54,0,111.51,49.96,111.51,111.51v480.01c0,61.54-49.96,111.51-111.51,111.51h-362.02c-61.54,0-111.51-49.96-111.51-111.51v-480.01c0-61.54,49.96-111.51,111.51-111.51Z"/><rect class="cls-206" x="148.3" y="621.62" width="584.26" height="702.21" rx="111.33" ry="111.33"/><rect class="cls-72" x="148.68" y="622.02" width="583.49" height="701.4" rx="111.15" ry="111.15"/><rect class="cls-73" x="149.06" y="622.43" width="582.73" height="700.59" rx="110.97" ry="110.97"/><rect class="cls-41" x="149.45" y="622.83" width="581.96" height="699.78" rx="110.79" ry="110.79"/><rect class="cls-36" x="149.83" y="623.24" width="581.19" height="698.97" rx="110.61" ry="110.61"/><rect class="cls-43" x="150.22" y="623.64" width="580.42" height="698.16" rx="110.43" ry="110.43"/><rect class="cls-44" x="150.6" y="624.04" width="579.65" height="697.35" rx="110.25" ry="110.25"/><rect class="cls-38" x="150.99" y="624.45" width="578.88" height="696.55" rx="110.07" ry="110.07"/><rect class="cls-46" x="151.37" y="624.85" width="578.11" height="695.74" rx="109.89" ry="109.89"/><rect class="cls-33" x="151.76" y="625.26" width="577.34" height="694.93" rx="109.71" ry="109.71"/><rect class="cls-81" x="152.14" y="625.66" width="576.57" height="694.12" rx="109.53" ry="109.53"/><rect class="cls-130" x="152.52" y="626.07" width="575.81" height="693.31" rx="109.35" ry="109.35"/><rect class="cls-119" x="152.91" y="626.47" width="575.04" height="692.5" rx="109.17" ry="109.17"/><rect class="cls-120" x="153.29" y="626.88" width="574.27" height="691.69" rx="108.99" ry="108.99"/><path class="cls-117" d="m262.49,627.28h355.88c60.05,0,108.81,48.76,108.81,108.81v473.26c0,60.05-48.76,108.81-108.81,108.81h-355.88c-60.05,0-108.81-48.76-108.81-108.81v-473.26c0-60.05,48.76-108.81,108.81-108.81Z"/><rect class="cls-118" x="154.06" y="627.69" width="572.73" height="690.07" rx="108.63" ry="108.63"/><rect class="cls-122" x="154.45" y="628.09" width="571.96" height="689.26" rx="108.45" ry="108.45"/><rect class="cls-123" x="154.83" y="628.5" width="571.19" height="688.45" rx="108.27" ry="108.27"/><path class="cls-124" d="m263.31,628.9h354.24c59.66,0,108.09,48.43,108.09,108.09v471.46c0,59.66-48.43,108.09-108.09,108.09h-354.24c-59.66,0-108.09-48.43-108.09-108.09v-471.46c0-59.66,48.43-108.09,108.09-108.09Z"/><rect class="cls-104" x="155.6" y="629.3" width="569.65" height="686.84" rx="107.91" ry="107.91"/><rect class="cls-87" x="155.98" y="629.71" width="568.88" height="686.03" rx="107.73" ry="107.73"/><rect class="cls-91" x="156.37" y="630.11" width="568.12" height="685.22" rx="107.55" ry="107.55"/><rect class="cls-90" x="156.75" y="630.52" width="567.35" height="684.41" rx="107.37" ry="107.37"/><rect class="cls-102" x="157.14" y="630.92" width="566.58" height="683.6" rx="107.19" ry="107.19"/><rect class="cls-127" x="157.52" y="631.33" width="565.81" height="682.79" rx="107.01" ry="107.01"/><rect class="cls-128" x="157.91" y="631.73" width="565.04" height="681.98" rx="106.83" ry="106.83"/><rect class="cls-129" x="158.29" y="632.14" width="564.27" height="681.17" rx="106.65" ry="106.65"/><rect class="cls-112" x="158.68" y="632.54" width="563.5" height="680.36" rx="106.47" ry="106.47"/><rect class="cls-131" x="159.06" y="632.95" width="562.73" height="679.55" rx="106.29" ry="106.29"/><rect class="cls-125" x="159.45" y="633.35" width="561.96" height="678.74" rx="106.11" ry="106.11"/><rect class="cls-126" x="159.83" y="633.75" width="561.19" height="677.93" rx="105.93" ry="105.93"/><rect class="cls-109" x="160.21" y="634.16" width="560.43" height="677.13" rx="105.75" ry="105.75"/><rect class="cls-101" x="160.6" y="634.56" width="559.66" height="676.32" rx="105.57" ry="105.57"/><path class="cls-106" d="m266.38,634.97h348.1c58.17,0,105.39,47.23,105.39,105.39v464.72c0,58.17-47.23,105.39-105.39,105.39h-348.1c-58.17,0-105.39-47.23-105.39-105.39v-464.72c0-58.17,47.23-105.39,105.39-105.39Z"/><rect class="cls-105" x="161.37" y="635.37" width="558.12" height="674.7" rx="105.21" ry="105.21"/><rect class="cls-93" x="161.75" y="635.78" width="557.35" height="673.89" rx="105.04" ry="105.04"/><rect class="cls-94" x="162.14" y="636.18" width="556.58" height="673.08" rx="104.86" ry="104.86"/><rect class="cls-99" x="162.52" y="636.59" width="555.81" height="672.27" rx="104.68" ry="104.68"/><rect class="cls-103" x="162.91" y="636.99" width="555.04" height="671.46" rx="104.5" ry="104.5"/><rect class="cls-115" x="163.29" y="637.4" width="554.27" height="670.65" rx="104.32" ry="104.32"/><rect class="cls-116" x="163.67" y="637.8" width="553.51" height="669.84" rx="104.14" ry="104.14"/><rect class="cls-107" x="164.06" y="638.21" width="552.74" height="669.03" rx="103.96" ry="103.96"/><rect class="cls-108" x="164.44" y="638.61" width="551.97" height="668.22" rx="103.78" ry="103.78"/><rect class="cls-254" x="164.83" y="639.01" width="551.2" height="667.42" rx="103.6" ry="103.6"/><rect class="cls-257" x="165.21" y="639.42" width="550.43" height="666.61" rx="103.42" ry="103.42"/><rect class="cls-256" x="165.6" y="639.82" width="549.66" height="665.8" rx="103.24" ry="103.24"/><rect class="cls-255" x="165.98" y="640.23" width="548.89" height="664.99" rx="103.06" ry="103.06"/><rect class="cls-262" x="166.37" y="640.63" width="548.12" height="664.18" rx="102.88" ry="102.88"/></g><rect class="cls-232" x="117.09" y="581.11" width="646.37" height="783.23" rx="84.23" ry="84.23"/><path class="cls-132" d="m629.97,868.44c0,57.45-25.93,108.89-66.81,143.42-33.1,27.96-76,44.84-122.88,44.84s-89.52-16.77-122.58-44.58c-41.05-34.53-67.12-86.09-67.12-143.68,0-103.97,84.93-188.26,189.7-188.26s189.69,84.29,189.69,188.26Z"/><ellipse class="cls-232" cx="440.03" cy="804.62" rx="58.28" ry="57.84"/><path class="cls-62" d="m563.16,1011.86c-33.1,27.96-76,44.84-122.88,44.84s-89.52-16.77-122.58-44.58c8.95-59.3,60.5-104.77,122.75-104.77s113.64,45.34,122.71,104.52Z"/><path class="cls-132" d="m581.4,1178.22h-282.26c-11.05,0-20-8.95-20-20s8.95-20,20-20h282.26c11.05,0,20,8.95,20,20s-8.95,20-20,20Z"/><path class="cls-180" d="m666.18,1260.67H214.38c-11.05,0-20-8.95-20-20s8.95-20,20-20h451.8c11.05,0,20,8.95,20,20s-8.95,20-20,20Z"/><circle class="cls-86" cx="1003.83" cy="448.75" r="184.48"/><path class="cls-232" d="m974.07,520.47c-5.12,0-10.24-1.95-14.14-5.86l-43.91-43.91c-7.81-7.81-7.81-20.47,0-28.28,7.81-7.81,20.47-7.81,28.28,0l29.77,29.77,89.28-89.29c7.81-7.81,20.47-7.81,28.29,0,7.81,7.81,7.81,20.47,0,28.28l-103.43,103.43c-3.91,3.91-9.02,5.86-14.14,5.86Z"/><ellipse class="cls-1" cx="682.17" cy="1640.84" rx="420.61" ry="31.4"/></g></g></g></svg>