<svg class="icon" width="42" height="42" viewBox="0 0 42 42" fill="none" xmlns="http://www.w3.org/2000/svg">
	<rect width="42" height="42" fill="white"/>
	<path d="M33.25 11.875H8.75C8.25781 11.875 7.875 12.3125 7.875 12.75V14.5H34.125V12.75C34.125 12.3125 33.6875 11.875 33.25 11.875ZM34.125 19.75H7.875V30.25C7.875 30.7422 8.25781 31.125 8.75 31.125H33.25C33.6875 31.125 34.125 30.7422 34.125 30.25V19.75ZM8.75 9.25H33.25C35.1641 9.25 36.75 10.8359 36.75 12.75V30.25C36.75 32.2188 35.1641 33.75 33.25 33.75H8.75C6.78125 33.75 5.25 32.2188 5.25 30.25V12.75C5.25 10.8359 6.78125 9.25 8.75 9.25ZM11.8125 25.875H14.4375C15.1484 25.875 15.75 26.4766 15.75 27.1875C15.75 27.9531 15.1484 28.5 14.4375 28.5H11.8125C11.0469 28.5 10.5 27.9531 10.5 27.1875C10.5 26.4766 11.0469 25.875 11.8125 25.875ZM18.8125 25.875H24.9375C25.6484 25.875 26.25 26.4766 26.25 27.1875C26.25 27.9531 25.6484 28.5 24.9375 28.5H18.8125C18.0469 28.5 17.5 27.9531 17.5 27.1875C17.5 26.4766 18.0469 25.875 18.8125 25.875Z" fill="#333333"/>
</svg>
