<svg width="41" height="33" viewBox="0 0 41 33" fill="none" xmlns="http://www.w3.org/2000/svg">
<path d="M4.5 3C3.23438 3 2.25 4.05469 2.25 5.25V7.5H38.25V5.25C38.25 4.05469 37.1953 3 36 3H4.5ZM2.25 9.75V14.25H38.25V9.75H2.25ZM2.25 16.5V27.75C2.25 29.0156 3.23438 30 4.5 30H36C37.1953 30 38.25 29.0156 38.25 27.75V16.5H2.25ZM0 5.25C0 2.78906 1.96875 0.75 4.5 0.75H36C38.4609 0.75 40.5 2.78906 40.5 5.25V27.75C40.5 30.2812 38.4609 32.25 36 32.25H4.5C1.96875 32.25 0 30.2812 0 27.75V5.25ZM6.75 24.375C6.75 23.8125 7.24219 23.25 7.875 23.25H12.375C12.9375 23.25 13.5 23.8125 13.5 24.375C13.5 25.0078 12.9375 25.5 12.375 25.5H7.875C7.24219 25.5 6.75 25.0078 6.75 24.375ZM15.75 24.375C15.75 23.8125 16.2422 23.25 16.875 23.25H25.875C26.4375 23.25 27 23.8125 27 24.375C27 25.0078 26.4375 25.5 25.875 25.5H16.875C16.2422 25.5 15.75 25.0078 15.75 24.375Z" fill="#638B46"/>
</svg>
