<svg class="icon" width="42" height="42" viewBox="0 0 42 42" fill="none" xmlns="http://www.w3.org/2000/svg">
<rect width="42" height="42" fill="white"/>
<path d="M22.3125 11.875V16.25H29.9688L28.2734 12.4219C28.1094 12.0938 27.7812 11.875 27.4531 11.875H22.3125ZM11.375 18.875V30.25C11.375 30.7422 11.7578 31.125 12.25 31.125H29.75C30.1875 31.125 30.625 30.7422 30.625 30.25V18.875H11.375ZM19.6875 16.25V11.875H14.4922C14.1641 11.875 13.8359 12.0938 13.7266 12.4219L11.9766 16.25H19.6875ZM30.625 11.3281L32.9219 16.4688C33.1406 16.9062 33.25 17.3984 33.25 17.8906V30.25C33.25 32.2188 31.6641 33.75 29.75 33.75H12.25C10.2812 33.75 8.75 32.2188 8.75 30.25V17.8906C8.75 17.3984 8.80469 16.9062 9.02344 16.4688L11.3203 11.3281C11.8672 10.0703 13.125 9.25 14.4922 9.25H27.4531C28.8203 9.25 30.0781 10.0703 30.625 11.3281ZM20.3438 29.6484L16.1328 25.4375C14.9844 24.2891 14.9844 22.4844 16.1328 21.3906C17.2266 20.2422 19.0859 20.2422 20.1797 21.3906L21 22.1562L21.7656 21.3906C22.8594 20.2422 24.7188 20.2422 25.8125 21.3906C26.9609 22.4844 26.9609 24.2891 25.8125 25.4375L21.6016 29.6484C21.2734 29.9766 20.6719 29.9766 20.3438 29.6484Z" fill="#333333"/>
</svg>
