<svg width="33" height="33" viewBox="0 0 33 33" fill="none" xmlns="http://www.w3.org/2000/svg">
<path d="M17.542 3V9.75H29.1436L26.7529 4.33594C26.4014 3.5625 25.6279 3 24.7139 3H17.542ZM17.542 12H15.292H2.91699V27.75C2.91699 29.0156 3.90137 30 5.16699 30H27.667C28.8623 30 29.917 29.0156 29.917 27.75V12H17.542ZM15.292 9.75V3H8.0498C7.13574 3 6.3623 3.5625 6.01074 4.33594L3.62012 9.75H15.292ZM28.792 3.42188L31.7451 10.0312C32.0264 10.5938 32.167 11.2266 32.167 11.8594V27.75C32.167 30.2812 30.1279 32.25 27.667 32.25H5.16699C2.63574 32.25 0.666992 30.2812 0.666992 27.75V11.8594C0.666992 11.2266 0.737305 10.5938 1.01855 10.0312L3.97168 3.42188C4.6748 1.80469 6.29199 0.75 8.0498 0.75H24.7139C26.4717 0.75 28.0889 1.80469 28.792 3.42188ZM10.9326 17.1328C9.94824 18.1172 9.94824 19.7344 10.9326 20.7891L16.417 26.2031L21.8311 20.7891C22.8154 19.7344 22.8154 18.1172 21.8311 17.1328C20.8467 16.1484 19.1592 16.1484 18.1748 17.1328L17.1904 18.1172C16.9795 18.3281 16.6982 18.4688 16.417 18.4688C16.0654 18.4688 15.7842 18.3281 15.5732 18.1172L14.5889 17.1328C13.6045 16.1484 11.9873 16.1484 10.9326 17.1328ZM16.2061 15.5156L16.417 15.7266L16.6279 15.5156C18.4561 13.6172 21.5498 13.6875 23.4482 15.5156C25.2764 17.4141 25.2764 20.4375 23.4482 22.3359L17.9639 27.75C17.1201 28.6641 15.6436 28.6641 14.7998 27.75L9.38574 22.3359C7.4873 20.4375 7.4873 17.4141 9.38574 15.5156C11.2139 13.6172 14.3076 13.6172 16.2061 15.5156Z" fill="#638B46"/>
</svg>
