<svg width="45" height="37" viewBox="0 0 45 37" fill="none" xmlns="http://www.w3.org/2000/svg">
<path d="M9 2.75C7.73438 2.75 6.75 3.80469 6.75 5V7.25H16.875C17.4375 7.25 18 7.8125 18 8.375C18 9.00781 17.4375 9.5 16.875 9.5H1.125C0.492188 9.5 0 9.00781 0 8.375C0 7.8125 0.492188 7.25 1.125 7.25H4.5V5C4.5 2.53906 6.46875 0.5 9 0.5H24.75C27.2109 0.5 29.25 2.53906 29.25 5V7.25H33.8203C34.8047 7.25 35.7188 7.74219 36.3516 8.44531L41.9062 14.9141C42.3984 15.5469 42.75 16.3203 42.75 17.0938V27.5H43.875C44.4375 27.5 45 28.0625 45 28.625C45 29.2578 44.4375 29.75 43.875 29.75H40.5C40.5 33.4766 37.4766 36.5 33.75 36.5C30.0234 36.5 27 33.4766 27 29.75H18C18 33.4766 14.9766 36.5 11.25 36.5C7.52344 36.5 4.5 33.4766 4.5 29.75V27.5V20.75H6.75V24.7578C7.94531 23.7031 9.49219 23 11.25 23C14.1328 23 16.6641 24.8984 17.5781 27.5H27V5C27 3.80469 25.9453 2.75 24.75 2.75H9ZM40.0781 16.25L34.6641 9.92188C34.4531 9.64062 34.1719 9.5 33.8203 9.5H29.25V16.25H40.0781ZM29.25 18.5V24.7578C30.4453 23.7031 31.9922 23 33.75 23C36.6328 23 39.1641 24.8984 40.0781 27.5H40.5V18.5H29.25ZM6.75 29.75C6.75 31.3672 7.59375 32.8438 9 33.6875C10.3359 34.4609 12.0938 34.4609 13.5 33.6875C14.8359 32.8438 15.75 31.3672 15.75 29.75C15.75 28.2031 14.8359 26.7266 13.5 25.8828C12.0938 25.1094 10.3359 25.1094 9 25.8828C7.59375 26.7266 6.75 28.2031 6.75 29.75ZM33.75 25.25C32.1328 25.25 30.6562 26.1641 29.8125 27.5C29.0391 28.9062 29.0391 30.6641 29.8125 32C30.6562 33.4062 32.1328 34.25 33.75 34.25C35.2969 34.25 36.7734 33.4062 37.6172 32C38.3906 30.6641 38.3906 28.9062 37.6172 27.5C36.7734 26.1641 35.2969 25.25 33.75 25.25ZM3.375 11.75H19.125C19.6875 11.75 20.25 12.3125 20.25 12.875C20.25 13.5078 19.6875 14 19.125 14H3.375C2.74219 14 2.25 13.5078 2.25 12.875C2.25 12.3125 2.74219 11.75 3.375 11.75ZM1.125 16.25H16.875C17.4375 16.25 18 16.8125 18 17.375C18 18.0078 17.4375 18.5 16.875 18.5H1.125C0.492188 18.5 0 18.0078 0 17.375C0 16.8125 0.492188 16.25 1.125 16.25Z" fill="#638B46"/>
</svg>
