<svg class="icon" width="42" height="42" viewBox="0 0 42 42" fill="none" xmlns="http://www.w3.org/2000/svg">
<rect width="42" height="42" fill="white"/>
<path d="M22.75 10.125H10.5C10.0078 10.125 9.625 10.5625 9.625 11V12.75H16.625C17.0625 12.75 17.5 13.1875 17.5 13.625C17.5 14.1172 17.0625 14.5 16.625 14.5H4.375C3.88281 14.5 3.5 14.1172 3.5 13.625C3.5 13.1875 3.88281 12.75 4.375 12.75H7V11C7 9.08594 8.53125 7.5 10.5 7.5H22.75C24.6641 7.5 26.25 9.08594 26.25 11V12.75H28.5469C29.3672 12.75 30.1328 13.0781 30.7344 13.6797L35.8203 18.7656C36.4219 19.3672 36.75 20.1328 36.75 20.9531V27.625H37.1875C37.8984 27.625 38.5 28.2266 38.5 28.9375C38.5 29.7031 37.8984 30.25 37.1875 30.25H35C35 33.1484 32.6484 35.5 29.75 35.5C26.8516 35.5 24.5 33.1484 24.5 30.25H24.0625H22.75H21H17.5C17.5 33.1484 15.1484 35.5 12.25 35.5C9.35156 35.5 7 33.1484 7 30.25V27.625V23.25H9.625V25.7109C10.3906 25.2734 11.2656 25 12.25 25C14.1641 25 15.8594 26.0938 16.7891 27.625H21H22.75C23.1875 27.625 23.625 27.2422 23.625 26.75V11C23.625 10.5625 23.1875 10.125 22.75 10.125ZM33.9609 20.625L28.875 15.5391C28.7656 15.4297 28.6562 15.375 28.5469 15.375H26.25V20.625H34.0156H33.9609ZM14.875 30.25C14.875 29.3203 14.3281 28.5 13.5625 28.0078C12.7422 27.5156 11.7031 27.5156 10.9375 28.0078C10.1172 28.5 9.625 29.3203 9.625 30.25C9.625 31.2344 10.1172 32.0547 10.9375 32.5469C11.7031 33.0391 12.7422 33.0391 13.5625 32.5469C14.3281 32.0547 14.875 31.2344 14.875 30.25ZM29.75 32.875C30.6797 32.875 31.5 32.3828 31.9922 31.5625C32.4844 30.7969 32.4844 29.7578 31.9922 28.9375C31.5 28.1719 30.6797 27.625 29.75 27.625C28.7656 27.625 27.9453 28.1719 27.4531 28.9375C26.9609 29.7578 26.9609 30.7969 27.4531 31.5625C27.9453 32.3828 28.7656 32.875 29.75 32.875ZM6.125 16.25H18.375C18.8125 16.25 19.25 16.6875 19.25 17.125C19.25 17.6172 18.8125 18 18.375 18H6.125C5.63281 18 5.25 17.6172 5.25 17.125C5.25 16.6875 5.63281 16.25 6.125 16.25ZM4.375 19.75H16.625C17.0625 19.75 17.5 20.1875 17.5 20.625C17.5 21.1172 17.0625 21.5 16.625 21.5H4.375C3.88281 21.5 3.5 21.1172 3.5 20.625C3.5 20.1875 3.88281 19.75 4.375 19.75Z" fill="#333333"/>
</svg>
