<svg class="icon" width="42" height="42" viewBox="0 0 42 42" fill="none" xmlns="http://www.w3.org/2000/svg">
<rect width="42" height="42" fill="white"/>
<path d="M21 32.875C26.7422 32.875 31.5 28.6094 32.2656 23.0312L30.6797 22.6484C30.0781 22.4844 29.5859 22.0469 29.4219 21.5L28.4922 18.7109C28.2188 17.8359 28.6562 16.9062 29.5312 16.5234L30.8984 15.9766C29.0391 12.6406 25.5391 10.3438 21.5469 10.1797L21.6562 10.3984C22.0391 11.0547 21.9844 11.8203 21.4922 12.4219L20.6172 13.4062C20.0703 14.0625 20.0703 14.9922 20.6172 15.6484L21.3281 16.5234C21.6562 16.9062 21.6562 17.3984 21.4375 17.7812C21.1641 18.1641 20.6719 18.3281 20.2344 18.2188L18.9219 17.7812C18.5391 17.6719 18.1562 17.6719 17.7734 17.8906L17.4453 18.0547C16.9531 18.2734 16.7344 18.8203 16.8984 19.3672C17.0078 19.6406 17.1719 19.8594 17.3906 19.9688L19.3047 21.0625C19.7969 21.3359 20.3984 21.5 21.0547 21.5H23.4062C24.0625 21.5 24.7734 21.7734 25.2656 22.2656L25.4297 22.4844C25.9219 22.9766 26.25 23.6875 26.25 24.3438V24.8359C26.25 25.7656 25.7031 26.6406 24.8828 27.0781L24.3906 27.4062C23.625 27.8438 23.0234 28.5547 22.75 29.4844L22.6953 29.7578C22.4219 30.6328 21.7656 31.2891 20.8906 31.5625C20.0703 31.7812 19.25 31.1797 19.25 30.3047V28.6094C19.25 28.0078 18.8672 27.4609 18.375 27.1875C17.8281 26.9688 17.5 26.4219 17.5 25.8203V23.6328C17.5 22.6484 16.8438 21.7734 15.9141 21.5L12.7422 20.625C11.8672 20.3516 11.1016 19.75 10.6641 18.9844L10.1172 18.0547C9.78906 19.1484 9.625 20.2969 9.625 21.5C9.625 27.7891 14.7109 32.875 21 32.875ZM21 35.5C15.9688 35.5 11.375 32.875 8.85938 28.5C6.34375 24.1797 6.34375 18.875 8.85938 14.5C11.375 10.1797 15.9688 7.5 21 7.5C25.9766 7.5 30.5703 10.1797 33.0859 14.5C35.6016 18.875 35.6016 24.1797 33.0859 28.5C30.5703 32.875 25.9766 35.5 21 35.5Z" fill="#333333"/>
</svg>
