<svg width="39" height="37" viewBox="0 0 39 37" fill="none" xmlns="http://www.w3.org/2000/svg">
<path d="M19.333 34.25C26.8564 34.25 33.1846 28.9766 34.7314 21.875L31.4971 21.0312C30.3721 20.75 29.458 19.9062 29.1064 18.8516L27.9111 15.2656C27.3486 13.5781 28.1924 11.75 29.8799 11.0469L32.5518 9.99219C29.8096 5.70312 25.0283 2.89062 19.5439 2.75L20.0361 3.66406C20.7393 4.92969 20.5986 6.47656 19.6846 7.53125L18.2783 9.21875C18.0674 9.35938 18.0674 9.71094 18.2783 9.92188L19.5439 11.3984C20.2471 12.2422 20.3174 13.4375 19.6846 14.3516C19.0518 15.2656 17.9268 15.6875 16.8721 15.3359L15.1143 14.7734C14.9736 14.7031 14.833 14.7031 14.6221 14.7734C14.3408 14.9844 14.2002 15.3359 14.3408 15.6875L14.4111 15.7578C14.4814 15.8984 14.6221 16.0391 14.7627 16.1094L17.9971 17.7266C18.2783 17.8672 18.6299 17.9375 18.9814 17.9375H22.4268C23.6221 17.9375 24.7471 18.4297 25.5908 19.2734L25.8721 19.5547C26.7158 20.3984 27.1377 21.5234 27.1377 22.7188V23.3516C27.1377 24.9688 26.2939 26.4453 24.8877 27.2188L24.1143 27.7109C23.4814 28.0625 22.9893 28.6953 22.7783 29.3984L22.4971 30.6641C22.1455 32.1406 20.8096 33.1953 19.2627 33.1953C17.4346 33.1953 15.958 31.6484 15.958 29.8203V28.2031C15.958 27.9219 15.7471 27.5703 15.3955 27.4297C14.3408 26.8672 13.708 25.8125 13.708 24.6172V23.5625C13.708 22.3672 12.9346 21.3828 11.8096 21.0312L7.37988 19.625C5.90332 19.2031 4.6377 18.0781 3.93457 16.6016L3.72363 16.1094C3.58301 16.8828 3.58301 17.7266 3.58301 18.5C3.58301 27.2188 10.6143 34.25 19.333 34.25ZM4.70801 12.6641L6.04395 15.6172C6.39551 16.5312 7.16895 17.2344 8.08301 17.5156L12.5127 18.8516C14.5518 19.5547 15.958 21.3828 15.958 23.5625V24.6172C15.958 24.8984 16.0986 25.25 16.4502 25.3906C17.5049 25.9531 18.208 27.0078 18.208 28.2031V29.8203C18.208 30.4531 18.7002 30.9453 19.2627 30.9453C19.7549 30.9453 20.1768 30.5938 20.3174 30.1016L20.5986 28.8359C20.9502 27.5703 21.7939 26.4453 22.9893 25.7422L23.833 25.25C24.4658 24.8984 24.958 24.125 24.958 23.3516V22.7188C24.958 22.1562 24.6768 21.5938 24.2549 21.1719L23.9736 20.8906C23.5518 20.4688 22.9893 20.1875 22.4268 20.1875H18.9814C18.2783 20.1875 17.5752 20.0469 16.9424 19.7656L13.708 18.1484C13.1455 17.8672 12.6533 17.375 12.3721 16.8125V16.6719C11.5986 15.2656 12.2314 13.5078 13.6377 12.8047C14.3408 12.4531 15.1143 12.3828 15.8877 12.6641L17.5752 13.2266C17.6455 13.2266 17.7861 13.2266 17.7861 13.1562C17.8564 13.0156 17.8564 12.9453 17.7861 12.875L16.5205 11.3281C15.6768 10.2734 15.6768 8.79688 16.5908 7.74219L17.9971 6.05469C18.2783 5.70312 18.3486 5.21094 18.0674 4.78906L17.083 2.96094C11.3877 3.73438 6.74707 7.53125 4.70801 12.6641ZM35.083 18.5L35.0127 18.5703C35.0127 16.1797 34.5205 14 33.6064 11.9609L30.6533 13.1562C30.1611 13.3672 29.8799 14 30.0205 14.5625L31.2158 18.1484C31.3564 18.5 31.6377 18.7812 31.9893 18.8516L35.0127 19.625C35.0127 19.2734 35.083 18.9219 35.083 18.5ZM19.333 36.5C12.8643 36.5 6.95801 33.125 3.72363 27.5C0.489258 21.9453 0.489258 15.125 3.72363 9.5C6.95801 3.94531 12.8643 0.5 19.333 0.5C25.7314 0.5 31.6377 3.94531 34.8721 9.5C38.1064 15.125 38.1064 21.9453 34.8721 27.5C31.6377 33.125 25.7314 36.5 19.333 36.5Z" fill="#638B46"/>
</svg>
