<svg id="svg" version="1.1" xmlns="http://www.w3.org/2000/svg" xmlns:xlink="http://www.w3.org/1999/xlink" width="400" height="400" viewBox="0, 0, 400,400"><g id="svgg"><path id="path0" d="M188.400 63.450 C 186.970 63.763,184.026 64.170,181.858 64.354 C 179.690 64.538,177.800 64.874,177.658 65.100 C 177.516 65.326,176.056 65.719,174.412 65.973 C 172.769 66.227,171.135 66.697,170.781 67.017 C 170.427 67.338,169.701 67.604,169.169 67.609 C 168.636 67.615,167.120 68.064,165.800 68.608 C 164.480 69.151,163.130 69.603,162.800 69.611 C 162.470 69.619,161.300 70.068,160.200 70.609 C 159.100 71.150,157.896 71.594,157.524 71.596 C 157.152 71.598,156.727 71.795,156.580 72.033 C 156.432 72.271,155.567 72.819,154.656 73.250 C 152.214 74.407,150.676 75.193,150.000 75.629 C 149.670 75.842,148.770 76.302,148.000 76.651 C 147.230 77.000,146.456 77.537,146.280 77.843 C 146.104 78.149,145.724 78.400,145.435 78.400 C 144.997 78.400,143.352 79.510,141.375 81.141 C 141.141 81.334,140.511 81.721,139.975 82.001 C 139.439 82.281,138.730 82.759,138.400 83.063 C 138.070 83.366,136.628 84.556,135.195 85.707 C 131.216 88.904,124.009 95.848,122.200 98.229 C 121.760 98.808,120.950 99.795,120.400 100.422 C 119.850 101.050,119.040 102.036,118.600 102.615 C 118.160 103.193,117.481 104.056,117.091 104.533 C 116.701 105.010,115.763 106.390,115.008 107.600 C 114.252 108.810,113.402 110.062,113.117 110.382 C 112.833 110.702,112.368 111.422,112.085 111.982 C 111.802 112.542,111.129 113.720,110.588 114.600 C 109.394 116.545,108.400 118.628,108.400 119.187 C 108.400 119.414,108.234 119.600,108.032 119.600 C 107.830 119.600,107.365 120.500,107.000 121.600 C 106.635 122.700,106.172 123.600,105.973 123.600 C 105.773 123.600,105.496 124.312,105.357 125.182 C 105.217 126.051,104.773 127.062,104.369 127.428 C 103.966 127.793,103.511 128.926,103.359 129.946 C 103.207 130.966,102.841 132.171,102.545 132.623 C 102.250 133.076,101.824 134.426,101.599 135.623 C 101.373 136.821,100.920 138.370,100.592 139.066 C 100.264 139.762,99.881 141.472,99.742 142.866 C 99.602 144.260,99.228 145.915,98.911 146.545 C 98.541 147.278,98.207 149.934,97.981 153.945 C 97.787 157.385,97.524 161.100,97.396 162.200 C 97.060 165.080,98.242 182.728,98.817 183.421 C 99.076 183.732,99.437 185.327,99.621 186.966 C 99.805 188.604,100.325 190.758,100.777 191.751 C 101.230 192.744,101.600 194.068,101.600 194.693 C 101.600 195.319,101.952 196.522,102.383 197.367 C 102.814 198.212,103.283 199.679,103.425 200.628 C 103.567 201.576,104.025 202.660,104.442 203.038 C 104.859 203.415,105.200 204.223,105.200 204.833 C 105.200 205.444,105.480 206.223,105.822 206.565 C 106.164 206.907,106.721 208.000,107.060 208.993 C 107.398 209.987,107.838 210.800,108.038 210.800 C 108.237 210.800,108.400 211.135,108.400 211.544 C 108.400 211.953,108.850 212.951,109.400 213.762 C 109.950 214.572,110.400 215.475,110.400 215.769 C 110.400 216.062,110.698 216.549,111.062 216.851 C 111.426 217.153,111.973 217.940,112.278 218.600 C 112.582 219.260,113.367 220.520,114.021 221.400 C 114.676 222.280,115.476 223.540,115.800 224.200 C 116.124 224.860,117.020 226.210,117.793 227.200 C 118.565 228.190,119.373 229.405,119.589 229.900 C 119.804 230.395,120.143 230.800,120.342 230.800 C 120.540 230.800,120.927 231.340,121.200 232.000 C 121.473 232.660,121.825 233.200,121.981 233.200 C 122.137 233.200,122.516 233.695,122.822 234.300 C 123.129 234.905,123.797 235.940,124.307 236.600 C 124.817 237.260,125.498 238.160,125.820 238.600 C 126.143 239.040,126.855 239.966,127.404 240.658 C 127.952 241.350,128.400 242.044,128.400 242.200 C 128.400 242.356,128.853 243.050,129.406 243.742 C 129.959 244.434,130.559 245.185,130.738 245.410 C 130.917 245.636,131.407 246.356,131.827 247.010 C 132.246 247.665,132.817 248.438,133.095 248.729 C 133.373 249.019,133.600 249.508,133.600 249.814 C 133.600 250.121,133.941 250.554,134.358 250.777 C 134.775 251.001,135.305 251.727,135.537 252.392 C 135.769 253.056,136.126 253.600,136.331 253.600 C 136.535 253.600,136.927 254.140,137.200 254.800 C 137.473 255.460,137.837 256.000,138.009 256.000 C 138.282 256.000,139.162 257.231,140.636 259.673 C 140.875 260.070,141.370 260.725,141.736 261.129 C 142.101 261.533,142.400 262.052,142.400 262.283 C 142.400 262.513,142.681 262.935,143.025 263.221 C 143.368 263.506,144.309 264.743,145.116 265.970 C 145.922 267.196,146.811 268.438,147.091 268.729 C 147.371 269.019,147.600 269.379,147.600 269.529 C 147.601 269.678,148.051 270.323,148.600 270.962 C 149.150 271.601,149.600 272.302,149.600 272.520 C 149.600 272.738,149.974 273.295,150.431 273.758 C 151.842 275.187,153.600 277.682,153.600 278.255 C 153.600 278.555,153.784 278.800,154.010 278.800 C 154.235 278.800,154.596 279.205,154.811 279.700 C 155.027 280.195,155.832 281.410,156.602 282.400 C 157.371 283.390,158.120 284.470,158.268 284.800 C 158.415 285.130,159.051 286.030,159.681 286.800 C 161.443 288.952,161.472 288.993,162.168 290.338 C 162.527 291.032,162.996 291.600,163.210 291.600 C 163.425 291.600,163.600 291.839,163.600 292.130 C 163.600 292.422,164.050 293.083,164.600 293.600 C 165.150 294.117,165.600 294.780,165.600 295.074 C 165.600 295.367,165.960 295.916,166.400 296.293 C 166.840 296.670,167.200 297.110,167.200 297.271 C 167.200 297.432,168.095 298.787,169.189 300.282 C 170.282 301.777,171.587 303.603,172.089 304.340 C 172.590 305.078,173.315 306.023,173.700 306.440 C 174.085 306.858,174.400 307.401,174.400 307.647 C 174.400 307.893,174.895 308.684,175.500 309.404 C 177.451 311.726,178.062 312.582,178.425 313.500 C 178.620 313.995,178.944 314.400,179.143 314.400 C 179.343 314.400,179.616 314.715,179.751 315.100 C 179.885 315.485,180.491 316.454,181.097 317.253 C 181.704 318.052,182.993 319.852,183.962 321.253 C 184.931 322.654,185.851 323.890,186.006 324.000 C 186.161 324.110,186.588 324.785,186.954 325.500 C 187.321 326.215,187.796 326.800,188.010 326.800 C 188.225 326.800,188.400 327.043,188.400 327.341 C 188.400 327.638,188.895 328.438,189.500 329.117 C 191.228 331.059,192.400 332.689,192.400 333.149 C 192.400 333.382,192.805 333.788,193.300 334.051 C 193.795 334.315,194.398 334.799,194.640 335.128 C 195.137 335.801,200.612 336.278,202.872 335.845 C 204.657 335.503,208.800 331.503,209.630 329.321 C 209.823 328.815,210.124 328.400,210.299 328.400 C 210.475 328.400,210.957 327.770,211.372 327.000 C 211.787 326.230,212.256 325.600,212.414 325.600 C 212.573 325.600,212.927 325.060,213.200 324.400 C 213.473 323.740,213.843 323.200,214.022 323.200 C 214.200 323.200,214.450 322.872,214.578 322.471 C 214.705 322.069,215.123 321.394,215.506 320.971 C 216.228 320.172,216.409 319.922,219.400 315.600 C 220.390 314.170,221.511 312.550,221.893 312.000 C 222.274 311.450,222.814 310.856,223.093 310.680 C 223.372 310.504,223.600 310.144,223.600 309.880 C 223.601 309.616,224.046 308.883,224.589 308.251 C 225.133 307.619,225.679 306.781,225.804 306.388 C 225.928 305.995,226.294 305.573,226.615 305.450 C 226.937 305.326,227.200 304.972,227.200 304.664 C 227.200 304.175,229.951 300.349,231.776 298.300 C 232.119 297.915,232.400 297.513,232.400 297.407 C 232.400 297.101,236.677 290.866,237.345 290.198 C 237.676 289.866,238.062 289.236,238.201 288.798 C 238.340 288.359,238.626 288.000,238.837 288.000 C 239.047 288.000,239.388 287.557,239.594 287.016 C 239.800 286.475,240.248 285.710,240.591 285.316 C 242.226 283.436,243.489 281.735,243.720 281.100 C 243.860 280.715,244.161 280.400,244.387 280.400 C 244.614 280.400,244.800 280.136,244.800 279.814 C 244.800 279.492,245.340 278.613,246.000 277.861 C 246.660 277.109,247.200 276.376,247.200 276.231 C 247.200 275.862,248.698 273.758,250.639 271.400 C 251.545 270.300,252.414 268.995,252.570 268.500 C 252.726 268.005,253.000 267.600,253.178 267.600 C 253.357 267.600,253.727 267.060,254.000 266.400 C 254.273 265.740,254.626 265.200,254.784 265.200 C 254.942 265.200,255.817 264.075,256.729 262.700 C 257.641 261.325,259.207 259.030,260.208 257.600 C 261.209 256.170,262.400 254.415,262.854 253.700 C 263.308 252.985,263.838 252.400,264.032 252.400 C 264.226 252.400,264.498 251.950,264.636 251.400 C 264.774 250.850,265.043 250.400,265.233 250.400 C 265.424 250.400,265.879 249.815,266.246 249.100 C 266.612 248.385,267.023 247.710,267.158 247.600 C 267.467 247.350,269.662 244.436,270.200 243.563 C 270.552 242.992,271.596 241.473,273.600 238.617 C 273.930 238.147,274.623 237.096,275.140 236.281 C 275.656 235.466,276.219 234.800,276.391 234.800 C 276.563 234.800,276.927 234.260,277.200 233.600 C 277.473 232.940,277.822 232.400,277.974 232.400 C 278.127 232.400,278.552 231.770,278.919 231.000 C 279.287 230.230,279.758 229.600,279.967 229.600 C 280.175 229.600,280.474 229.195,280.630 228.700 C 280.787 228.205,281.249 227.565,281.657 227.277 C 282.066 226.990,282.400 226.521,282.400 226.236 C 282.400 225.950,282.850 225.231,283.400 224.638 C 283.950 224.044,284.412 223.343,284.427 223.079 C 284.441 222.816,285.071 221.790,285.827 220.800 C 286.582 219.810,287.418 218.550,287.684 218.000 C 287.950 217.450,288.490 216.571,288.884 216.046 C 289.278 215.521,289.600 214.784,289.600 214.408 C 289.600 214.032,289.950 213.407,290.377 213.021 C 290.805 212.634,291.275 211.751,291.422 211.059 C 291.569 210.366,291.916 209.530,292.194 209.200 C 292.472 208.870,292.916 207.925,293.180 207.100 C 293.445 206.275,293.807 205.600,293.984 205.600 C 294.160 205.600,294.520 204.745,294.783 203.700 C 295.045 202.655,295.532 201.499,295.864 201.131 C 296.196 200.763,296.570 199.683,296.696 198.731 C 296.821 197.779,297.166 196.626,297.463 196.169 C 297.759 195.712,298.197 194.272,298.435 192.969 C 298.673 191.666,299.213 189.571,299.634 188.313 C 300.055 187.055,300.408 185.075,300.418 183.913 C 300.427 182.751,300.711 181.080,301.047 180.200 C 302.342 176.816,302.506 152.174,301.244 150.653 C 300.968 150.321,300.591 148.440,300.407 146.474 C 300.222 144.507,299.805 142.381,299.480 141.749 C 299.155 141.117,298.698 139.370,298.466 137.867 C 298.233 136.363,297.825 134.871,297.559 134.551 C 297.293 134.230,296.931 133.052,296.754 131.933 C 296.577 130.814,296.169 129.606,295.847 129.249 C 295.526 128.892,295.134 128.060,294.977 127.400 C 294.820 126.740,294.453 125.750,294.161 125.200 C 293.870 124.650,293.079 122.940,292.403 121.400 C 291.727 119.860,290.998 118.330,290.782 118.000 C 290.566 117.670,290.030 116.680,289.591 115.800 C 289.151 114.920,288.257 113.390,287.604 112.400 C 286.951 111.410,286.251 110.233,286.050 109.784 C 285.848 109.335,285.395 108.727,285.042 108.435 C 284.689 108.142,284.400 107.725,284.400 107.509 C 284.400 107.292,283.950 106.581,283.400 105.927 C 282.850 105.273,282.400 104.482,282.400 104.169 C 282.400 103.856,282.251 103.600,282.070 103.600 C 281.888 103.600,280.818 102.475,279.692 101.100 C 276.563 97.279,271.785 92.173,269.541 90.252 C 268.803 89.621,266.877 87.911,265.260 86.452 C 263.643 84.994,261.978 83.671,261.560 83.513 C 261.142 83.355,260.800 83.040,260.800 82.813 C 260.800 82.586,260.530 82.400,260.200 82.400 C 259.870 82.400,259.265 82.065,258.855 81.655 C 258.446 81.246,257.546 80.577,256.855 80.169 C 256.165 79.761,255.600 79.286,255.600 79.114 C 255.600 78.941,255.344 78.800,255.031 78.800 C 254.718 78.800,253.953 78.388,253.331 77.884 C 252.709 77.381,250.940 76.349,249.400 75.592 C 247.860 74.835,246.510 74.103,246.400 73.964 C 246.290 73.826,245.525 73.471,244.700 73.176 C 243.875 72.881,243.200 72.502,243.200 72.335 C 243.200 72.168,242.299 71.763,241.197 71.436 C 240.096 71.109,238.796 70.562,238.308 70.221 C 237.821 69.879,237.054 69.600,236.605 69.600 C 236.156 69.600,235.140 69.253,234.348 68.828 C 233.556 68.404,232.209 67.934,231.354 67.783 C 230.499 67.633,229.402 67.261,228.915 66.956 C 228.428 66.651,226.732 66.217,225.146 65.992 C 223.560 65.767,222.017 65.380,221.717 65.131 C 221.418 64.883,219.401 64.529,217.235 64.346 C 215.069 64.163,212.150 63.743,210.749 63.413 C 207.311 62.602,192.154 62.627,188.400 63.450 M208.403 82.810 C 209.171 83.036,211.560 83.392,213.711 83.602 C 215.861 83.812,217.986 84.178,218.431 84.417 C 218.877 84.655,220.357 85.104,221.721 85.414 C 225.749 86.329,232.472 88.938,237.200 91.421 C 237.750 91.710,238.920 92.317,239.800 92.770 C 240.680 93.224,241.940 93.950,242.600 94.385 C 243.260 94.820,244.340 95.479,245.000 95.849 C 245.660 96.219,247.135 97.259,248.277 98.161 C 249.420 99.062,251.193 100.420,252.218 101.178 C 255.231 103.406,263.806 112.143,264.797 113.994 C 265.016 114.403,265.423 114.977,265.703 115.269 C 265.982 115.561,266.518 116.250,266.894 116.800 C 267.270 117.350,268.210 118.700,268.983 119.800 C 269.755 120.900,270.391 121.942,270.394 122.116 C 270.397 122.290,270.760 122.965,271.200 123.616 C 273.113 126.447,273.528 127.220,275.267 131.200 C 277.505 136.322,278.608 139.230,279.210 141.600 C 279.461 142.590,279.908 144.210,280.202 145.200 C 282.619 153.331,283.401 171.281,281.630 177.980 C 281.372 178.959,280.990 181.099,280.783 182.735 C 280.575 184.372,280.244 185.911,280.047 186.156 C 279.850 186.400,279.457 187.680,279.174 189.000 C 278.891 190.320,278.421 191.755,278.130 192.189 C 277.838 192.623,277.600 193.230,277.600 193.539 C 277.600 194.569,274.569 201.204,271.999 205.800 C 271.384 206.900,270.572 208.385,270.195 209.100 C 269.817 209.815,269.378 210.400,269.219 210.400 C 269.059 210.400,268.720 210.857,268.466 211.415 C 268.212 211.973,267.816 212.648,267.588 212.915 C 267.167 213.407,264.662 217.122,263.148 219.500 C 262.693 220.215,262.159 220.800,261.960 220.800 C 261.762 220.800,261.600 220.996,261.600 221.235 C 261.600 221.623,259.347 225.098,258.770 225.600 C 258.643 225.710,257.793 226.880,256.881 228.200 C 255.968 229.520,254.648 231.410,253.945 232.400 C 253.243 233.390,251.751 235.551,250.629 237.203 C 248.603 240.185,246.403 243.217,245.988 243.600 C 245.868 243.710,245.197 244.700,244.496 245.800 C 243.795 246.900,242.993 248.064,242.714 248.387 C 242.435 248.709,241.834 249.519,241.379 250.187 C 240.924 250.854,239.752 252.542,238.776 253.937 C 237.799 255.332,236.730 256.881,236.400 257.377 C 235.069 259.382,234.207 260.610,234.000 260.800 C 233.880 260.910,233.426 261.520,232.991 262.156 C 232.556 262.792,231.794 263.872,231.299 264.556 C 230.168 266.116,228.387 268.650,227.600 269.818 C 226.462 271.507,223.179 276.204,222.091 277.698 C 221.491 278.522,219.920 280.772,218.600 282.698 C 217.280 284.624,216.106 286.290,215.991 286.400 C 215.876 286.510,215.426 287.120,214.991 287.756 C 214.556 288.392,213.840 289.403,213.400 290.004 C 212.960 290.604,211.748 292.333,210.707 293.847 C 208.682 296.793,207.185 298.893,204.613 302.400 C 203.726 303.610,202.820 304.889,202.600 305.242 C 200.077 309.292,200.058 309.300,198.218 307.099 C 196.873 305.490,194.842 302.658,190.400 296.200 C 190.070 295.720,189.260 294.553,188.600 293.607 C 187.940 292.660,187.220 291.589,187.000 291.227 C 186.780 290.865,185.947 289.766,185.150 288.784 C 184.352 287.803,183.403 286.415,183.040 285.700 C 182.676 284.985,182.204 284.400,181.990 284.400 C 181.775 284.400,181.600 284.221,181.600 284.003 C 181.600 283.785,180.015 281.400,178.078 278.703 C 176.141 276.006,174.428 273.530,174.271 273.200 C 174.114 272.870,173.446 271.880,172.787 271.000 C 172.127 270.120,170.921 268.410,170.107 267.200 C 169.294 265.990,168.473 264.891,168.283 264.757 C 168.094 264.624,167.637 264.060,167.269 263.504 C 164.446 259.239,159.557 252.305,158.926 251.671 C 158.637 251.381,158.400 250.992,158.400 250.808 C 158.400 250.624,157.623 249.512,156.672 248.337 C 155.722 247.162,154.824 245.930,154.677 245.600 C 154.530 245.270,153.502 243.740,152.392 242.200 C 151.282 240.660,149.525 238.161,148.487 236.647 C 147.449 235.133,146.240 233.410,145.800 232.817 C 145.360 232.225,144.142 230.493,143.093 228.970 C 141.078 226.043,139.266 223.489,136.869 220.200 C 136.068 219.100,135.229 217.898,135.006 217.528 C 134.783 217.159,133.510 215.269,132.178 213.328 C 130.847 211.388,129.630 209.530,129.476 209.200 C 129.321 208.870,128.740 207.880,128.184 207.000 C 125.943 203.451,121.936 194.507,120.926 190.800 C 120.596 189.590,120.179 188.420,119.998 188.200 C 119.818 187.980,119.462 186.630,119.208 185.200 C 118.954 183.770,118.495 181.700,118.188 180.600 C 116.746 175.430,116.766 154.174,118.217 149.600 C 118.532 148.610,119.045 146.540,119.359 145.000 C 119.953 142.084,120.827 139.325,122.021 136.600 C 122.406 135.720,122.841 134.427,122.987 133.728 C 123.132 133.028,123.510 132.241,123.826 131.979 C 124.142 131.717,124.400 131.265,124.400 130.975 C 124.400 130.686,124.994 129.313,125.720 127.924 C 127.631 124.270,128.862 122.282,133.347 115.600 C 135.318 112.665,142.724 104.940,146.671 101.704 C 150.877 98.255,156.367 94.400,157.073 94.400 C 157.309 94.400,157.711 94.148,157.967 93.840 C 158.424 93.289,163.967 90.400,164.567 90.400 C 164.736 90.400,165.331 90.040,165.891 89.600 C 166.450 89.160,167.171 88.800,167.493 88.800 C 167.816 88.800,168.646 88.539,169.340 88.221 C 171.465 87.245,175.271 85.985,177.924 85.379 C 179.313 85.062,180.768 84.631,181.158 84.422 C 181.549 84.213,183.563 83.851,185.634 83.616 C 187.705 83.382,190.120 83.033,191.000 82.841 C 193.279 82.344,206.734 82.320,208.403 82.810 M167.451 126.416 C 166.159 126.618,164.899 126.936,164.651 127.122 C 164.403 127.308,163.426 127.681,162.479 127.952 C 153.262 130.589,144.236 140.702,141.651 151.286 C 139.617 159.615,140.856 167.679,145.477 176.200 C 147.521 179.968,191.408 224.330,195.271 226.533 C 197.850 228.003,201.200 228.019,204.051 226.574 C 205.791 225.693,247.741 184.391,251.395 179.963 C 253.271 177.689,255.340 173.902,256.949 169.800 C 259.150 164.186,259.039 152.694,256.735 147.600 C 254.613 142.907,253.548 140.855,252.998 140.399 C 252.669 140.126,252.400 139.708,252.400 139.470 C 252.400 138.900,244.911 131.600,244.327 131.600 C 244.079 131.600,243.319 131.195,242.638 130.700 C 236.830 126.477,223.814 124.627,217.000 127.055 C 215.680 127.526,214.017 128.034,213.305 128.186 C 212.592 128.338,211.910 128.623,211.788 128.819 C 211.666 129.016,210.809 129.538,209.883 129.979 C 207.380 131.171,203.943 133.726,201.114 136.500 C 199.901 137.689,199.123 137.387,196.162 134.575 C 189.136 127.902,178.063 124.756,167.451 126.416 M178.400 146.190 C 178.950 146.508,179.848 147.000,180.395 147.284 C 181.757 147.991,182.086 148.286,188.103 154.200 C 195.316 161.288,195.783 161.584,199.822 161.593 C 203.776 161.602,203.643 161.689,211.621 153.856 C 220.403 145.233,225.428 143.464,231.463 146.870 C 233.843 148.213,237.200 151.211,237.200 151.993 C 237.200 152.248,237.452 152.709,237.759 153.016 C 239.227 154.484,238.993 163.490,237.429 165.796 C 236.493 167.174,232.776 171.193,230.444 173.347 C 229.698 174.036,228.078 175.656,226.844 176.947 C 225.610 178.238,223.997 179.858,223.261 180.547 C 222.524 181.236,219.734 184.022,217.061 186.739 C 214.387 189.455,211.657 192.191,210.993 192.819 C 210.329 193.446,207.719 196.037,205.193 198.577 C 202.044 201.743,200.316 203.196,199.696 203.198 C 198.026 203.202,161.600 166.307,161.600 164.611 C 161.600 164.257,161.240 163.262,160.800 162.400 C 160.347 161.513,160.000 160.042,160.000 159.014 C 160.000 157.961,160.336 156.569,160.800 155.704 C 161.240 154.884,161.600 153.949,161.600 153.627 C 161.600 153.004,163.524 149.979,164.206 149.532 C 164.430 149.385,165.115 148.800,165.727 148.232 C 166.340 147.665,167.164 147.200,167.559 147.200 C 167.953 147.200,168.602 146.840,169.000 146.400 C 169.925 145.378,176.733 145.226,178.400 146.190 " stroke="none" fill="#862527" fill-rule="evenodd"></path><path id="path1" d="M189.420 83.619 C 186.132 84.007,182.532 84.601,181.420 84.939 C 180.309 85.278,178.590 85.729,177.600 85.943 C 175.615 86.372,172.663 87.373,170.200 88.452 C 169.320 88.838,168.060 89.281,167.400 89.438 C 166.740 89.595,166.110 89.839,166.000 89.980 C 165.890 90.121,164.363 90.939,162.607 91.799 C 160.850 92.658,158.384 94.045,157.126 94.881 C 155.868 95.716,154.676 96.400,154.478 96.400 C 154.279 96.400,153.596 96.855,152.958 97.411 C 151.442 98.735,151.197 98.923,149.796 99.832 C 149.146 100.254,148.319 100.870,147.960 101.200 C 147.601 101.530,146.357 102.610,145.196 103.600 C 143.249 105.259,141.822 106.684,137.342 111.443 C 136.430 112.412,135.575 113.428,135.442 113.702 C 135.309 113.976,134.570 115.010,133.800 116.000 C 133.029 116.990,132.191 118.205,131.935 118.700 C 131.680 119.195,131.319 119.600,131.133 119.600 C 130.946 119.600,130.505 120.320,130.153 121.200 C 129.801 122.080,129.371 122.800,129.198 122.800 C 128.790 122.800,123.200 133.918,123.200 134.730 C 123.200 135.069,122.864 136.079,122.453 136.974 C 121.380 139.310,119.985 143.784,119.389 146.800 C 117.514 156.286,117.520 156.222,117.694 167.193 C 117.826 175.493,117.997 178.150,118.481 179.409 C 118.822 180.294,119.234 182.184,119.397 183.609 C 119.561 185.034,120.008 186.830,120.391 187.600 C 120.774 188.370,121.205 189.764,121.348 190.697 C 121.491 191.631,121.966 192.981,122.403 193.697 C 122.840 194.414,123.198 195.324,123.199 195.721 C 123.199 196.117,123.545 197.107,123.967 197.921 C 124.389 198.734,124.927 199.850,125.164 200.400 C 125.401 200.950,125.746 201.670,125.932 202.000 C 126.119 202.330,126.557 203.140,126.907 203.800 C 128.347 206.517,130.877 210.701,131.986 212.200 C 132.637 213.080,133.470 214.331,133.837 214.980 C 134.204 215.630,134.750 216.408,135.052 216.709 C 135.353 217.010,135.600 217.416,135.600 217.610 C 135.600 217.805,136.005 218.387,136.500 218.905 C 136.995 219.423,137.630 220.196,137.910 220.623 C 138.191 221.050,138.731 221.872,139.110 222.450 C 140.313 224.281,141.302 225.692,144.400 230.000 C 147.275 233.997,148.240 235.375,149.600 237.423 C 150.737 239.135,153.709 243.351,154.078 243.775 C 154.454 244.208,155.825 246.300,156.664 247.722 C 156.919 248.154,157.279 248.619,157.464 248.754 C 157.649 248.889,158.519 250.080,159.398 251.400 C 160.277 252.720,161.188 253.980,161.423 254.200 C 161.810 254.563,164.089 257.810,165.600 260.151 C 167.221 262.662,168.752 264.781,170.106 266.385 C 170.643 267.021,170.979 267.535,172.200 269.578 C 172.640 270.315,173.315 271.201,173.700 271.548 C 174.085 271.894,174.400 272.376,174.400 272.619 C 174.400 272.862,174.850 273.483,175.400 274.000 C 175.950 274.517,176.400 275.165,176.400 275.441 C 176.400 275.717,176.694 276.237,177.054 276.597 C 177.692 277.235,179.347 279.564,182.315 284.000 C 183.124 285.210,184.104 286.549,184.493 286.975 C 184.882 287.402,185.200 287.884,185.200 288.047 C 185.200 288.210,185.515 288.657,185.900 289.042 C 186.285 289.426,187.182 290.654,187.893 291.770 C 189.159 293.756,189.436 294.145,191.335 296.600 C 191.846 297.260,192.384 298.070,192.532 298.400 C 192.679 298.730,193.418 299.810,194.174 300.800 C 194.930 301.790,196.132 303.509,196.847 304.619 C 198.282 306.850,200.056 308.432,200.301 307.698 C 200.427 307.319,201.787 305.436,203.115 303.800 C 203.294 303.580,203.785 302.815,204.206 302.100 C 204.628 301.385,205.092 300.800,205.238 300.800 C 205.384 300.800,205.727 300.260,206.000 299.600 C 206.273 298.940,206.660 298.400,206.858 298.400 C 207.057 298.400,207.399 297.995,207.618 297.500 C 207.838 297.005,208.563 295.880,209.231 295.000 C 209.898 294.120,210.812 292.815,211.262 292.100 C 211.711 291.385,212.229 290.800,212.413 290.800 C 212.596 290.800,212.872 290.395,213.027 289.900 C 213.181 289.405,214.004 288.165,214.854 287.144 C 215.704 286.124,216.400 285.177,216.400 285.041 C 216.400 284.803,218.123 282.278,219.430 280.600 C 219.773 280.160,220.938 278.540,222.019 277.000 C 223.100 275.460,224.262 273.840,224.602 273.400 C 224.941 272.960,226.225 271.070,227.455 269.200 C 228.685 267.330,230.031 265.428,230.446 264.974 C 230.861 264.520,231.200 263.944,231.200 263.694 C 231.200 263.444,231.431 263.096,231.714 262.920 C 232.180 262.630,234.217 259.794,236.137 256.763 C 236.542 256.123,237.037 255.600,237.237 255.600 C 237.437 255.600,237.600 255.416,237.600 255.190 C 237.600 254.722,240.008 251.134,240.964 250.179 C 241.314 249.829,241.600 249.286,241.600 248.971 C 241.600 248.657,241.741 248.400,241.914 248.400 C 242.086 248.400,242.570 247.815,242.989 247.100 C 243.407 246.385,243.994 245.617,244.292 245.393 C 244.589 245.169,245.051 244.590,245.317 244.106 C 245.582 243.622,246.700 241.939,247.800 240.367 C 248.900 238.795,250.070 237.096,250.400 236.592 C 251.840 234.390,254.586 230.556,255.071 230.072 C 255.362 229.781,255.600 229.410,255.600 229.247 C 255.600 229.084,255.916 228.602,256.303 228.175 C 256.690 227.749,257.365 226.878,257.803 226.240 C 258.241 225.603,258.870 224.686,259.200 224.204 C 259.530 223.722,260.340 222.550,261.000 221.600 C 261.660 220.650,262.470 219.480,262.800 219.000 C 263.130 218.520,263.940 217.352,264.600 216.404 C 265.260 215.456,265.980 214.399,266.200 214.054 C 266.420 213.710,267.243 212.522,268.030 211.414 C 268.816 210.306,270.116 208.177,270.919 206.682 C 271.722 205.188,272.654 203.573,272.990 203.093 C 273.325 202.614,273.600 201.924,273.600 201.560 C 273.600 201.196,273.848 200.692,274.150 200.441 C 274.453 200.190,274.925 199.182,275.200 198.200 C 275.475 197.218,275.947 196.210,276.250 195.959 C 276.552 195.708,276.802 195.119,276.804 194.651 C 276.806 194.183,277.250 192.900,277.791 191.800 C 278.332 190.700,278.785 189.260,278.796 188.600 C 278.808 187.940,279.149 186.670,279.555 185.778 C 279.960 184.885,280.420 182.725,280.577 180.978 C 280.734 179.230,281.146 176.810,281.492 175.600 C 282.355 172.585,282.346 158.639,281.479 154.600 C 281.148 153.060,280.749 150.630,280.592 149.200 C 280.435 147.770,280.074 146.146,279.791 145.592 C 279.507 145.037,279.091 143.597,278.868 142.392 C 278.644 141.186,278.175 139.660,277.827 139.000 C 277.478 138.340,277.082 137.128,276.946 136.308 C 276.811 135.487,276.453 134.610,276.150 134.359 C 275.848 134.107,275.600 133.713,275.600 133.483 C 275.600 133.252,275.082 131.969,274.450 130.632 C 273.817 129.294,273.178 127.930,273.030 127.600 C 272.883 127.270,272.322 126.280,271.784 125.400 C 271.246 124.520,270.515 123.170,270.160 122.400 C 269.805 121.630,269.263 120.856,268.957 120.680 C 268.651 120.504,268.398 120.144,268.395 119.880 C 268.389 119.379,267.240 117.779,265.700 116.129 C 265.205 115.598,264.800 115.006,264.800 114.813 C 264.800 113.949,255.690 104.577,252.000 101.645 C 250.570 100.509,249.137 99.359,248.815 99.090 C 248.173 98.553,247.637 98.202,245.618 97.000 C 244.879 96.560,243.982 95.930,243.625 95.600 C 243.268 95.270,242.351 94.683,241.588 94.294 C 240.824 93.906,239.390 93.124,238.400 92.556 C 237.410 91.987,236.060 91.334,235.400 91.105 C 234.740 90.875,233.930 90.467,233.600 90.199 C 233.270 89.930,232.190 89.428,231.200 89.083 C 230.210 88.737,228.140 87.975,226.600 87.389 C 225.060 86.804,222.900 86.138,221.800 85.911 C 220.700 85.684,219.089 85.238,218.219 84.920 C 213.459 83.179,198.775 82.515,189.420 83.619 M181.200 126.178 C 184.631 127.060,187.312 128.068,188.354 128.868 C 188.879 129.271,189.546 129.600,189.836 129.600 C 190.772 129.600,195.409 133.000,197.788 135.430 C 199.350 137.026,199.952 136.955,202.214 134.908 C 204.202 133.109,204.746 132.670,207.200 130.886 C 208.324 130.069,212.672 127.962,214.800 127.204 C 220.640 125.122,232.900 125.024,235.772 127.036 C 236.215 127.346,236.893 127.600,237.277 127.600 C 238.625 127.600,244.974 131.135,245.720 132.300 C 245.896 132.575,246.254 132.800,246.516 132.800 C 247.014 132.800,252.800 138.760,252.800 139.273 C 252.800 139.436,253.138 139.891,253.550 140.284 C 253.963 140.678,254.438 141.450,254.605 142.000 C 254.773 142.550,255.245 143.429,255.655 143.954 C 256.065 144.479,256.400 145.148,256.400 145.442 C 256.400 145.735,256.752 146.656,257.182 147.488 C 257.612 148.319,258.155 150.260,258.388 151.800 C 258.622 153.340,259.012 155.410,259.255 156.400 C 259.581 157.730,259.575 158.931,259.232 161.000 C 258.976 162.540,258.593 164.937,258.381 166.327 C 258.169 167.716,257.637 169.641,257.198 170.605 C 256.759 171.568,256.400 172.522,256.400 172.724 C 256.400 172.927,256.065 173.521,255.655 174.046 C 255.245 174.571,254.771 175.450,254.601 176.000 C 253.914 178.225,206.942 226.400,205.460 226.400 C 205.242 226.400,204.732 226.700,204.327 227.066 C 203.411 227.895,197.885 228.290,196.400 227.632 C 193.697 226.436,191.119 224.038,171.494 204.458 C 152.423 185.431,148.059 180.905,146.507 178.548 C 146.236 178.137,145.592 177.162,145.075 176.383 C 143.657 174.242,142.108 170.790,141.780 169.037 C 141.619 168.178,141.244 167.008,140.946 166.437 C 139.340 163.358,140.883 148.070,143.052 145.569 C 143.354 145.221,143.603 144.681,143.606 144.369 C 143.609 144.056,144.247 142.900,145.024 141.800 C 145.800 140.700,146.742 139.336,147.118 138.769 C 149.265 135.526,155.454 130.202,158.008 129.401 C 158.553 129.230,159.429 128.755,159.954 128.345 C 160.479 127.935,161.253 127.600,161.674 127.600 C 162.095 127.600,162.962 127.330,163.601 126.999 C 166.269 125.620,177.068 125.116,181.200 126.178 " stroke="none" fill="#d4649c" fill-rule="evenodd"></path><path id="path2" d="M0.000 200.000 L 0.000 400.000 200.000 400.000 L 400.000 400.000 400.000 200.000 L 400.000 0.000 200.000 0.000 L 0.000 0.000 0.000 200.000 M208.800 61.983 C 211.550 62.177,214.873 62.620,216.184 62.968 C 217.495 63.315,219.222 63.600,220.021 63.600 C 220.821 63.600,222.486 63.948,223.722 64.373 C 224.958 64.798,226.831 65.268,227.885 65.417 C 228.938 65.565,230.176 65.923,230.636 66.211 C 231.096 66.499,232.266 66.938,233.236 67.186 C 234.206 67.435,235.540 67.890,236.200 68.198 C 236.860 68.506,237.882 68.858,238.472 68.980 C 239.062 69.102,239.825 69.482,240.168 69.825 C 240.511 70.168,241.416 70.550,242.179 70.674 C 242.942 70.798,243.871 71.237,244.245 71.650 C 244.618 72.062,245.232 72.400,245.608 72.400 C 245.984 72.400,246.721 72.734,247.246 73.142 C 247.771 73.550,248.875 74.104,249.700 74.373 C 250.525 74.642,251.200 75.030,251.200 75.234 C 251.200 75.439,251.920 75.895,252.800 76.247 C 253.680 76.599,254.400 77.035,254.400 77.216 C 254.400 77.398,254.805 77.671,255.300 77.824 C 255.795 77.976,256.470 78.361,256.800 78.679 C 257.130 78.997,257.940 79.602,258.600 80.023 C 261.403 81.811,261.159 81.630,265.206 84.933 C 266.639 86.103,268.651 87.857,269.678 88.830 C 270.705 89.804,271.782 90.802,272.072 91.049 C 273.533 92.292,281.600 101.354,281.600 101.753 C 281.600 101.889,281.915 102.349,282.300 102.775 C 283.745 104.374,286.238 107.883,286.765 109.061 C 286.977 109.535,287.344 110.042,287.581 110.188 C 287.818 110.335,288.286 111.027,288.620 111.727 C 288.955 112.427,289.661 113.720,290.190 114.600 C 290.719 115.480,291.717 117.370,292.408 118.800 C 293.098 120.230,294.099 122.237,294.632 123.259 C 295.164 124.281,295.600 125.430,295.600 125.812 C 295.600 126.193,295.945 127.067,296.366 127.753 C 296.788 128.439,297.258 129.677,297.412 130.504 C 297.565 131.332,298.030 132.675,298.445 133.489 C 298.860 134.303,299.201 135.426,299.202 135.985 C 299.204 136.543,299.480 137.528,299.817 138.173 C 300.153 138.818,300.612 140.665,300.836 142.276 C 301.060 143.888,301.500 145.820,301.813 146.569 C 302.167 147.417,302.543 150.776,302.807 155.466 C 303.041 159.610,303.325 163.265,303.438 163.589 C 303.902 164.919,302.256 183.410,301.603 184.196 C 301.370 184.477,301.070 185.944,300.936 187.454 C 300.803 188.964,300.378 190.920,299.992 191.800 C 299.605 192.680,299.162 194.210,299.006 195.200 C 298.850 196.190,298.494 197.363,298.214 197.806 C 297.934 198.249,297.567 199.239,297.399 200.006 C 297.231 200.773,296.757 202.027,296.347 202.794 C 295.936 203.561,295.594 204.461,295.588 204.794 C 295.581 205.127,295.132 206.120,294.590 207.000 C 294.048 207.880,293.603 208.893,293.602 209.251 C 293.601 209.609,293.359 210.102,293.065 210.346 C 292.770 210.591,292.313 211.513,292.049 212.395 C 291.784 213.278,291.422 214.000,291.245 214.000 C 291.067 214.000,290.617 214.675,290.245 215.500 C 289.310 217.572,288.333 219.251,287.287 220.581 C 286.799 221.201,286.400 221.954,286.400 222.254 C 286.400 222.554,286.221 222.800,286.003 222.800 C 285.785 222.800,285.290 223.396,284.903 224.126 C 283.659 226.470,282.331 228.400,281.960 228.400 C 281.762 228.400,281.600 228.578,281.600 228.795 C 281.600 229.353,278.697 233.600,278.315 233.600 C 278.142 233.600,278.000 233.845,278.000 234.145 C 278.000 234.621,276.666 236.575,275.105 238.385 C 274.827 238.707,274.420 239.267,274.200 239.628 C 273.613 240.593,271.802 243.169,270.422 245.000 C 269.759 245.880,269.054 246.960,268.854 247.400 C 268.655 247.840,268.111 248.543,267.646 248.962 C 267.181 249.381,266.800 249.966,266.800 250.262 C 266.800 250.558,266.616 250.800,266.390 250.800 C 266.165 250.800,265.800 251.205,265.580 251.700 C 265.179 252.600,263.790 254.695,262.596 256.200 C 261.716 257.308,259.325 260.735,258.340 262.300 C 257.889 263.015,257.359 263.600,257.160 263.600 C 256.962 263.600,256.800 263.845,256.800 264.145 C 256.800 264.650,255.292 266.858,253.825 268.500 C 253.481 268.885,253.200 269.380,253.200 269.600 C 253.200 269.820,252.850 270.350,252.421 270.779 C 251.993 271.207,251.358 272.107,251.011 272.779 C 250.664 273.450,250.222 274.000,250.029 274.000 C 249.836 274.000,249.490 274.540,249.260 275.200 C 249.030 275.860,248.674 276.400,248.469 276.400 C 248.265 276.400,247.873 276.940,247.600 277.600 C 247.327 278.260,246.974 278.800,246.816 278.800 C 246.658 278.800,245.735 279.997,244.765 281.459 C 243.794 282.922,242.550 284.750,242.000 285.522 C 240.224 288.016,239.816 288.613,238.860 290.119 C 238.344 290.934,237.781 291.600,237.609 291.600 C 237.437 291.600,237.073 292.140,236.800 292.800 C 236.527 293.460,236.157 294.000,235.978 294.000 C 235.800 294.000,235.550 294.328,235.422 294.729 C 235.295 295.131,234.876 295.806,234.492 296.229 C 234.108 296.653,233.435 297.522,232.997 298.160 C 232.559 298.797,231.930 299.714,231.600 300.196 C 231.270 300.678,230.507 301.776,229.904 302.636 C 229.302 303.496,228.495 304.650,228.111 305.200 C 227.728 305.750,227.186 306.344,226.907 306.520 C 226.628 306.696,226.400 307.076,226.400 307.365 C 226.400 307.801,225.400 309.288,223.685 311.400 C 223.506 311.620,223.015 312.385,222.594 313.100 C 222.172 313.815,221.708 314.400,221.562 314.400 C 221.416 314.400,221.073 314.940,220.800 315.600 C 220.527 316.260,220.140 316.800,219.942 316.800 C 219.743 316.800,219.401 317.205,219.182 317.700 C 218.962 318.195,218.237 319.320,217.569 320.200 C 216.902 321.080,215.988 322.385,215.538 323.100 C 215.089 323.815,214.559 324.400,214.360 324.400 C 214.162 324.400,214.000 324.645,214.000 324.945 C 214.000 325.427,212.637 327.450,211.125 329.212 C 210.836 329.549,210.330 330.343,210.000 330.978 C 208.836 333.216,205.472 336.313,203.880 336.611 C 203.061 336.765,202.293 337.050,202.172 337.245 C 200.834 339.410,190.000 334.387,190.000 331.602 C 190.000 331.412,189.775 331.019,189.500 330.729 C 188.885 330.078,186.745 327.247,186.200 326.363 C 185.980 326.006,185.260 324.943,184.600 324.000 C 183.940 323.057,183.220 321.990,183.000 321.628 C 182.780 321.267,182.377 320.707,182.105 320.385 C 180.810 318.853,178.800 315.953,178.800 315.616 C 178.800 315.409,178.575 315.096,178.300 314.920 C 178.025 314.744,177.572 314.240,177.294 313.800 C 175.634 311.173,175.202 310.540,174.706 310.000 C 174.023 309.258,171.190 305.071,170.466 303.734 C 170.172 303.192,169.677 302.651,169.366 302.532 C 169.055 302.412,168.800 302.092,168.800 301.819 C 168.800 301.547,168.350 300.801,167.800 300.162 C 167.251 299.523,166.801 298.897,166.800 298.772 C 166.800 298.647,165.902 297.387,164.804 295.972 C 163.706 294.557,162.806 293.175,162.804 292.900 C 162.802 292.625,162.616 292.400,162.390 292.400 C 162.165 292.400,161.801 291.995,161.582 291.500 C 161.362 291.005,160.644 289.880,159.985 289.000 C 159.326 288.120,158.130 286.410,157.326 285.200 C 156.522 283.990,155.653 282.820,155.394 282.600 C 155.135 282.380,154.621 281.615,154.251 280.900 C 153.882 280.185,153.404 279.600,153.190 279.600 C 152.975 279.600,152.800 279.356,152.800 279.058 C 152.800 278.761,152.364 278.046,151.831 277.471 C 151.298 276.896,150.746 276.060,150.604 275.613 C 150.462 275.166,150.207 274.800,150.038 274.800 C 149.747 274.800,146.913 270.748,145.600 268.455 C 145.270 267.878,144.685 267.170,144.300 266.881 C 143.915 266.591,143.597 266.140,143.593 265.877 C 143.589 265.615,143.139 264.976,142.593 264.458 C 142.047 263.940,141.600 263.343,141.600 263.131 C 141.600 262.809,139.869 260.259,139.202 259.600 C 138.630 259.034,136.400 255.523,136.400 255.188 C 136.400 254.975,136.238 254.800,136.040 254.800 C 135.841 254.800,135.311 254.215,134.862 253.500 C 134.412 252.785,133.497 251.480,132.829 250.600 C 132.161 249.720,131.490 248.730,131.339 248.400 C 131.188 248.070,130.644 247.291,130.132 246.669 C 129.619 246.047,129.200 245.302,129.200 245.012 C 129.200 244.723,128.927 244.381,128.594 244.253 C 128.261 244.125,127.815 243.566,127.604 243.010 C 127.393 242.455,127.047 242.000,126.837 242.000 C 126.626 242.000,126.340 241.641,126.201 241.202 C 126.062 240.764,125.734 240.179,125.474 239.902 C 124.862 239.254,122.718 236.406,122.200 235.555 C 121.520 234.437,118.084 229.485,116.818 227.800 C 116.158 226.920,115.452 225.833,115.250 225.384 C 115.048 224.935,114.595 224.327,114.242 224.035 C 113.889 223.742,113.600 223.268,113.600 222.982 C 113.600 222.696,113.181 221.953,112.668 221.331 C 112.156 220.709,111.604 219.930,111.442 219.600 C 111.143 218.992,110.018 217.020,107.753 213.137 C 107.068 211.962,106.379 210.415,106.222 209.700 C 106.065 208.985,105.800 208.400,105.632 208.400 C 105.225 208.400,104.400 206.546,104.400 205.630 C 104.400 205.227,104.150 204.690,103.844 204.437 C 103.539 204.183,103.082 203.155,102.829 202.151 C 102.577 201.147,102.124 199.937,101.823 199.463 C 101.523 198.988,101.152 197.790,101.000 196.800 C 100.848 195.810,100.486 194.625,100.196 194.167 C 99.906 193.708,99.552 192.448,99.408 191.367 C 99.265 190.285,98.806 188.410,98.389 187.200 C 97.973 185.990,97.453 183.110,97.234 180.800 C 97.016 178.490,96.639 175.700,96.397 174.600 C 95.822 171.984,95.800 159.780,96.363 156.200 C 96.606 154.660,97.045 151.326,97.340 148.790 C 97.634 146.255,98.100 143.761,98.374 143.249 C 98.648 142.737,99.036 141.160,99.236 139.744 C 99.437 138.329,99.853 136.772,100.162 136.285 C 100.471 135.798,100.848 134.590,101.000 133.600 C 101.152 132.610,101.523 131.412,101.823 130.937 C 102.124 130.463,102.577 129.253,102.829 128.249 C 103.082 127.245,103.539 126.217,103.844 125.963 C 104.150 125.710,104.400 125.146,104.400 124.710 C 104.400 124.274,104.833 123.081,105.363 122.059 C 105.892 121.037,106.819 119.210,107.421 118.000 C 108.024 116.790,108.731 115.530,108.992 115.200 C 109.254 114.870,109.700 114.015,109.983 113.300 C 110.266 112.585,110.643 112.000,110.822 112.000 C 111.000 112.000,111.273 111.595,111.428 111.100 C 111.583 110.605,112.135 109.691,112.655 109.069 C 113.175 108.447,113.600 107.702,113.600 107.412 C 113.600 107.123,113.873 106.781,114.206 106.653 C 114.539 106.525,114.994 106.011,115.216 105.510 C 116.024 103.691,118.888 100.145,123.100 95.747 C 124.475 94.312,125.604 93.016,125.609 92.869 C 125.613 92.721,126.267 92.060,127.061 91.400 C 127.856 90.740,128.874 89.795,129.325 89.300 C 129.776 88.805,130.370 88.400,130.645 88.400 C 130.921 88.400,131.260 88.040,131.400 87.600 C 131.540 87.160,131.803 86.800,131.985 86.800 C 132.167 86.800,133.142 86.035,134.152 85.100 C 135.162 84.165,136.633 82.950,137.422 82.400 C 138.210 81.850,139.364 80.995,139.985 80.500 C 140.607 80.005,141.244 79.600,141.400 79.600 C 141.556 79.600,142.219 79.150,142.873 78.600 C 143.527 78.050,144.318 77.600,144.631 77.600 C 144.944 77.600,145.200 77.422,145.200 77.205 C 145.200 76.988,145.785 76.526,146.500 76.178 C 148.866 75.026,151.085 73.806,151.647 73.349 C 151.951 73.101,152.650 72.762,153.200 72.596 C 153.750 72.431,154.678 71.959,155.262 71.548 C 155.846 71.136,156.567 70.800,156.865 70.800 C 157.163 70.800,158.252 70.350,159.285 69.800 C 160.318 69.250,161.492 68.800,161.893 68.800 C 162.294 68.800,162.994 68.540,163.448 68.222 C 163.902 67.904,165.157 67.426,166.237 67.160 C 167.316 66.893,168.555 66.434,168.989 66.138 C 169.423 65.842,170.255 65.600,170.838 65.600 C 171.421 65.600,173.276 65.150,174.961 64.600 C 176.646 64.050,178.694 63.598,179.512 63.595 C 180.331 63.593,181.990 63.310,183.200 62.966 C 187.272 61.811,199.634 61.336,208.800 61.983 M169.799 147.345 C 164.740 149.507,161.678 153.820,161.618 158.869 C 161.593 160.947,162.461 164.540,163.079 164.920 C 163.366 165.096,163.600 165.470,163.600 165.752 C 163.600 166.293,199.496 202.400,200.034 202.400 C 200.205 202.400,200.460 202.040,200.600 201.600 C 200.740 201.160,201.000 200.800,201.178 200.800 C 202.219 200.800,235.712 166.515,236.713 164.424 C 239.947 157.672,236.716 150.078,229.489 147.448 C 223.551 145.287,220.949 146.383,212.505 154.600 C 209.114 157.900,206.151 160.668,205.920 160.750 C 205.689 160.833,205.189 161.211,204.808 161.592 C 203.543 162.857,197.272 163.049,195.025 161.891 C 193.857 161.289,193.570 161.028,187.560 155.100 C 184.494 152.075,181.817 149.600,181.612 149.600 C 181.407 149.600,181.096 149.362,180.920 149.071 C 179.646 146.963,173.078 145.943,169.799 147.345 " stroke="none" fill="#fbfbfb" fill-rule="evenodd"></path><path id="path3" d="M189.800 62.032 C 187.380 62.203,184.410 62.623,183.200 62.966 C 181.990 63.310,180.331 63.593,179.512 63.595 C 178.694 63.598,176.646 64.050,174.961 64.600 C 173.276 65.150,171.421 65.600,170.838 65.600 C 170.255 65.600,169.423 65.842,168.989 66.138 C 168.555 66.434,167.316 66.893,166.237 67.160 C 165.157 67.426,163.902 67.904,163.448 68.222 C 162.994 68.540,162.294 68.800,161.893 68.800 C 161.492 68.800,160.318 69.250,159.285 69.800 C 158.252 70.350,157.163 70.800,156.865 70.800 C 156.567 70.800,155.846 71.136,155.262 71.548 C 154.678 71.959,153.750 72.431,153.200 72.596 C 152.650 72.762,151.951 73.101,151.647 73.349 C 151.085 73.806,148.866 75.026,146.500 76.178 C 145.785 76.526,145.200 76.988,145.200 77.205 C 145.200 77.422,144.944 77.600,144.631 77.600 C 144.318 77.600,143.527 78.050,142.873 78.600 C 142.219 79.150,141.556 79.600,141.400 79.600 C 141.244 79.600,140.607 80.005,139.985 80.500 C 139.364 80.995,138.210 81.850,137.422 82.400 C 136.633 82.950,135.162 84.165,134.152 85.100 C 133.142 86.035,132.167 86.800,131.985 86.800 C 131.803 86.800,131.540 87.160,131.400 87.600 C 131.260 88.040,130.921 88.400,130.645 88.400 C 130.370 88.400,129.776 88.805,129.325 89.300 C 128.874 89.795,127.856 90.740,127.061 91.400 C 126.267 92.060,125.613 92.721,125.609 92.869 C 125.604 93.016,124.475 94.312,123.100 95.747 C 118.888 100.145,116.024 103.691,115.216 105.510 C 114.994 106.011,114.539 106.525,114.206 106.653 C 113.873 106.781,113.600 107.123,113.600 107.412 C 113.600 107.702,113.175 108.447,112.655 109.069 C 112.135 109.691,111.583 110.605,111.428 111.100 C 111.273 111.595,111.000 112.000,110.822 112.000 C 110.643 112.000,110.266 112.585,109.983 113.300 C 109.700 114.015,109.254 114.870,108.992 115.200 C 108.731 115.530,108.024 116.790,107.421 118.000 C 106.819 119.210,105.892 121.037,105.363 122.059 C 104.833 123.081,104.400 124.274,104.400 124.710 C 104.400 125.146,104.150 125.710,103.844 125.963 C 103.539 126.217,103.082 127.245,102.829 128.249 C 102.577 129.253,102.124 130.463,101.823 130.937 C 101.523 131.412,101.152 132.610,101.000 133.600 C 100.848 134.590,100.471 135.798,100.162 136.285 C 99.853 136.772,99.437 138.329,99.236 139.744 C 99.036 141.160,98.648 142.737,98.374 143.249 C 98.100 143.761,97.634 146.255,97.340 148.790 C 97.045 151.326,96.606 154.660,96.363 156.200 C 95.800 159.780,95.822 171.984,96.397 174.600 C 96.639 175.700,97.016 178.490,97.234 180.800 C 97.453 183.110,97.973 185.990,98.389 187.200 C 98.806 188.410,99.265 190.285,99.408 191.367 C 99.552 192.448,99.906 193.708,100.196 194.167 C 100.486 194.625,100.848 195.810,101.000 196.800 C 101.152 197.790,101.523 198.988,101.823 199.463 C 102.124 199.937,102.577 201.147,102.829 202.151 C 103.082 203.155,103.539 204.183,103.844 204.437 C 104.150 204.690,104.400 205.227,104.400 205.630 C 104.400 206.546,105.225 208.400,105.632 208.400 C 105.800 208.400,106.065 208.985,106.222 209.700 C 106.379 210.415,107.068 211.962,107.753 213.137 C 110.018 217.020,111.143 218.992,111.442 219.600 C 111.604 219.930,112.156 220.709,112.668 221.331 C 113.181 221.953,113.600 222.696,113.600 222.982 C 113.600 223.268,113.889 223.742,114.242 224.035 C 114.595 224.327,115.048 224.935,115.250 225.384 C 115.452 225.833,116.158 226.920,116.818 227.800 C 118.084 229.485,121.520 234.437,122.200 235.555 C 122.718 236.406,124.862 239.254,125.474 239.902 C 125.734 240.179,126.062 240.764,126.201 241.202 C 126.340 241.641,126.626 242.000,126.837 242.000 C 127.047 242.000,127.393 242.455,127.604 243.010 C 127.815 243.566,128.261 244.125,128.594 244.253 C 128.927 244.381,129.200 244.723,129.200 245.012 C 129.200 245.302,129.619 246.047,130.132 246.669 C 130.644 247.291,131.188 248.070,131.339 248.400 C 131.490 248.730,132.161 249.720,132.829 250.600 C 133.497 251.480,134.412 252.785,134.862 253.500 C 135.311 254.215,135.841 254.800,136.040 254.800 C 136.238 254.800,136.400 254.975,136.400 255.188 C 136.400 255.523,138.630 259.034,139.202 259.600 C 139.869 260.259,141.600 262.809,141.600 263.131 C 141.600 263.343,142.047 263.940,142.593 264.458 C 143.139 264.976,143.589 265.615,143.593 265.877 C 143.597 266.140,143.915 266.591,144.300 266.881 C 144.685 267.170,145.270 267.878,145.600 268.455 C 146.913 270.748,149.747 274.800,150.038 274.800 C 150.207 274.800,150.462 275.166,150.604 275.613 C 150.746 276.060,151.298 276.896,151.831 277.471 C 152.364 278.046,152.800 278.761,152.800 279.058 C 152.800 279.356,152.975 279.600,153.190 279.600 C 153.404 279.600,153.882 280.185,154.251 280.900 C 154.621 281.615,155.135 282.380,155.394 282.600 C 155.653 282.820,156.522 283.990,157.326 285.200 C 158.130 286.410,159.326 288.120,159.985 289.000 C 160.644 289.880,161.362 291.005,161.582 291.500 C 161.801 291.995,162.165 292.400,162.390 292.400 C 162.616 292.400,162.802 292.625,162.804 292.900 C 162.806 293.175,163.706 294.557,164.804 295.972 C 165.902 297.387,166.800 298.647,166.800 298.772 C 166.801 298.897,167.251 299.523,167.800 300.162 C 168.350 300.801,168.800 301.547,168.800 301.819 C 168.800 302.092,169.055 302.412,169.366 302.532 C 169.677 302.651,170.172 303.192,170.466 303.734 C 171.190 305.071,174.023 309.258,174.706 310.000 C 175.202 310.540,175.634 311.173,177.294 313.800 C 177.572 314.240,178.025 314.744,178.300 314.920 C 178.575 315.096,178.800 315.409,178.800 315.616 C 178.800 315.953,180.810 318.853,182.105 320.385 C 182.377 320.707,182.780 321.267,183.000 321.628 C 183.220 321.990,183.940 323.057,184.600 324.000 C 185.260 324.943,185.980 326.006,186.200 326.363 C 186.745 327.247,188.885 330.078,189.500 330.729 C 189.775 331.019,190.000 331.412,190.000 331.602 C 190.000 334.387,200.834 339.410,202.172 337.245 C 202.293 337.050,203.061 336.765,203.880 336.611 C 205.472 336.313,208.836 333.216,210.000 330.978 C 210.330 330.343,210.836 329.549,211.125 329.212 C 212.637 327.450,214.000 325.427,214.000 324.945 C 214.000 324.645,214.162 324.400,214.360 324.400 C 214.559 324.400,215.089 323.815,215.538 323.100 C 215.988 322.385,216.902 321.080,217.569 320.200 C 218.237 319.320,218.962 318.195,219.182 317.700 C 219.401 317.205,219.743 316.800,219.942 316.800 C 220.140 316.800,220.527 316.260,220.800 315.600 C 221.073 314.940,221.416 314.400,221.562 314.400 C 221.708 314.400,222.172 313.815,222.594 313.100 C 223.015 312.385,223.506 311.620,223.685 311.400 C 225.400 309.288,226.400 307.801,226.400 307.365 C 226.400 307.076,226.628 306.696,226.907 306.520 C 227.186 306.344,227.728 305.750,228.111 305.200 C 228.495 304.650,229.302 303.496,229.904 302.636 C 230.507 301.776,231.270 300.678,231.600 300.196 C 231.930 299.714,232.559 298.797,232.997 298.160 C 233.435 297.522,234.108 296.653,234.492 296.229 C 234.876 295.806,235.295 295.131,235.422 294.729 C 235.550 294.328,235.800 294.000,235.978 294.000 C 236.157 294.000,236.527 293.460,236.800 292.800 C 237.073 292.140,237.437 291.600,237.609 291.600 C 237.781 291.600,238.344 290.934,238.860 290.119 C 239.816 288.613,240.224 288.016,242.000 285.522 C 242.550 284.750,243.794 282.922,244.765 281.459 C 245.735 279.997,246.658 278.800,246.816 278.800 C 246.974 278.800,247.327 278.260,247.600 277.600 C 247.873 276.940,248.265 276.400,248.469 276.400 C 248.674 276.400,249.030 275.860,249.260 275.200 C 249.490 274.540,249.836 274.000,250.029 274.000 C 250.222 274.000,250.664 273.450,251.011 272.779 C 251.358 272.107,251.993 271.207,252.421 270.779 C 252.850 270.350,253.200 269.820,253.200 269.600 C 253.200 269.380,253.481 268.885,253.825 268.500 C 255.292 266.858,256.800 264.650,256.800 264.145 C 256.800 263.845,256.962 263.600,257.160 263.600 C 257.359 263.600,257.889 263.015,258.340 262.300 C 259.325 260.735,261.716 257.308,262.596 256.200 C 263.790 254.695,265.179 252.600,265.580 251.700 C 265.800 251.205,266.165 250.800,266.390 250.800 C 266.616 250.800,266.800 250.558,266.800 250.262 C 266.800 249.966,267.181 249.381,267.646 248.962 C 268.111 248.543,268.655 247.840,268.854 247.400 C 269.054 246.960,269.759 245.880,270.422 245.000 C 271.802 243.169,273.613 240.593,274.200 239.628 C 274.420 239.267,274.827 238.707,275.105 238.385 C 276.666 236.575,278.000 234.621,278.000 234.145 C 278.000 233.845,278.142 233.600,278.315 233.600 C 278.697 233.600,281.600 229.353,281.600 228.795 C 281.600 228.578,281.762 228.400,281.960 228.400 C 282.331 228.400,283.659 226.470,284.903 224.126 C 285.290 223.396,285.785 222.800,286.003 222.800 C 286.221 222.800,286.400 222.554,286.400 222.254 C 286.400 221.954,286.799 221.201,287.287 220.581 C 288.333 219.251,289.310 217.572,290.245 215.500 C 290.617 214.675,291.067 214.000,291.245 214.000 C 291.422 214.000,291.784 213.278,292.049 212.395 C 292.313 211.513,292.770 210.591,293.065 210.346 C 293.359 210.102,293.601 209.609,293.602 209.251 C 293.603 208.893,294.048 207.880,294.590 207.000 C 295.132 206.120,295.581 205.127,295.588 204.794 C 295.594 204.461,295.936 203.561,296.347 202.794 C 296.757 202.027,297.231 200.773,297.399 200.006 C 297.567 199.239,297.934 198.249,298.214 197.806 C 298.494 197.363,298.850 196.190,299.006 195.200 C 299.162 194.210,299.605 192.680,299.992 191.800 C 300.378 190.920,300.803 188.964,300.936 187.454 C 301.070 185.944,301.370 184.477,301.603 184.196 C 302.256 183.410,303.902 164.919,303.438 163.589 C 303.325 163.265,303.041 159.610,302.807 155.466 C 302.543 150.776,302.167 147.417,301.813 146.569 C 301.500 145.820,301.060 143.888,300.836 142.276 C 300.612 140.665,300.153 138.818,299.817 138.173 C 299.480 137.528,299.204 136.543,299.202 135.985 C 299.201 135.426,298.860 134.303,298.445 133.489 C 298.030 132.675,297.565 131.332,297.412 130.504 C 297.258 129.677,296.788 128.439,296.366 127.753 C 295.945 127.067,295.600 126.193,295.600 125.812 C 295.600 125.430,295.164 124.281,294.632 123.259 C 294.099 122.237,293.098 120.230,292.408 118.800 C 291.717 117.370,290.719 115.480,290.190 114.600 C 289.661 113.720,288.955 112.427,288.620 111.727 C 288.286 111.027,287.818 110.335,287.581 110.188 C 287.344 110.042,286.977 109.535,286.765 109.061 C 286.238 107.883,283.745 104.374,282.300 102.775 C 281.915 102.349,281.600 101.889,281.600 101.753 C 281.600 101.354,273.533 92.292,272.072 91.049 C 271.782 90.802,270.705 89.804,269.678 88.830 C 268.651 87.857,266.639 86.103,265.206 84.933 C 261.159 81.630,261.403 81.811,258.600 80.023 C 257.940 79.602,257.130 78.997,256.800 78.679 C 256.470 78.361,255.795 77.976,255.300 77.824 C 254.805 77.671,254.400 77.398,254.400 77.216 C 254.400 77.035,253.680 76.599,252.800 76.247 C 251.920 75.895,251.200 75.439,251.200 75.234 C 251.200 75.030,250.525 74.642,249.700 74.373 C 248.875 74.104,247.771 73.550,247.246 73.142 C 246.721 72.734,245.984 72.400,245.608 72.400 C 245.232 72.400,244.618 72.062,244.245 71.650 C 243.871 71.237,242.942 70.798,242.179 70.674 C 241.416 70.550,240.511 70.168,240.168 69.825 C 239.825 69.482,239.062 69.102,238.472 68.980 C 237.882 68.858,236.860 68.506,236.200 68.198 C 235.540 67.890,234.206 67.435,233.236 67.186 C 232.266 66.938,231.096 66.499,230.636 66.211 C 230.176 65.923,228.938 65.565,227.885 65.417 C 226.831 65.268,224.958 64.798,223.722 64.373 C 222.486 63.948,220.821 63.600,220.021 63.600 C 219.222 63.600,217.495 63.315,216.184 62.968 C 211.640 61.763,199.668 61.338,189.800 62.032 M211.200 62.829 C 212.190 63.046,214.530 63.409,216.400 63.637 C 218.270 63.865,220.430 64.212,221.200 64.407 C 221.970 64.603,223.410 64.963,224.400 65.208 C 228.974 66.338,236.632 68.908,239.800 70.376 C 240.680 70.784,241.850 71.250,242.400 71.412 C 242.950 71.575,243.490 71.829,243.600 71.977 C 243.710 72.125,245.330 73.000,247.200 73.922 C 249.070 74.844,250.960 75.821,251.400 76.095 C 251.840 76.368,253.010 77.090,254.000 77.699 C 256.423 79.188,257.127 79.658,258.356 80.603 C 258.930 81.045,260.300 82.031,261.400 82.795 C 267.263 86.866,280.053 99.698,283.000 104.466 C 283.220 104.822,284.417 106.618,285.661 108.457 C 286.905 110.296,288.578 112.970,289.379 114.400 C 290.180 115.830,290.987 117.270,291.173 117.600 C 291.359 117.930,291.963 119.190,292.515 120.400 C 293.068 121.610,293.988 123.624,294.560 124.875 C 295.132 126.127,295.600 127.327,295.600 127.543 C 295.600 127.759,295.860 128.445,296.179 129.068 C 296.824 130.330,297.853 133.364,298.462 135.800 C 298.682 136.680,299.208 138.570,299.631 140.000 C 300.054 141.430,300.576 143.770,300.792 145.200 C 301.008 146.630,301.478 149.060,301.836 150.600 C 302.789 154.701,302.778 175.278,301.820 179.600 C 301.455 181.250,300.910 184.130,300.610 186.000 C 300.309 187.870,299.802 190.122,299.483 191.005 C 299.164 191.888,298.767 193.414,298.601 194.397 C 298.435 195.379,298.069 196.546,297.789 196.991 C 297.508 197.436,297.153 198.430,297.000 199.200 C 296.847 199.970,296.469 200.999,296.161 201.486 C 295.852 201.973,295.600 202.613,295.600 202.907 C 295.600 203.202,295.141 204.423,294.581 205.621 C 292.246 210.614,291.469 212.232,291.135 212.800 C 290.942 213.130,290.469 214.030,290.085 214.800 C 289.361 216.251,289.073 216.724,286.068 221.400 C 282.611 226.779,282.201 227.401,281.977 227.600 C 281.709 227.838,277.974 233.083,277.400 234.027 C 276.856 234.922,275.235 237.245,272.812 240.600 C 271.700 242.140,270.671 243.657,270.525 243.972 C 270.279 244.501,266.979 249.077,265.918 250.361 C 265.663 250.670,264.822 251.840,264.050 252.961 C 263.278 254.083,262.139 255.720,261.518 256.600 C 260.897 257.480,259.378 259.696,258.141 261.525 C 256.905 263.354,255.688 265.064,255.438 265.325 C 255.188 265.586,254.363 266.790,253.605 268.000 C 252.847 269.210,252.072 270.309,251.882 270.443 C 251.693 270.576,251.237 271.140,250.869 271.696 C 249.356 273.982,246.342 278.303,245.217 279.800 C 244.555 280.680,243.888 281.661,243.733 281.980 C 243.579 282.299,242.631 283.673,241.626 285.033 C 240.622 286.393,239.572 287.842,239.292 288.253 C 239.013 288.664,237.689 290.530,236.350 292.400 C 233.903 295.818,232.142 298.364,231.400 299.558 C 231.180 299.911,230.006 301.551,228.792 303.200 C 227.578 304.850,226.242 306.735,225.824 307.390 C 225.406 308.044,224.917 308.764,224.738 308.990 C 224.559 309.215,223.959 309.966,223.406 310.658 C 222.853 311.350,222.400 312.026,222.400 312.162 C 222.400 312.297,220.555 314.973,218.300 318.109 C 216.045 321.244,213.480 324.885,212.600 326.198 C 211.720 327.512,210.856 328.769,210.681 328.993 C 210.506 329.217,209.664 330.346,208.810 331.501 C 204.608 337.192,197.967 338.575,193.548 334.680 C 192.018 333.331,186.800 326.633,186.800 326.017 C 186.800 325.819,186.575 325.419,186.300 325.129 C 186.025 324.838,185.260 323.881,184.600 323.002 C 183.326 321.305,182.713 320.426,179.362 315.497 C 177.088 312.151,175.924 310.546,175.086 309.600 C 174.793 309.270,173.844 307.943,172.977 306.651 C 170.637 303.165,170.311 302.686,169.000 300.810 C 168.340 299.865,167.530 298.701,167.200 298.222 C 165.519 295.784,162.619 291.776,162.409 291.600 C 162.278 291.490,161.597 290.500,160.896 289.400 C 160.195 288.300,159.391 287.137,159.111 286.815 C 158.830 286.494,157.923 285.234,157.096 284.015 C 156.269 282.797,155.099 281.096,154.496 280.236 C 153.433 278.720,153.082 278.211,151.408 275.760 C 150.972 275.122,149.982 273.768,149.208 272.750 C 148.434 271.733,147.490 270.383,147.111 269.750 C 146.732 269.118,145.691 267.610,144.797 266.400 C 143.904 265.190,142.373 263.030,141.395 261.600 C 139.514 258.849,137.454 255.908,136.311 254.343 C 135.036 252.598,132.205 248.617,130.662 246.400 C 129.820 245.190,128.162 242.850,126.979 241.200 C 125.795 239.550,123.790 236.670,122.523 234.800 C 121.256 232.930,120.035 231.186,119.810 230.924 C 119.584 230.662,118.950 229.795,118.400 228.996 C 117.850 228.198,116.995 227.036,116.500 226.415 C 116.005 225.793,115.600 225.151,115.600 224.987 C 115.600 224.823,114.619 223.215,113.420 221.412 C 110.407 216.885,108.382 213.143,105.510 206.800 C 105.062 205.810,104.359 204.334,103.948 203.521 C 103.536 202.707,103.200 201.715,103.200 201.315 C 103.200 200.915,102.853 199.940,102.428 199.148 C 102.004 198.356,101.540 197.009,101.396 196.154 C 101.253 195.299,100.864 193.880,100.531 193.000 C 100.198 192.120,99.681 190.140,99.382 188.600 C 99.084 187.060,98.577 184.630,98.255 183.200 C 96.245 174.260,96.235 157.890,98.234 147.600 C 99.711 139.995,99.974 138.837,100.523 137.522 C 100.846 136.750,101.234 135.382,101.386 134.483 C 101.538 133.583,102.008 132.168,102.431 131.339 C 102.854 130.509,103.200 129.500,103.200 129.095 C 103.200 128.690,103.553 127.693,103.985 126.879 C 104.416 126.066,105.244 124.320,105.824 123.000 C 107.414 119.381,109.851 114.644,111.381 112.200 C 113.617 108.629,115.936 105.195,117.187 103.604 C 117.964 102.616,118.732 101.626,118.894 101.404 C 120.029 99.846,126.696 92.485,128.200 91.130 C 133.581 86.280,136.411 83.887,138.790 82.176 C 139.994 81.309,141.524 80.203,142.190 79.717 C 142.855 79.232,143.940 78.556,144.600 78.216 C 145.260 77.876,146.610 77.062,147.600 76.407 C 148.590 75.752,149.850 75.033,150.400 74.808 C 150.950 74.584,151.670 74.224,152.000 74.009 C 153.396 73.098,158.333 70.800,158.893 70.800 C 159.228 70.800,159.710 70.549,159.965 70.242 C 160.220 69.935,161.007 69.574,161.714 69.440 C 162.421 69.305,163.515 68.927,164.144 68.599 C 165.341 67.974,167.482 67.317,173.265 65.799 C 175.171 65.299,176.923 64.771,177.157 64.626 C 177.392 64.481,179.613 64.086,182.092 63.747 C 184.571 63.409,187.410 62.991,188.400 62.819 C 191.040 62.361,209.098 62.369,211.200 62.829 M170.600 146.325 C 161.316 149.706,158.056 159.283,163.592 166.911 C 165.747 169.881,199.092 202.880,199.790 202.734 C 201.022 202.476,236.187 166.940,237.230 164.898 C 238.629 162.161,238.670 155.260,237.300 153.338 C 236.805 152.644,236.400 151.893,236.400 151.669 C 236.400 151.000,232.334 147.813,230.413 146.978 C 224.559 144.431,220.324 146.132,211.596 154.537 C 203.909 161.940,204.515 161.470,202.084 161.912 C 196.815 162.870,195.424 162.127,187.146 153.932 C 179.940 146.799,175.236 144.636,170.600 146.325 M177.896 147.471 C 179.383 148.060,180.744 148.780,180.920 149.071 C 181.096 149.362,181.407 149.600,181.612 149.600 C 181.817 149.600,184.494 152.075,187.560 155.100 C 193.570 161.028,193.857 161.289,195.025 161.891 C 197.272 163.049,203.543 162.857,204.808 161.592 C 205.189 161.211,205.689 160.833,205.920 160.750 C 206.151 160.668,209.114 157.900,212.505 154.600 C 220.949 146.383,223.551 145.287,229.489 147.448 C 236.716 150.078,239.947 157.672,236.713 164.424 C 235.712 166.515,202.219 200.800,201.178 200.800 C 201.000 200.800,200.740 201.160,200.600 201.600 C 200.460 202.040,200.205 202.400,200.034 202.400 C 199.496 202.400,163.600 166.293,163.600 165.752 C 163.600 165.470,163.366 165.096,163.079 164.920 C 162.461 164.540,161.593 160.947,161.618 158.869 C 161.720 150.355,170.194 144.421,177.896 147.471 " stroke="none" fill="#bc8f8f" fill-rule="evenodd"></path><path id="path4" d="M188.400 62.819 C 187.410 62.991,184.571 63.409,182.092 63.747 C 179.613 64.086,177.392 64.481,177.157 64.626 C 176.923 64.771,175.171 65.299,173.265 65.799 C 167.482 67.317,165.341 67.974,164.144 68.599 C 163.515 68.927,162.421 69.305,161.714 69.440 C 161.007 69.574,160.220 69.935,159.965 70.242 C 159.710 70.549,159.228 70.800,158.893 70.800 C 158.333 70.800,153.396 73.098,152.000 74.009 C 151.670 74.224,150.950 74.584,150.400 74.808 C 149.850 75.033,148.590 75.752,147.600 76.407 C 146.610 77.062,145.260 77.876,144.600 78.216 C 143.940 78.556,142.855 79.232,142.190 79.717 C 141.524 80.203,139.994 81.309,138.790 82.176 C 136.411 83.887,133.581 86.280,128.200 91.130 C 126.696 92.485,120.029 99.846,118.894 101.404 C 118.732 101.626,117.964 102.616,117.187 103.604 C 115.936 105.195,113.617 108.629,111.381 112.200 C 109.865 114.621,107.436 119.337,105.818 123.000 C 105.235 124.320,104.382 126.135,103.923 127.034 C 103.464 127.932,103.190 128.922,103.313 129.234 C 103.458 129.601,103.548 129.506,103.568 128.962 C 103.586 128.501,103.938 127.818,104.352 127.444 C 104.765 127.069,105.217 126.051,105.357 125.182 C 105.496 124.312,105.773 123.600,105.973 123.600 C 106.172 123.600,106.635 122.700,107.000 121.600 C 107.365 120.500,107.830 119.600,108.032 119.600 C 108.234 119.600,108.400 119.414,108.400 119.187 C 108.400 118.628,109.394 116.545,110.588 114.600 C 111.129 113.720,111.802 112.542,112.085 111.982 C 112.368 111.422,112.833 110.702,113.117 110.382 C 113.402 110.062,114.252 108.810,115.008 107.600 C 115.763 106.390,116.701 105.010,117.091 104.533 C 117.481 104.056,118.160 103.193,118.600 102.615 C 119.040 102.036,119.850 101.050,120.400 100.422 C 120.950 99.795,121.760 98.808,122.200 98.229 C 124.009 95.848,131.216 88.904,135.195 85.707 C 136.628 84.556,138.070 83.366,138.400 83.063 C 138.730 82.759,139.439 82.281,139.975 82.001 C 140.511 81.721,141.141 81.334,141.375 81.141 C 143.352 79.510,144.997 78.400,145.435 78.400 C 145.724 78.400,146.104 78.149,146.280 77.843 C 146.456 77.537,147.230 77.000,148.000 76.651 C 148.770 76.302,149.670 75.842,150.000 75.629 C 150.676 75.193,152.214 74.407,154.656 73.250 C 155.567 72.819,156.432 72.271,156.580 72.033 C 156.727 71.795,157.152 71.598,157.524 71.596 C 157.896 71.594,159.100 71.150,160.200 70.609 C 161.300 70.068,162.470 69.619,162.800 69.611 C 163.130 69.603,164.480 69.151,165.800 68.608 C 167.120 68.064,168.636 67.615,169.169 67.609 C 169.701 67.604,170.427 67.338,170.781 67.017 C 171.135 66.697,172.769 66.227,174.412 65.973 C 176.056 65.719,177.516 65.326,177.658 65.100 C 177.800 64.874,179.706 64.537,181.894 64.352 C 184.081 64.167,187.172 63.742,188.762 63.408 C 192.769 62.565,207.167 62.568,210.749 63.413 C 212.150 63.743,215.069 64.163,217.235 64.346 C 219.401 64.529,221.418 64.883,221.717 65.131 C 222.017 65.380,223.560 65.767,225.146 65.992 C 226.732 66.217,228.428 66.651,228.915 66.956 C 229.402 67.261,230.499 67.633,231.354 67.783 C 232.209 67.934,233.556 68.404,234.348 68.828 C 235.140 69.253,236.156 69.600,236.605 69.600 C 237.054 69.600,237.821 69.879,238.308 70.221 C 238.796 70.562,240.096 71.109,241.197 71.436 C 242.299 71.763,243.200 72.168,243.200 72.335 C 243.200 72.502,243.875 72.881,244.700 73.176 C 245.525 73.471,246.290 73.826,246.400 73.964 C 246.510 74.103,247.860 74.835,249.400 75.592 C 250.940 76.349,252.709 77.381,253.331 77.884 C 253.953 78.388,254.718 78.800,255.031 78.800 C 255.344 78.800,255.600 78.941,255.600 79.114 C 255.600 79.286,256.165 79.761,256.855 80.169 C 257.546 80.577,258.446 81.246,258.855 81.655 C 259.265 82.065,259.870 82.400,260.200 82.400 C 260.530 82.400,260.800 82.586,260.800 82.813 C 260.800 83.040,261.142 83.355,261.560 83.513 C 261.978 83.671,263.643 84.994,265.260 86.452 C 266.877 87.911,268.803 89.621,269.541 90.252 C 271.785 92.173,276.563 97.279,279.692 101.100 C 280.818 102.475,281.888 103.600,282.070 103.600 C 282.251 103.600,282.400 103.856,282.400 104.169 C 282.400 104.482,282.850 105.273,283.400 105.927 C 283.950 106.581,284.400 107.292,284.400 107.509 C 284.400 107.725,284.689 108.142,285.042 108.435 C 285.395 108.727,285.848 109.335,286.050 109.784 C 286.251 110.233,286.951 111.410,287.604 112.400 C 288.257 113.390,289.151 114.920,289.591 115.800 C 290.030 116.680,290.566 117.670,290.782 118.000 C 290.998 118.330,291.727 119.860,292.403 121.400 C 293.079 122.940,293.874 124.650,294.170 125.200 C 294.466 125.750,294.830 126.773,294.980 127.472 C 295.129 128.172,295.510 128.959,295.826 129.221 C 296.142 129.483,296.414 129.991,296.432 130.349 C 296.453 130.783,296.532 130.829,296.669 130.487 C 296.782 130.205,296.588 129.536,296.238 129.001 C 295.887 128.466,295.600 127.831,295.600 127.589 C 295.600 127.348,295.132 126.127,294.560 124.875 C 293.988 123.624,293.068 121.610,292.515 120.400 C 291.963 119.190,291.359 117.930,291.173 117.600 C 290.987 117.270,290.180 115.830,289.379 114.400 C 288.578 112.970,286.905 110.296,285.661 108.457 C 284.417 106.618,283.220 104.822,283.000 104.466 C 282.294 103.324,276.935 97.091,274.124 94.143 C 269.983 89.801,264.686 85.077,261.400 82.795 C 260.300 82.031,258.930 81.045,258.356 80.603 C 257.127 79.658,256.423 79.188,254.000 77.699 C 253.010 77.090,251.840 76.368,251.400 76.095 C 250.960 75.821,249.070 74.844,247.200 73.922 C 245.330 73.000,243.710 72.125,243.600 71.977 C 243.490 71.829,242.950 71.575,242.400 71.412 C 241.850 71.250,240.680 70.784,239.800 70.376 C 236.632 68.908,228.974 66.338,224.400 65.208 C 223.410 64.963,221.970 64.603,221.200 64.407 C 220.430 64.212,218.270 63.865,216.400 63.637 C 214.530 63.409,212.190 63.046,211.200 62.829 C 209.098 62.369,191.040 62.361,188.400 62.819 M191.000 82.841 C 190.120 83.033,187.705 83.382,185.634 83.616 C 183.563 83.851,181.549 84.213,181.158 84.422 C 180.768 84.631,179.313 85.062,177.924 85.379 C 175.271 85.985,171.465 87.245,169.340 88.221 C 168.646 88.539,167.816 88.800,167.493 88.800 C 167.171 88.800,166.450 89.160,165.891 89.600 C 165.331 90.040,164.736 90.400,164.567 90.400 C 163.967 90.400,158.424 93.289,157.967 93.840 C 157.711 94.148,157.309 94.400,157.073 94.400 C 156.367 94.400,150.877 98.255,146.671 101.704 C 142.699 104.961,135.278 112.707,133.358 115.600 C 132.847 116.370,131.922 117.720,131.303 118.600 C 129.381 121.331,128.403 123.174,128.996 122.946 C 129.294 122.832,129.820 122.032,130.166 121.169 C 130.511 120.306,130.946 119.600,131.133 119.600 C 131.319 119.600,131.680 119.195,131.935 118.700 C 132.191 118.205,133.029 116.990,133.800 116.000 C 134.570 115.010,135.309 113.976,135.442 113.702 C 135.575 113.428,136.430 112.412,137.342 111.443 C 141.822 106.684,143.249 105.259,145.196 103.600 C 146.357 102.610,147.601 101.530,147.960 101.200 C 148.319 100.870,149.146 100.254,149.796 99.832 C 151.197 98.923,151.442 98.735,152.958 97.411 C 153.596 96.855,154.279 96.400,154.478 96.400 C 154.676 96.400,155.868 95.716,157.126 94.881 C 158.384 94.045,160.850 92.658,162.607 91.799 C 164.363 90.939,165.890 90.121,166.000 89.980 C 166.110 89.839,166.740 89.595,167.400 89.438 C 168.060 89.281,169.320 88.838,170.200 88.452 C 172.861 87.286,175.689 86.342,177.800 85.915 C 178.900 85.693,180.528 85.260,181.419 84.953 C 188.466 82.526,212.373 82.539,218.200 84.974 C 219.024 85.318,220.171 85.594,220.749 85.587 C 222.983 85.559,217.333 83.999,213.600 83.613 C 211.510 83.397,209.171 83.036,208.403 82.810 C 206.734 82.320,193.279 82.344,191.000 82.841 M223.400 86.207 C 225.187 86.915,227.995 87.950,231.000 89.007 C 232.100 89.394,233.270 89.930,233.600 90.199 C 233.930 90.467,234.740 90.875,235.400 91.105 C 236.060 91.334,237.410 91.987,238.400 92.556 C 239.390 93.124,240.824 93.906,241.588 94.294 C 242.351 94.683,243.268 95.270,243.625 95.600 C 243.982 95.930,244.879 96.560,245.618 97.000 C 247.637 98.202,248.173 98.553,248.815 99.090 C 249.137 99.359,250.570 100.509,252.000 101.645 C 255.690 104.577,264.800 113.949,264.800 114.813 C 264.800 115.006,265.205 115.598,265.700 116.129 C 267.240 117.779,268.389 119.379,268.395 119.880 C 268.398 120.144,268.651 120.504,268.957 120.680 C 269.263 120.856,269.805 121.630,270.160 122.400 C 270.515 123.170,271.246 124.520,271.784 125.400 C 272.322 126.280,272.883 127.270,273.030 127.600 C 273.178 127.930,273.817 129.294,274.450 130.632 C 275.082 131.969,275.600 133.252,275.600 133.483 C 275.600 133.713,275.848 134.107,276.150 134.359 C 276.453 134.610,276.811 135.487,276.946 136.308 C 277.082 137.128,277.478 138.340,277.827 139.000 C 278.175 139.660,278.644 141.186,278.868 142.392 C 279.091 143.597,279.503 145.037,279.783 145.592 C 280.062 146.146,280.407 147.590,280.548 148.800 C 280.689 150.010,281.072 152.620,281.400 154.600 C 281.728 156.580,282.157 160.360,282.353 163.000 L 282.709 167.800 282.532 162.000 C 282.362 156.433,281.331 148.999,280.202 145.200 C 279.908 144.210,279.461 142.590,279.210 141.600 C 278.327 138.124,274.168 128.119,272.642 125.800 C 272.207 125.140,271.525 124.112,271.126 123.516 C 270.727 122.920,270.397 122.290,270.394 122.116 C 270.391 121.942,269.755 120.900,268.983 119.800 C 268.210 118.700,267.270 117.350,266.894 116.800 C 266.518 116.250,265.982 115.561,265.703 115.269 C 265.423 114.977,265.016 114.403,264.797 113.994 C 263.806 112.143,255.231 103.406,252.218 101.178 C 251.193 100.420,249.420 99.062,248.277 98.161 C 247.135 97.259,245.660 96.219,245.000 95.849 C 244.340 95.479,243.260 94.820,242.600 94.385 C 241.940 93.950,240.680 93.224,239.800 92.770 C 238.920 92.317,237.750 91.710,237.200 91.421 C 232.922 89.174,225.229 86.107,223.000 85.760 C 221.987 85.602,222.049 85.672,223.400 86.207 M127.598 124.518 C 126.503 126.205,124.400 130.452,124.400 130.975 C 124.400 131.265,124.142 131.717,123.826 131.979 C 123.510 132.241,123.132 133.028,122.987 133.728 C 122.841 134.427,122.406 135.720,122.021 136.600 C 120.824 139.332,119.970 142.066,119.209 145.600 C 118.807 147.470,118.280 149.507,118.039 150.126 C 117.797 150.745,117.617 152.185,117.638 153.326 L 117.677 155.400 118.198 152.800 C 118.484 151.370,118.986 148.850,119.312 147.200 C 119.981 143.819,121.338 139.402,122.453 136.974 C 122.864 136.079,123.200 135.061,123.200 134.711 C 123.200 134.361,124.368 131.775,125.795 128.965 C 128.232 124.165,128.907 122.500,127.598 124.518 M166.881 126.046 C 165.716 126.240,164.240 126.669,163.601 126.999 C 162.962 127.330,162.095 127.600,161.674 127.600 C 161.253 127.600,160.479 127.935,159.954 128.345 C 159.429 128.755,158.553 129.230,158.008 129.401 C 155.454 130.202,149.265 135.526,147.118 138.769 C 146.742 139.336,145.800 140.700,145.024 141.800 C 144.247 142.900,143.609 144.056,143.606 144.369 C 143.603 144.681,143.354 145.221,143.052 145.569 C 140.883 148.070,139.340 163.358,140.946 166.437 C 141.244 167.008,141.619 168.178,141.780 169.037 C 142.108 170.790,143.657 174.242,145.075 176.383 C 145.592 177.162,146.236 178.137,146.507 178.548 C 148.059 180.905,152.423 185.431,171.494 204.458 C 191.119 224.038,193.697 226.436,196.400 227.632 C 197.885 228.290,203.411 227.895,204.327 227.066 C 204.732 226.700,205.242 226.400,205.460 226.400 C 206.942 226.400,253.914 178.225,254.601 176.000 C 254.771 175.450,255.245 174.571,255.655 174.046 C 256.065 173.521,256.400 172.927,256.400 172.724 C 256.400 172.522,256.759 171.568,257.198 170.605 C 257.637 169.641,258.169 167.716,258.381 166.327 C 258.593 164.937,258.976 162.540,259.232 161.000 C 259.575 158.931,259.581 157.730,259.255 156.400 C 259.012 155.410,258.622 153.340,258.388 151.800 C 258.155 150.260,257.612 148.319,257.182 147.488 C 256.752 146.656,256.400 145.735,256.400 145.442 C 256.400 145.148,256.065 144.479,255.655 143.954 C 255.245 143.429,254.773 142.550,254.605 142.000 C 254.438 141.450,253.963 140.678,253.550 140.284 C 253.138 139.891,252.800 139.436,252.800 139.273 C 252.800 138.760,247.014 132.800,246.516 132.800 C 246.254 132.800,245.896 132.575,245.720 132.300 C 244.974 131.135,238.625 127.600,237.277 127.600 C 236.893 127.600,236.215 127.346,235.772 127.036 C 232.900 125.024,220.640 125.122,214.800 127.204 C 212.672 127.962,208.324 130.069,207.200 130.886 C 204.746 132.670,204.202 133.109,202.214 134.908 C 199.952 136.955,199.350 137.026,197.788 135.430 C 195.454 133.045,190.766 129.593,189.882 129.608 C 189.617 129.613,190.480 130.313,191.800 131.163 C 193.120 132.013,195.083 133.548,196.162 134.574 C 199.122 137.386,199.901 137.689,201.114 136.500 C 203.943 133.726,207.380 131.171,209.883 129.979 C 210.809 129.538,211.666 129.016,211.788 128.819 C 211.910 128.623,212.592 128.338,213.305 128.186 C 214.017 128.034,215.680 127.526,217.000 127.055 C 223.814 124.627,236.830 126.477,242.638 130.700 C 243.319 131.195,244.079 131.600,244.327 131.600 C 244.911 131.600,252.400 138.900,252.400 139.470 C 252.400 139.708,252.669 140.126,252.998 140.399 C 253.548 140.855,254.613 142.907,256.735 147.600 C 259.039 152.694,259.150 164.186,256.949 169.800 C 255.340 173.902,253.271 177.689,251.395 179.963 C 247.741 184.391,205.791 225.693,204.051 226.574 C 201.200 228.019,197.850 228.003,195.271 226.533 C 191.408 224.330,147.521 179.968,145.477 176.200 C 135.789 158.338,141.474 138.753,159.079 129.342 C 160.003 128.848,161.533 128.223,162.479 127.952 C 163.426 127.681,164.399 127.311,164.642 127.129 C 167.551 124.952,181.950 126.030,187.279 128.824 C 189.140 129.800,189.592 129.818,188.354 128.868 C 187.312 128.068,184.631 127.060,181.200 126.178 C 178.745 125.547,170.345 125.470,166.881 126.046 M102.327 131.546 C 101.957 132.346,101.523 133.720,101.364 134.600 C 101.205 135.480,100.819 136.813,100.506 137.563 C 99.973 138.840,99.708 140.008,98.234 147.600 C 96.656 155.724,96.298 164.500,97.142 174.400 C 97.612 179.917,97.943 182.000,99.176 187.200 L 99.508 188.600 99.552 186.800 C 99.575 185.810,99.312 184.460,98.966 183.800 C 98.234 182.404,97.008 165.529,97.396 162.200 C 97.524 161.100,97.787 157.385,97.981 153.945 C 98.207 149.934,98.541 147.278,98.911 146.545 C 99.228 145.915,99.602 144.260,99.742 142.866 C 99.881 141.472,100.264 139.762,100.592 139.066 C 100.920 138.370,101.373 136.821,101.599 135.623 C 101.824 134.426,102.288 133.021,102.629 132.500 C 102.970 131.979,103.193 131.224,103.125 130.822 C 103.034 130.288,102.819 130.483,102.327 131.546 M296.818 132.211 C 296.808 132.877,297.074 133.813,297.409 134.291 C 297.744 134.769,298.265 136.475,298.568 138.080 C 299.228 141.590,300.355 144.767,300.383 143.200 C 300.392 142.650,300.052 141.120,299.627 139.800 C 299.201 138.480,298.677 136.680,298.462 135.800 C 297.698 132.672,296.838 130.795,296.818 132.211 M300.566 147.094 C 300.637 148.718,300.924 150.267,301.219 150.623 C 302.504 152.171,302.361 176.765,301.047 180.200 C 300.711 181.080,300.450 182.790,300.468 184.000 C 300.499 186.146,300.507 186.161,300.788 184.600 C 300.947 183.720,301.393 181.560,301.780 179.800 C 302.805 175.134,302.814 154.810,301.792 150.400 C 301.410 148.750,300.949 146.680,300.768 145.800 C 300.505 144.518,300.464 144.776,300.566 147.094 M169.000 146.400 C 168.602 146.840,167.953 147.200,167.559 147.200 C 167.164 147.200,166.340 147.665,165.727 148.232 C 165.115 148.800,164.430 149.385,164.206 149.532 C 163.524 149.979,161.600 153.004,161.600 153.627 C 161.600 153.949,161.240 154.884,160.800 155.704 C 160.336 156.569,160.000 157.961,160.000 159.014 C 160.000 160.042,160.347 161.513,160.800 162.400 C 161.240 163.262,161.600 164.257,161.600 164.611 C 161.600 166.307,198.026 203.202,199.696 203.198 C 200.316 203.196,202.044 201.743,205.193 198.577 C 207.719 196.037,210.329 193.446,210.993 192.819 C 211.657 192.191,214.387 189.455,217.061 186.739 C 219.734 184.022,222.524 181.236,223.261 180.547 C 223.997 179.858,225.610 178.238,226.844 176.947 C 228.078 175.656,229.698 174.036,230.444 173.347 C 235.629 168.557,238.416 164.945,238.364 163.082 L 238.328 161.800 237.941 163.144 C 237.728 163.884,237.136 165.144,236.624 165.944 C 235.433 167.807,200.642 202.555,199.788 202.734 C 199.092 202.880,165.745 169.877,163.592 166.911 C 157.116 157.988,163.068 146.155,174.000 146.220 C 178.792 146.249,180.245 147.101,187.146 153.932 C 195.252 161.957,196.896 162.878,201.513 161.981 C 202.684 161.753,202.319 161.681,199.800 161.639 C 195.785 161.572,195.273 161.246,188.103 154.200 C 182.086 148.286,181.757 147.991,180.395 147.284 C 179.848 147.000,178.950 146.508,178.400 146.190 C 176.733 145.226,169.925 145.378,169.000 146.400 M219.829 146.902 C 218.154 147.766,215.745 149.807,211.629 153.848 C 208.423 156.996,205.180 160.028,204.422 160.586 C 203.665 161.144,203.267 161.600,203.539 161.600 C 204.234 161.600,204.549 161.324,211.596 154.537 C 220.324 146.132,224.559 144.431,230.413 146.978 C 232.334 147.813,236.400 151.000,236.400 151.669 C 236.400 151.893,236.739 152.554,237.153 153.138 C 237.568 153.722,237.997 154.560,238.107 155.000 C 238.264 155.628,238.317 155.569,238.354 154.729 C 238.379 154.139,238.130 153.387,237.800 153.057 C 237.470 152.727,237.200 152.248,237.200 151.993 C 237.200 151.211,233.843 148.213,231.463 146.870 C 228.235 145.048,223.397 145.062,219.829 146.902 M117.121 160.500 C 117.010 163.195,117.041 167.470,117.190 170.000 C 117.421 173.914,117.472 173.184,117.531 165.100 C 117.606 154.720,117.438 152.829,117.121 160.500 M238.534 158.800 C 238.534 160.450,238.605 161.125,238.691 160.300 C 238.778 159.475,238.778 158.125,238.691 157.300 C 238.605 156.475,238.534 157.150,238.534 158.800 M282.067 170.827 C 282.030 172.492,281.743 174.742,281.429 175.827 C 281.116 176.912,280.731 179.230,280.575 180.978 C 280.419 182.725,279.960 184.885,279.555 185.778 C 279.149 186.670,278.830 187.940,278.845 188.600 L 278.872 189.800 279.243 188.400 C 279.446 187.630,279.795 186.679,280.018 186.287 C 280.241 185.895,280.589 184.266,280.792 182.667 C 280.994 181.068,281.374 178.959,281.635 177.980 C 282.197 175.875,282.525 171.621,282.297 169.388 C 282.201 168.453,282.107 169.045,282.067 170.827 M117.647 177.027 C 117.621 177.922,117.859 179.542,118.175 180.627 C 118.491 181.712,118.957 183.770,119.210 185.200 C 119.463 186.630,119.821 187.982,120.005 188.205 C 120.190 188.428,120.565 189.508,120.839 190.605 C 121.457 193.076,123.191 196.901,123.195 195.800 C 123.196 195.360,122.840 194.414,122.403 193.697 C 121.966 192.981,121.491 191.631,121.348 190.697 C 121.205 189.764,120.774 188.370,120.391 187.600 C 120.008 186.830,119.561 185.030,119.398 183.600 C 119.235 182.170,118.926 180.550,118.712 180.000 C 118.498 179.450,118.182 178.190,118.009 177.200 L 117.694 175.400 117.647 177.027 M299.497 188.707 C 299.110 189.968,298.613 191.979,298.393 193.177 C 298.172 194.374,297.724 195.762,297.396 196.262 C 297.068 196.763,296.815 197.673,296.834 198.286 L 296.869 199.400 297.207 198.274 C 297.392 197.655,297.714 196.935,297.920 196.674 C 298.127 196.413,298.418 195.480,298.567 194.600 C 298.717 193.720,299.203 191.880,299.649 190.510 C 300.094 189.141,300.400 187.659,300.329 187.217 C 300.250 186.724,299.929 187.299,299.497 188.707 M99.646 189.485 C 99.621 189.972,99.943 191.322,100.363 192.485 C 100.782 193.648,101.245 195.299,101.391 196.154 C 101.537 197.009,102.004 198.356,102.428 199.148 C 102.853 199.940,103.200 200.915,103.200 201.315 C 103.200 201.715,103.536 202.707,103.948 203.521 C 104.359 204.334,105.060 205.810,105.507 206.800 C 107.744 211.759,109.004 214.288,109.668 215.154 C 110.767 216.586,110.549 215.455,109.400 213.762 C 108.850 212.951,108.400 211.953,108.400 211.544 C 108.400 211.135,108.237 210.800,108.038 210.800 C 107.838 210.800,107.398 209.987,107.060 208.993 C 106.721 208.000,106.164 206.907,105.822 206.565 C 105.480 206.223,105.200 205.444,105.200 204.833 C 105.200 204.223,104.859 203.415,104.442 203.038 C 104.025 202.660,103.567 201.576,103.425 200.628 C 103.283 199.679,102.814 198.212,102.383 197.367 C 101.952 196.522,101.600 195.319,101.600 194.693 C 101.600 194.068,101.259 192.801,100.843 191.878 C 100.426 190.955,99.997 189.840,99.889 189.400 C 99.709 188.665,99.689 188.672,99.646 189.485 M277.700 191.940 C 277.205 193.026,276.800 194.271,276.800 194.708 C 276.800 195.145,276.552 195.708,276.250 195.959 C 275.947 196.210,275.475 197.218,275.200 198.200 C 274.925 199.182,274.453 200.190,274.150 200.441 C 273.848 200.692,273.600 201.196,273.600 201.560 C 273.600 201.924,273.325 202.614,272.990 203.093 C 272.654 203.573,271.722 205.188,270.919 206.682 C 270.116 208.177,268.816 210.306,268.030 211.414 C 267.243 212.522,266.420 213.710,266.200 214.054 C 265.980 214.399,265.260 215.456,264.600 216.404 C 263.940 217.352,263.130 218.520,262.800 219.000 C 262.470 219.480,261.660 220.650,261.000 221.600 C 260.340 222.550,259.530 223.722,259.200 224.204 C 258.870 224.686,258.241 225.603,257.803 226.240 C 257.365 226.878,256.690 227.749,256.303 228.175 C 255.916 228.602,255.600 229.084,255.600 229.247 C 255.600 229.410,255.362 229.781,255.071 230.072 C 254.601 230.542,252.037 234.113,250.400 236.577 C 249.065 238.587,248.153 239.899,246.713 241.883 C 245.881 243.029,245.200 244.076,245.200 244.211 C 245.200 244.796,247.402 241.952,250.629 237.203 C 251.751 235.551,253.243 233.390,253.945 232.400 C 254.648 231.410,255.968 229.520,256.881 228.200 C 257.793 226.880,258.643 225.710,258.770 225.600 C 259.347 225.098,261.600 221.623,261.600 221.235 C 261.600 220.996,261.762 220.800,261.960 220.800 C 262.159 220.800,262.693 220.215,263.148 219.500 C 264.662 217.122,267.167 213.407,267.588 212.915 C 267.816 212.648,268.212 211.973,268.466 211.415 C 268.720 210.857,269.059 210.400,269.219 210.400 C 269.378 210.400,269.817 209.815,270.195 209.100 C 270.572 208.385,271.384 206.900,271.999 205.800 C 274.569 201.204,277.600 194.569,277.600 193.539 C 277.600 193.230,277.883 192.575,278.228 192.082 C 278.573 191.589,278.798 190.911,278.728 190.576 C 278.658 190.241,278.195 190.855,277.700 191.940 M123.203 197.000 C 123.201 197.533,126.910 204.977,128.186 207.000 C 128.741 207.880,129.321 208.870,129.476 209.200 C 129.630 209.530,130.847 211.388,132.178 213.328 C 133.510 215.269,134.783 217.159,135.006 217.528 C 135.229 217.898,136.068 219.100,136.869 220.200 C 139.266 223.489,141.078 226.043,143.093 228.970 C 144.142 230.493,145.360 232.225,145.800 232.817 C 146.240 233.410,147.449 235.133,148.487 236.647 C 149.525 238.161,151.282 240.660,152.392 242.200 C 153.502 243.740,154.530 245.270,154.677 245.600 C 154.824 245.930,155.722 247.162,156.672 248.337 C 157.623 249.512,158.400 250.624,158.400 250.808 C 158.400 250.992,158.637 251.381,158.926 251.671 C 159.557 252.305,164.446 259.239,167.269 263.504 C 167.637 264.060,168.094 264.624,168.283 264.757 C 168.588 264.972,169.624 266.444,172.685 271.013 C 173.610 272.394,174.400 273.084,174.400 272.513 C 174.400 272.328,174.085 271.894,173.700 271.548 C 173.315 271.201,172.640 270.315,172.200 269.578 C 170.979 267.535,170.643 267.021,170.106 266.385 C 168.752 264.781,167.221 262.662,165.600 260.151 C 164.089 257.810,161.810 254.563,161.423 254.200 C 161.188 253.980,160.277 252.720,159.398 251.400 C 158.519 250.080,157.649 248.889,157.464 248.754 C 157.279 248.619,156.919 248.154,156.664 247.722 C 155.825 246.300,154.454 244.208,154.078 243.775 C 153.709 243.351,150.737 239.135,149.600 237.423 C 148.240 235.375,147.275 233.997,144.400 230.000 C 141.302 225.692,140.313 224.281,139.110 222.450 C 138.731 221.872,138.191 221.050,137.910 220.623 C 137.630 220.196,136.995 219.423,136.500 218.905 C 136.005 218.387,135.600 217.805,135.600 217.610 C 135.600 217.416,135.353 217.010,135.052 216.709 C 134.750 216.408,134.204 215.630,133.837 214.980 C 133.470 214.331,132.638 213.080,131.989 212.200 C 131.340 211.320,130.148 209.430,129.340 208.000 C 128.533 206.570,127.541 204.971,127.136 204.446 C 126.731 203.921,126.400 203.230,126.400 202.909 C 126.400 202.589,126.040 201.869,125.600 201.309 C 125.160 200.750,124.799 200.001,124.797 199.646 C 124.796 199.291,124.437 198.460,124.000 197.800 C 123.563 197.140,123.204 196.780,123.203 197.000 M296.432 200.051 C 296.414 200.409,296.146 200.913,295.835 201.171 C 295.524 201.429,295.057 202.531,294.795 203.620 C 294.534 204.709,294.172 205.600,293.991 205.600 C 293.810 205.600,293.445 206.275,293.180 207.100 C 292.916 207.925,292.472 208.870,292.194 209.200 C 291.916 209.530,291.569 210.366,291.422 211.059 C 291.275 211.751,290.805 212.634,290.377 213.021 C 289.950 213.407,289.600 214.032,289.600 214.408 C 289.600 214.784,289.278 215.521,288.884 216.046 C 288.490 216.571,287.950 217.450,287.684 218.000 C 287.418 218.550,286.582 219.810,285.827 220.800 C 285.071 221.790,284.441 222.816,284.427 223.079 C 284.412 223.343,283.950 224.044,283.400 224.638 C 282.850 225.231,282.400 225.950,282.400 226.236 C 282.400 226.521,282.066 226.990,281.657 227.277 C 281.249 227.565,280.787 228.205,280.630 228.700 C 280.474 229.195,280.175 229.600,279.967 229.600 C 279.758 229.600,279.287 230.230,278.919 231.000 C 278.552 231.770,278.127 232.400,277.974 232.400 C 277.822 232.400,277.473 232.940,277.200 233.600 C 276.927 234.260,276.563 234.800,276.391 234.800 C 276.219 234.800,275.656 235.466,275.140 236.281 C 274.623 237.096,273.930 238.147,273.600 238.617 C 271.596 241.473,270.552 242.992,270.200 243.563 C 269.662 244.436,267.467 247.350,267.158 247.600 C 267.023 247.710,266.612 248.385,266.246 249.100 C 265.879 249.815,265.424 250.400,265.233 250.400 C 265.043 250.400,264.774 250.850,264.636 251.400 C 264.498 251.950,264.226 252.400,264.032 252.400 C 263.838 252.400,263.308 252.985,262.854 253.700 C 262.400 254.415,261.209 256.170,260.208 257.600 C 259.207 259.030,257.641 261.325,256.729 262.700 C 255.817 264.075,254.942 265.200,254.784 265.200 C 254.626 265.200,254.273 265.740,254.000 266.400 C 253.727 267.060,253.357 267.600,253.178 267.600 C 253.000 267.600,252.726 268.005,252.570 268.500 C 252.414 268.995,251.545 270.300,250.639 271.400 C 248.698 273.758,247.200 275.862,247.200 276.231 C 247.200 276.376,246.660 277.109,246.000 277.861 C 245.340 278.613,244.800 279.472,244.800 279.771 C 244.800 280.070,244.530 280.418,244.200 280.545 C 243.870 280.671,243.600 280.971,243.600 281.211 C 243.600 281.899,244.346 281.262,245.410 279.666 C 245.948 278.860,247.203 277.030,248.199 275.600 C 249.194 274.170,250.309 272.550,250.676 272.000 C 251.044 271.450,251.541 270.820,251.781 270.600 C 252.022 270.380,252.840 269.210,253.601 268.000 C 254.361 266.790,255.188 265.586,255.438 265.325 C 255.688 265.064,256.905 263.354,258.141 261.525 C 259.378 259.696,260.897 257.480,261.518 256.600 C 262.139 255.720,263.278 254.083,264.050 252.961 C 264.822 251.840,265.663 250.670,265.918 250.361 C 266.979 249.077,270.279 244.501,270.525 243.972 C 270.671 243.657,271.700 242.140,272.812 240.600 C 275.235 237.245,276.856 234.922,277.400 234.027 C 277.974 233.083,281.709 227.838,281.977 227.600 C 282.201 227.401,282.611 226.779,286.068 221.400 C 289.073 216.724,289.361 216.251,290.085 214.800 C 290.469 214.030,290.942 213.130,291.135 212.800 C 291.469 212.232,292.246 210.614,294.581 205.621 C 295.141 204.423,295.600 203.202,295.600 202.907 C 295.600 202.613,295.887 201.934,296.238 201.399 C 296.588 200.864,296.782 200.195,296.669 199.913 C 296.532 199.571,296.453 199.617,296.432 200.051 M110.400 216.571 C 110.400 216.719,111.570 218.609,113.000 220.770 C 114.430 222.932,115.600 224.832,115.600 224.993 C 115.600 225.153,116.005 225.793,116.500 226.415 C 116.995 227.036,117.850 228.198,118.400 228.996 C 118.950 229.795,119.584 230.662,119.810 230.924 C 120.035 231.186,121.256 232.930,122.523 234.800 C 123.790 236.670,125.795 239.550,126.979 241.200 C 128.162 242.850,129.820 245.190,130.662 246.400 C 132.205 248.617,135.036 252.598,136.311 254.343 C 137.454 255.908,139.514 258.849,141.395 261.600 C 142.373 263.030,143.904 265.190,144.797 266.400 C 145.691 267.610,146.732 269.118,147.111 269.750 C 147.490 270.383,148.434 271.733,149.208 272.750 C 149.982 273.768,150.972 275.122,151.408 275.760 C 153.082 278.211,153.433 278.720,154.496 280.236 C 155.099 281.096,156.269 282.797,157.096 284.015 C 157.923 285.234,158.830 286.494,159.111 286.815 C 159.391 287.137,160.195 288.300,160.896 289.400 C 161.597 290.500,162.278 291.490,162.409 291.600 C 162.619 291.776,165.519 295.784,167.200 298.222 C 167.530 298.701,168.340 299.865,169.000 300.810 C 170.311 302.686,170.637 303.165,172.977 306.651 C 173.844 307.943,174.793 309.270,175.086 309.600 C 175.924 310.546,177.088 312.151,179.362 315.497 C 182.713 320.426,183.326 321.305,184.600 323.002 C 185.260 323.881,186.025 324.838,186.300 325.129 C 186.575 325.419,186.800 325.819,186.800 326.017 C 186.800 326.633,192.018 333.331,193.548 334.680 C 197.967 338.575,204.608 337.192,208.810 331.501 C 209.664 330.346,210.506 329.217,210.681 328.993 C 210.856 328.769,211.720 327.512,212.600 326.198 C 213.480 324.885,216.045 321.244,218.300 318.109 C 220.555 314.973,222.400 312.297,222.400 312.162 C 222.400 312.026,222.853 311.350,223.406 310.658 C 223.959 309.966,224.559 309.215,224.738 308.990 C 224.917 308.764,225.406 308.044,225.824 307.390 C 226.242 306.735,227.578 304.850,228.792 303.200 C 230.006 301.551,231.180 299.911,231.400 299.558 C 232.142 298.364,233.903 295.818,236.350 292.400 C 237.689 290.530,239.013 288.664,239.292 288.253 C 239.572 287.842,240.664 286.336,241.721 284.907 C 243.620 282.337,244.175 280.815,242.347 283.191 C 241.826 283.867,240.995 284.893,240.500 285.469 C 240.005 286.045,239.600 286.766,239.600 287.071 C 239.600 287.376,239.337 287.726,239.015 287.850 C 238.694 287.973,238.322 288.416,238.189 288.835 C 238.056 289.253,237.676 289.866,237.345 290.198 C 236.677 290.866,232.400 297.101,232.400 297.407 C 232.400 297.513,232.119 297.915,231.776 298.300 C 229.951 300.349,227.200 304.175,227.200 304.664 C 227.200 304.972,226.937 305.326,226.615 305.450 C 226.294 305.573,225.928 305.995,225.804 306.388 C 225.679 306.781,225.133 307.619,224.589 308.251 C 224.046 308.883,223.601 309.616,223.600 309.880 C 223.600 310.144,223.372 310.504,223.093 310.680 C 222.814 310.856,222.274 311.450,221.893 312.000 C 221.511 312.550,220.390 314.170,219.400 315.600 C 216.409 319.922,216.228 320.172,215.506 320.971 C 215.123 321.394,214.705 322.069,214.578 322.471 C 214.450 322.872,214.200 323.200,214.022 323.200 C 213.843 323.200,213.473 323.740,213.200 324.400 C 212.927 325.060,212.573 325.600,212.414 325.600 C 212.256 325.600,211.787 326.230,211.372 327.000 C 210.957 327.770,210.475 328.400,210.299 328.400 C 210.124 328.400,209.823 328.815,209.630 329.321 C 208.800 331.503,204.657 335.503,202.872 335.845 C 200.612 336.278,195.137 335.801,194.640 335.128 C 194.398 334.799,193.795 334.315,193.300 334.051 C 192.805 333.788,192.400 333.382,192.400 333.149 C 192.400 332.689,191.228 331.059,189.500 329.117 C 188.895 328.438,188.400 327.638,188.400 327.341 C 188.400 327.043,188.225 326.800,188.010 326.800 C 187.796 326.800,187.321 326.215,186.954 325.500 C 186.588 324.785,186.161 324.110,186.006 324.000 C 185.851 323.890,184.931 322.654,183.962 321.253 C 182.993 319.852,181.704 318.052,181.097 317.253 C 180.491 316.454,179.885 315.485,179.751 315.100 C 179.616 314.715,179.343 314.400,179.143 314.400 C 178.944 314.400,178.620 313.995,178.425 313.500 C 178.062 312.582,177.451 311.726,175.500 309.404 C 174.895 308.684,174.400 307.893,174.400 307.647 C 174.400 307.401,174.085 306.858,173.700 306.440 C 173.315 306.023,172.590 305.078,172.089 304.340 C 171.587 303.603,170.282 301.777,169.189 300.282 C 168.095 298.787,167.200 297.432,167.200 297.271 C 167.200 297.110,166.840 296.670,166.400 296.293 C 165.960 295.916,165.600 295.367,165.600 295.074 C 165.600 294.780,165.150 294.117,164.600 293.600 C 164.050 293.083,163.600 292.422,163.600 292.130 C 163.600 291.839,163.425 291.600,163.210 291.600 C 162.996 291.600,162.527 291.032,162.168 290.338 C 161.472 288.993,161.443 288.952,159.681 286.800 C 159.051 286.030,158.415 285.130,158.268 284.800 C 158.120 284.470,157.371 283.390,156.602 282.400 C 155.832 281.410,155.027 280.195,154.811 279.700 C 154.596 279.205,154.235 278.800,154.010 278.800 C 153.784 278.800,153.600 278.555,153.600 278.255 C 153.600 277.682,151.842 275.187,150.431 273.758 C 149.974 273.295,149.600 272.738,149.600 272.520 C 149.600 272.302,149.150 271.601,148.600 270.962 C 148.051 270.323,147.601 269.678,147.600 269.529 C 147.600 269.379,147.371 269.019,147.091 268.729 C 146.811 268.438,145.922 267.196,145.116 265.970 C 144.309 264.743,143.368 263.506,143.025 263.221 C 142.681 262.935,142.400 262.513,142.400 262.283 C 142.400 262.052,142.101 261.533,141.736 261.129 C 141.370 260.725,140.875 260.070,140.636 259.673 C 139.162 257.231,138.282 256.000,138.009 256.000 C 137.837 256.000,137.473 255.460,137.200 254.800 C 136.927 254.140,136.535 253.600,136.331 253.600 C 136.126 253.600,135.769 253.056,135.537 252.392 C 135.305 251.727,134.775 251.001,134.358 250.777 C 133.941 250.554,133.600 250.121,133.600 249.814 C 133.600 249.508,133.373 249.019,133.095 248.729 C 132.817 248.438,132.246 247.665,131.827 247.010 C 131.407 246.356,130.917 245.636,130.738 245.410 C 130.559 245.185,129.959 244.434,129.406 243.742 C 128.853 243.050,128.400 242.356,128.400 242.200 C 128.400 242.044,127.952 241.350,127.404 240.658 C 126.855 239.966,126.143 239.040,125.820 238.600 C 125.498 238.160,124.817 237.260,124.307 236.600 C 123.797 235.940,123.129 234.905,122.822 234.300 C 122.516 233.695,122.137 233.200,121.981 233.200 C 121.825 233.200,121.473 232.660,121.200 232.000 C 120.927 231.340,120.540 230.800,120.342 230.800 C 120.143 230.800,119.804 230.395,119.589 229.900 C 119.373 229.405,118.565 228.190,117.793 227.200 C 117.020 226.210,116.124 224.860,115.800 224.200 C 115.476 223.540,114.676 222.280,114.021 221.400 C 113.367 220.520,112.582 219.260,112.278 218.600 C 111.752 217.460,110.400 215.999,110.400 216.571 M244.375 245.313 C 244.031 245.581,243.407 246.385,242.989 247.100 C 242.570 247.815,242.086 248.400,241.914 248.400 C 241.741 248.400,241.600 248.657,241.600 248.971 C 241.600 249.286,241.314 249.829,240.964 250.179 C 240.008 251.134,237.600 254.722,237.600 255.190 C 237.600 255.416,237.437 255.600,237.237 255.600 C 237.037 255.600,236.542 256.123,236.137 256.763 C 234.217 259.794,232.180 262.630,231.714 262.920 C 231.431 263.096,231.200 263.444,231.200 263.694 C 231.200 263.944,230.861 264.520,230.446 264.974 C 230.031 265.428,228.685 267.330,227.455 269.200 C 226.225 271.070,224.941 272.960,224.602 273.400 C 224.262 273.840,223.100 275.460,222.019 277.000 C 220.938 278.540,219.773 280.160,219.430 280.600 C 218.123 282.278,216.400 284.803,216.400 285.041 C 216.400 285.177,215.704 286.124,214.854 287.144 C 214.004 288.165,213.181 289.405,213.027 289.900 C 212.872 290.395,212.596 290.800,212.413 290.800 C 212.229 290.800,211.711 291.385,211.262 292.100 C 210.812 292.815,209.898 294.120,209.231 295.000 C 208.563 295.880,207.838 297.005,207.618 297.500 C 207.399 297.995,207.057 298.400,206.858 298.400 C 206.660 298.400,206.273 298.940,206.000 299.600 C 205.727 300.260,205.384 300.800,205.238 300.800 C 205.092 300.800,204.628 301.385,204.206 302.100 C 203.785 302.815,203.294 303.580,203.115 303.800 C 201.787 305.436,200.427 307.319,200.301 307.698 C 200.056 308.432,198.282 306.850,196.847 304.619 C 196.132 303.509,194.930 301.790,194.174 300.800 C 193.418 299.810,192.679 298.730,192.532 298.400 C 192.384 298.070,191.846 297.260,191.335 296.600 C 189.436 294.145,189.159 293.756,187.893 291.770 C 187.182 290.654,186.285 289.426,185.900 289.042 C 185.515 288.657,185.200 288.210,185.200 288.047 C 185.200 287.884,184.882 287.402,184.493 286.975 C 184.104 286.549,183.124 285.210,182.315 284.000 C 179.347 279.564,177.692 277.235,177.054 276.597 C 176.694 276.237,176.400 275.717,176.400 275.441 C 176.400 275.165,175.950 274.517,175.400 274.000 C 173.697 272.400,174.267 273.409,178.000 278.600 C 179.980 281.353,181.600 283.785,181.600 284.003 C 181.600 284.221,181.775 284.400,181.990 284.400 C 182.204 284.400,182.676 284.985,183.040 285.700 C 183.403 286.415,184.352 287.803,185.150 288.784 C 185.947 289.766,186.780 290.865,187.000 291.227 C 187.220 291.589,187.940 292.660,188.600 293.607 C 189.260 294.553,190.070 295.720,190.400 296.200 C 194.842 302.658,196.873 305.490,198.218 307.099 C 200.058 309.300,200.077 309.292,202.600 305.242 C 202.820 304.889,203.726 303.610,204.613 302.400 C 207.185 298.893,208.682 296.793,210.707 293.847 C 211.748 292.333,212.960 290.604,213.400 290.004 C 213.840 289.403,214.556 288.392,214.991 287.756 C 215.426 287.120,215.876 286.510,215.991 286.400 C 216.106 286.290,217.280 284.624,218.600 282.698 C 219.920 280.772,221.491 278.522,222.091 277.698 C 223.179 276.204,226.462 271.507,227.600 269.818 C 228.387 268.650,230.168 266.116,231.299 264.556 C 231.794 263.872,232.556 262.792,232.991 262.156 C 233.426 261.520,233.880 260.910,234.000 260.800 C 234.207 260.610,235.069 259.382,236.400 257.377 C 236.730 256.881,237.799 255.332,238.776 253.937 C 239.752 252.542,240.924 250.854,241.379 250.187 C 241.834 249.519,242.433 248.709,242.709 248.387 C 243.269 247.733,245.226 244.793,245.088 244.813 C 245.040 244.820,244.719 245.045,244.375 245.313 " stroke="none" fill="#b48084" fill-rule="evenodd"></path></g></svg>